<svg preserveAspectRatio="none" width="100%" height="100%" overflow="visible" style="display: block;" viewBox="0 0 17 17" fill="none" xmlns="http://www.w3.org/2000/svg">
<path id="Vector" fill-rule="evenodd" clip-rule="evenodd" d="M1.20666 0C0.540242 0 0 0.540241 0 1.20666V15.7933C0 16.4597 0.540243 17 1.20667 17H15.7933C16.4598 17 17 16.4597 17 15.7933V1.20666C17 0.540242 16.4598 0 15.7933 0H1.20666ZM3.81572 5.27936C4.6302 5.27936 5.29047 4.61909 5.29047 3.80461C5.29047 2.99013 4.6302 2.32986 3.81572 2.32986C3.00124 2.32986 2.34097 2.99013 2.34097 3.80461C2.34097 4.61909 3.00124 5.27936 3.81572 5.27936ZM6.64108 6.36924H9.08521V7.48891C9.08521 7.48891 9.74846 6.16241 11.5531 6.16241C13.1628 6.16241 14.4964 6.95543 14.4964 9.37261V14.4698H11.9636V9.99025C11.9636 8.56434 11.2023 8.40751 10.6222 8.40751C9.41833 8.40751 9.21223 9.44593 9.21223 10.1762V14.4698H6.64108V6.36924ZM5.1013 6.36925H2.53015V14.4698H5.1013V6.36925Z" fill="var(--fill-0, white)"/>
</svg>
