<svg preserveAspectRatio="none" width="100%" height="100%" overflow="visible" style="display: block;" viewBox="0 0 16.3119 13.6812" fill="none" xmlns="http://www.w3.org/2000/svg">
<path id="Vector" d="M15.2106 0.090462L0.761497 5.66352C-0.224678 6.05919 -0.218829 6.60923 0.581744 6.8545L4.1854 7.97928L5.56424 12.2067C5.73187 12.6694 5.64923 12.8529 6.1351 12.8529C6.51006 12.8529 6.6764 12.6819 6.88524 12.4779C7.01804 12.348 7.80654 11.5814 8.68696 10.7254L12.4354 13.4949C13.1252 13.8755 13.6233 13.6783 13.795 12.8543L16.2556 1.25907C16.5075 0.249075 15.8705 -0.209055 15.2106 0.090462ZM4.75095 7.72086L12.8736 2.59622C13.2791 2.35031 13.6509 2.48252 13.3456 2.7535L6.39051 9.02877L6.1197 11.9172L4.75095 7.72086V7.72086Z" fill="var(--fill-0, white)"/>
</svg>
