<svg preserveAspectRatio="none" width="100%" height="100%" overflow="visible" style="display: block;" viewBox="0 0 17.9991 18.0767" fill="none" xmlns="http://www.w3.org/2000/svg">
<path id="Vector" fill-rule="evenodd" clip-rule="evenodd" d="M9.48482 0.0110753C11.7136 0.120614 13.7905 1.03971 15.3767 2.62703C17.0687 4.32009 18 6.57062 17.9991 8.96396C17.9971 13.9028 13.9764 17.9213 9.03726 17.9213C7.17988 17.9213 5.7039 17.3507 4.75086 16.8311L0 18.0767L1.27144 13.435C0.487175 12.0765 0.0744981 10.5356 0.0751448 8.95685C0.077128 4.0181 4.09744 0 9.03713 0L9.48482 0.0110753ZM4.97095 15.2095L5.24299 15.3708C6.38665 16.0491 7.69758 16.408 9.0342 16.4086H9.03722C13.1428 16.4086 16.4843 13.0686 16.4859 8.96345C16.4867 6.97413 15.7127 5.10358 14.3063 3.69634C12.9 2.28902 11.0298 1.51354 9.04019 1.5129C4.93146 1.5129 1.58991 4.85248 1.58828 8.95737C1.58772 10.3642 1.98151 11.7342 2.72714 12.9195L2.90425 13.2013L2.15176 15.9486L4.97095 15.2095ZM13.5522 11.094C13.4962 11.0006 13.3469 10.9446 13.123 10.8326C12.8991 10.7205 11.7982 10.1791 11.5929 10.1043C11.3876 10.0297 11.2383 9.99243 11.0891 10.2164C10.9398 10.4404 10.5107 10.9446 10.38 11.094C10.2494 11.2434 10.1188 11.2621 9.89491 11.15C9.67098 11.038 8.94944 10.8016 8.09413 10.0391C7.42842 9.44564 6.97902 8.71274 6.84838 8.48867C6.71779 8.26463 6.83446 8.14346 6.94655 8.0319C7.0473 7.93158 7.17052 7.77046 7.28249 7.63977C7.39445 7.50911 7.43174 7.41569 7.50641 7.26638C7.58104 7.11698 7.54371 6.98633 7.48775 6.87429C7.43174 6.76221 6.98393 5.66053 6.79734 5.21238C6.61553 4.77599 6.43092 4.83507 6.29348 4.82818C6.16302 4.82172 6.01359 4.82029 5.86433 4.82029C5.71503 4.82029 5.47244 4.87627 5.26718 5.10039C5.06192 5.32442 4.48343 5.86595 4.48343 6.96754C4.48343 8.06926 5.28585 9.13344 5.39781 9.28284C5.50977 9.43228 6.97681 11.6929 9.22312 12.6624C9.75738 12.893 10.1745 13.0307 10.4997 13.1339C11.0361 13.3042 11.5243 13.2802 11.9101 13.2226C12.3404 13.1583 13.235 12.6811 13.4216 12.1584C13.6082 11.6355 13.6082 11.1874 13.5522 11.094Z" fill="var(--fill-0, white)"/>
</svg>
