<svg preserveAspectRatio="none" width="100%" height="100%" overflow="visible" style="display: block;" viewBox="0 0 1488.2 1488.2" fill="none" xmlns="http://www.w3.org/2000/svg">
<path id="Vector" d="M41.4333 0.1H0.1V41.4333M41.4333 0.1V41.4333M41.4333 0.1H82.7667M41.4333 41.4333H0.1M41.4333 41.4333H82.7667M41.4333 41.4333V82.7667M0.1 41.4333V82.7667M82.7667 0.1V41.4333M82.7667 0.1H124.1M82.7667 41.4333H124.1M82.7667 41.4333V82.7667M124.1 0.1V41.4333M124.1 0.1H165.433M124.1 41.4333H165.433M124.1 41.4333V82.7667M165.433 0.1V41.4333M165.433 0.1H206.767M165.433 41.4333H206.767M165.433 41.4333V82.7667M206.767 0.1V41.4333M206.767 0.1H248.1M206.767 41.4333H248.1M206.767 41.4333V82.7667M248.1 0.1V41.4333M248.1 0.1H289.433M248.1 41.4333H289.433M248.1 41.4333V82.7667M289.433 0.1V41.4333M289.433 0.1H330.767M289.433 41.4333H330.767M289.433 41.4333V82.7667M330.767 0.1V41.4333M330.767 0.1H372.1M330.767 41.4333H372.1M330.767 41.4333V82.7667M372.1 0.1V41.4333M372.1 0.1H413.433M372.1 41.4333H413.433M372.1 41.4333V82.7667M413.433 0.1V41.4333M413.433 0.1H454.767M413.433 41.4333H454.767M413.433 41.4333V82.7667M454.767 0.1V41.4333M454.767 0.1H496.1M454.767 41.4333H496.1M454.767 41.4333V82.7667M496.1 0.1V41.4333M496.1 0.1H537.433M496.1 41.4333H537.433M496.1 41.4333V82.7667M537.433 0.1V41.4333M537.433 0.1H578.767M537.433 41.4333H578.767M537.433 41.4333V82.7667M578.767 0.1V41.4333M578.767 0.1H620.1M578.767 41.4333H620.1M578.767 41.4333V82.7667M620.1 0.1V41.4333M620.1 0.1H661.433M620.1 41.4333H661.433M620.1 41.4333V82.7667M661.433 0.1V41.4333M661.433 0.1H702.767M661.433 41.4333H702.767M661.433 41.4333V82.7667M702.767 0.1V41.4333M702.767 0.1H744.1M702.767 41.4333H744.1M702.767 41.4333V82.7667M744.1 0.1V41.4333M744.1 0.1H785.433M744.1 41.4333H785.433M744.1 41.4333V82.7667M785.433 0.1V41.4333M785.433 0.1H826.767M785.433 41.4333H826.767M785.433 41.4333V82.7667M826.767 0.1V41.4333M826.767 0.1H868.1M826.767 41.4333H868.1M826.767 41.4333V82.7667M868.1 0.1V41.4333M868.1 0.1H909.433M868.1 41.4333H909.433M868.1 41.4333V82.7667M909.433 0.1V41.4333M909.433 0.1H950.767M909.433 41.4333H950.767M909.433 41.4333V82.7667M950.767 0.1V41.4333M950.767 0.1H992.1M950.767 41.4333H992.1M950.767 41.4333V82.7667M992.1 0.1V41.4333M992.1 0.1H1033.43M992.1 41.4333H1033.43M992.1 41.4333V82.7667M1033.43 0.1V41.4333M1033.43 0.1H1074.77M1033.43 41.4333H1074.77M1033.43 41.4333V82.7667M1074.77 0.1V41.4333M1074.77 0.1H1116.1M1074.77 41.4333H1116.1M1074.77 41.4333V82.7667M1116.1 0.1V41.4333M1116.1 0.1H1157.43M1116.1 41.4333H1157.43M1116.1 41.4333V82.7667M1157.43 0.1V41.4333M1157.43 0.1H1198.77M1157.43 41.4333H1198.77M1157.43 41.4333V82.7667M1198.77 0.1V41.4333M1198.77 0.1H1240.1M1198.77 41.4333H1240.1M1198.77 41.4333V82.7667M1240.1 0.1V41.4333M1240.1 0.1H1281.43M1240.1 41.4333H1281.43M1240.1 41.4333V82.7667M1281.43 0.1V41.4333M1281.43 0.1H1322.77M1281.43 41.4333H1322.77M1281.43 41.4333V82.7667M1322.77 0.1V41.4333M1322.77 0.1H1364.1M1322.77 41.4333H1364.1M1322.77 41.4333V82.7667M1364.1 0.1V41.4333M1364.1 0.1H1405.43M1364.1 41.4333H1405.43M1364.1 41.4333V82.7667M1405.43 0.1V41.4333M1405.43 0.1H1446.77M1405.43 41.4333H1446.77M1405.43 41.4333V82.7667M1446.77 0.1V41.4333M1446.77 0.1H1488.1V41.4333M1446.77 41.4333H1488.1M1446.77 41.4333V82.7667M1488.1 41.4333V82.7667M41.4333 82.7667H0.1M41.4333 82.7667H82.7667M41.4333 82.7667V124.1M0.1 82.7667V124.1M82.7667 82.7667H124.1M82.7667 82.7667V124.1M124.1 82.7667H165.433M124.1 82.7667V124.1M165.433 82.7667H206.767M165.433 82.7667V124.1M206.767 82.7667H248.1M206.767 82.7667V124.1M248.1 82.7667H289.433M248.1 82.7667V124.1M289.433 82.7667H330.767M289.433 82.7667V124.1M330.767 82.7667H372.1M330.767 82.7667V124.1M372.1 82.7667H413.433M372.1 82.7667V124.1M413.433 82.7667H454.767M413.433 82.7667V124.1M454.767 82.7667H496.1M454.767 82.7667V124.1M496.1 82.7667H537.433M496.1 82.7667V124.1M537.433 82.7667H578.767M537.433 82.7667V124.1M578.767 82.7667H620.1M578.767 82.7667V124.1M620.1 82.7667H661.433M620.1 82.7667V124.1M661.433 82.7667H702.767M661.433 82.7667V124.1M702.767 82.7667H744.1M702.767 82.7667V124.1M744.1 82.7667H785.433M744.1 82.7667V124.1M785.433 82.7667H826.767M785.433 82.7667V124.1M826.767 82.7667H868.1M826.767 82.7667V124.1M868.1 82.7667H909.433M868.1 82.7667V124.1M909.433 82.7667H950.767M909.433 82.7667V124.1M950.767 82.7667H992.1M950.767 82.7667V124.1M992.1 82.7667H1033.43M992.1 82.7667V124.1M1033.43 82.7667H1074.77M1033.43 82.7667V124.1M1074.77 82.7667H1116.1M1074.77 82.7667V124.1M1116.1 82.7667H1157.43M1116.1 82.7667V124.1M1157.43 82.7667H1198.77M1157.43 82.7667V124.1M1198.77 82.7667H1240.1M1198.77 82.7667V124.1M1240.1 82.7667H1281.43M1240.1 82.7667V124.1M1281.43 82.7667H1322.77M1281.43 82.7667V124.1M1322.77 82.7667H1364.1M1322.77 82.7667V124.1M1364.1 82.7667H1405.43M1364.1 82.7667V124.1M1405.43 82.7667H1446.77M1405.43 82.7667V124.1M1446.77 82.7667H1488.1M1446.77 82.7667V124.1M1488.1 82.7667V124.1M41.4333 124.1H0.1M41.4333 124.1H82.7667M41.4333 124.1V165.433M0.1 124.1V165.433M82.7667 124.1H124.1M82.7667 124.1V165.433M124.1 124.1H165.433M124.1 124.1V165.433M165.433 124.1H206.767M165.433 124.1V165.433M206.767 124.1H248.1M206.767 124.1V165.433M248.1 124.1H289.433M248.1 124.1V165.433M289.433 124.1H330.767M289.433 124.1V165.433M330.767 124.1H372.1M330.767 124.1V165.433M372.1 124.1H413.433M372.1 124.1V165.433M413.433 124.1H454.767M413.433 124.1V165.433M454.767 124.1H496.1M454.767 124.1V165.433M496.1 124.1H537.433M496.1 124.1V165.433M537.433 124.1H578.767M537.433 124.1V165.433M578.767 124.1H620.1M578.767 124.1V165.433M620.1 124.1H661.433M620.1 124.1V165.433M661.433 124.1H702.767M661.433 124.1V165.433M702.767 124.1H744.1M702.767 124.1V165.433M744.1 124.1H785.433M744.1 124.1V165.433M785.433 124.1H826.767M785.433 124.1V165.433M826.767 124.1H868.1M826.767 124.1V165.433M868.1 124.1H909.433M868.1 124.1V165.433M909.433 124.1H950.767M909.433 124.1V165.433M950.767 124.1H992.1M950.767 124.1V165.433M992.1 124.1H1033.43M992.1 124.1V165.433M1033.43 124.1H1074.77M1033.43 124.1V165.433M1074.77 124.1H1116.1M1074.77 124.1V165.433M1116.1 124.1H1157.43M1116.1 124.1V165.433M1157.43 124.1H1198.77M1157.43 124.1V165.433M1198.77 124.1H1240.1M1198.77 124.1V165.433M1240.1 124.1H1281.43M1240.1 124.1V165.433M1281.43 124.1H1322.77M1281.43 124.1V165.433M1322.77 124.1H1364.1M1322.77 124.1V165.433M1364.1 124.1H1405.43M1364.1 124.1V165.433M1405.43 124.1H1446.77M1405.43 124.1V165.433M1446.77 124.1H1488.1M1446.77 124.1V165.433M1488.1 124.1V165.433M41.4333 165.433H0.1M41.4333 165.433H82.7667M41.4333 165.433V206.767M0.1 165.433V206.767M82.7667 165.433H124.1M82.7667 165.433V206.767M124.1 165.433H165.433M124.1 165.433V206.767M165.433 165.433H206.767M165.433 165.433V206.767M206.767 165.433H248.1M206.767 165.433V206.767M248.1 165.433H289.433M248.1 165.433V206.767M289.433 165.433H330.767M289.433 165.433V206.767M330.767 165.433H372.1M330.767 165.433V206.767M372.1 165.433H413.433M372.1 165.433V206.767M413.433 165.433H454.767M413.433 165.433V206.767M454.767 165.433H496.1M454.767 165.433V206.767M496.1 165.433H537.433M496.1 165.433V206.767M537.433 165.433H578.767M537.433 165.433V206.767M578.767 165.433H620.1M578.767 165.433V206.767M620.1 165.433H661.433M620.1 165.433V206.767M661.433 165.433H702.767M661.433 165.433V206.767M702.767 165.433H744.1M702.767 165.433V206.767M744.1 165.433H785.433M744.1 165.433V206.767M785.433 165.433H826.767M785.433 165.433V206.767M826.767 165.433H868.1M826.767 165.433V206.767M868.1 165.433H909.433M868.1 165.433V206.767M909.433 165.433H950.767M909.433 165.433V206.767M950.767 165.433H992.1M950.767 165.433V206.767M992.1 165.433H1033.43M992.1 165.433V206.767M1033.43 165.433H1074.77M1033.43 165.433V206.767M1074.77 165.433H1116.1M1074.77 165.433V206.767M1116.1 165.433H1157.43M1116.1 165.433V206.767M1157.43 165.433H1198.77M1157.43 165.433V206.767M1198.77 165.433H1240.1M1198.77 165.433V206.767M1240.1 165.433H1281.43M1240.1 165.433V206.767M1281.43 165.433H1322.77M1281.43 165.433V206.767M1322.77 165.433H1364.1M1322.77 165.433V206.767M1364.1 165.433H1405.43M1364.1 165.433V206.767M1405.43 165.433H1446.77M1405.43 165.433V206.767M1446.77 165.433H1488.1M1446.77 165.433V206.767M1488.1 165.433V206.767M41.4333 206.767H0.1M41.4333 206.767H82.7667M41.4333 206.767V248.1M0.1 206.767V248.1M82.7667 206.767H124.1M82.7667 206.767V248.1M124.1 206.767H165.433M124.1 206.767V248.1M165.433 206.767H206.767M165.433 206.767V248.1M206.767 206.767H248.1M206.767 206.767V248.1M248.1 206.767H289.433M248.1 206.767V248.1M289.433 206.767H330.767M289.433 206.767V248.1M330.767 206.767H372.1M330.767 206.767V248.1M372.1 206.767H413.433M372.1 206.767V248.1M413.433 206.767H454.767M413.433 206.767V248.1M454.767 206.767H496.1M454.767 206.767V248.1M496.1 206.767H537.433M496.1 206.767V248.1M537.433 206.767H578.767M537.433 206.767V248.1M578.767 206.767H620.1M578.767 206.767V248.1M620.1 206.767H661.433M620.1 206.767V248.1M661.433 206.767H702.767M661.433 206.767V248.1M702.767 206.767H744.1M702.767 206.767V248.1M744.1 206.767H785.433M744.1 206.767V248.1M785.433 206.767H826.767M785.433 206.767V248.1M826.767 206.767H868.1M826.767 206.767V248.1M868.1 206.767H909.433M868.1 206.767V248.1M909.433 206.767H950.767M909.433 206.767V248.1M950.767 206.767H992.1M950.767 206.767V248.1M992.1 206.767H1033.43M992.1 206.767V248.1M1033.43 206.767H1074.77M1033.43 206.767V248.1M1074.77 206.767H1116.1M1074.77 206.767V248.1M1116.1 206.767H1157.43M1116.1 206.767V248.1M1157.43 206.767H1198.77M1157.43 206.767V248.1M1198.77 206.767H1240.1M1198.77 206.767V248.1M1240.1 206.767H1281.43M1240.1 206.767V248.1M1281.43 206.767H1322.77M1281.43 206.767V248.1M1322.77 206.767H1364.1M1322.77 206.767V248.1M1364.1 206.767H1405.43M1364.1 206.767V248.1M1405.43 206.767H1446.77M1405.43 206.767V248.1M1446.77 206.767H1488.1M1446.77 206.767V248.1M1488.1 206.767V248.1M41.4333 248.1H0.1M41.4333 248.1H82.7667M41.4333 248.1V289.433M0.1 248.1V289.433M82.7667 248.1H124.1M82.7667 248.1V289.433M124.1 248.1H165.433M124.1 248.1V289.433M165.433 248.1H206.767M165.433 248.1V289.433M206.767 248.1H248.1M206.767 248.1V289.433M248.1 248.1H289.433M248.1 248.1V289.433M289.433 248.1H330.767M289.433 248.1V289.433M330.767 248.1H372.1M330.767 248.1V289.433M372.1 248.1H413.433M372.1 248.1V289.433M413.433 248.1H454.767M413.433 248.1V289.433M454.767 248.1H496.1M454.767 248.1V289.433M496.1 248.1H537.433M496.1 248.1V289.433M537.433 248.1H578.767M537.433 248.1V289.433M578.767 248.1H620.1M578.767 248.1V289.433M620.1 248.1H661.433M620.1 248.1V289.433M661.433 248.1H702.767M661.433 248.1V289.433M702.767 248.1H744.1M702.767 248.1V289.433M744.1 248.1H785.433M744.1 248.1V289.433M785.433 248.1H826.767M785.433 248.1V289.433M826.767 248.1H868.1M826.767 248.1V289.433M868.1 248.1H909.433M868.1 248.1V289.433M909.433 248.1H950.767M909.433 248.1V289.433M950.767 248.1H992.1M950.767 248.1V289.433M992.1 248.1H1033.43M992.1 248.1V289.433M1033.43 248.1H1074.77M1033.43 248.1V289.433M1074.77 248.1H1116.1M1074.77 248.1V289.433M1116.1 248.1H1157.43M1116.1 248.1V289.433M1157.43 248.1H1198.77M1157.43 248.1V289.433M1198.77 248.1H1240.1M1198.77 248.1V289.433M1240.1 248.1H1281.43M1240.1 248.1V289.433M1281.43 248.1H1322.77M1281.43 248.1V289.433M1322.77 248.1H1364.1M1322.77 248.1V289.433M1364.1 248.1H1405.43M1364.1 248.1V289.433M1405.43 248.1H1446.77M1405.43 248.1V289.433M1446.77 248.1H1488.1M1446.77 248.1V289.433M1488.1 248.1V289.433M41.4333 289.433H0.1M41.4333 289.433H82.7667M41.4333 289.433V330.767M0.1 289.433V330.767M82.7667 289.433H124.1M82.7667 289.433V330.767M124.1 289.433H165.433M124.1 289.433V330.767M165.433 289.433H206.767M165.433 289.433V330.767M206.767 289.433H248.1M206.767 289.433V330.767M248.1 289.433H289.433M248.1 289.433V330.767M289.433 289.433H330.767M289.433 289.433V330.767M330.767 289.433H372.1M330.767 289.433V330.767M372.1 289.433H413.433M372.1 289.433V330.767M413.433 289.433H454.767M413.433 289.433V330.767M454.767 289.433H496.1M454.767 289.433V330.767M496.1 289.433H537.433M496.1 289.433V330.767M537.433 289.433H578.767M537.433 289.433V330.767M578.767 289.433H620.1M578.767 289.433V330.767M620.1 289.433H661.433M620.1 289.433V330.767M661.433 289.433H702.767M661.433 289.433V330.767M702.767 289.433H744.1M702.767 289.433V330.767M744.1 289.433H785.433M744.1 289.433V330.767M785.433 289.433H826.767M785.433 289.433V330.767M826.767 289.433H868.1M826.767 289.433V330.767M868.1 289.433H909.433M868.1 289.433V330.767M909.433 289.433H950.767M909.433 289.433V330.767M950.767 289.433H992.1M950.767 289.433V330.767M992.1 289.433H1033.43M992.1 289.433V330.767M1033.43 289.433H1074.77M1033.43 289.433V330.767M1074.77 289.433H1116.1M1074.77 289.433V330.767M1116.1 289.433H1157.43M1116.1 289.433V330.767M1157.43 289.433H1198.77M1157.43 289.433V330.767M1198.77 289.433H1240.1M1198.77 289.433V330.767M1240.1 289.433H1281.43M1240.1 289.433V330.767M1281.43 289.433H1322.77M1281.43 289.433V330.767M1322.77 289.433H1364.1M1322.77 289.433V330.767M1364.1 289.433H1405.43M1364.1 289.433V330.767M1405.43 289.433H1446.77M1405.43 289.433V330.767M1446.77 289.433H1488.1M1446.77 289.433V330.767M1488.1 289.433V330.767M41.4333 330.767H0.1M41.4333 330.767H82.7667M41.4333 330.767V372.1M0.1 330.767V372.1M82.7667 330.767H124.1M82.7667 330.767V372.1M124.1 330.767H165.433M124.1 330.767V372.1M165.433 330.767H206.767M165.433 330.767V372.1M206.767 330.767H248.1M206.767 330.767V372.1M248.1 330.767H289.433M248.1 330.767V372.1M289.433 330.767H330.767M289.433 330.767V372.1M330.767 330.767H372.1M330.767 330.767V372.1M372.1 330.767H413.433M372.1 330.767V372.1M413.433 330.767H454.767M413.433 330.767V372.1M454.767 330.767H496.1M454.767 330.767V372.1M496.1 330.767H537.433M496.1 330.767V372.1M537.433 330.767H578.767M537.433 330.767V372.1M578.767 330.767H620.1M578.767 330.767V372.1M620.1 330.767H661.433M620.1 330.767V372.1M661.433 330.767H702.767M661.433 330.767V372.1M702.767 330.767H744.1M702.767 330.767V372.1M744.1 330.767H785.433M744.1 330.767V372.1M785.433 330.767H826.767M785.433 330.767V372.1M826.767 330.767H868.1M826.767 330.767V372.1M868.1 330.767H909.433M868.1 330.767V372.1M909.433 330.767H950.767M909.433 330.767V372.1M950.767 330.767H992.1M950.767 330.767V372.1M992.1 330.767H1033.43M992.1 330.767V372.1M1033.43 330.767H1074.77M1033.43 330.767V372.1M1074.77 330.767H1116.1M1074.77 330.767V372.1M1116.1 330.767H1157.43M1116.1 330.767V372.1M1157.43 330.767H1198.77M1157.43 330.767V372.1M1198.77 330.767H1240.1M1198.77 330.767V372.1M1240.1 330.767H1281.43M1240.1 330.767V372.1M1281.43 330.767H1322.77M1281.43 330.767V372.1M1322.77 330.767H1364.1M1322.77 330.767V372.1M1364.1 330.767H1405.43M1364.1 330.767V372.1M1405.43 330.767H1446.77M1405.43 330.767V372.1M1446.77 330.767H1488.1M1446.77 330.767V372.1M1488.1 330.767V372.1M41.4333 372.1H0.1M41.4333 372.1H82.7667M41.4333 372.1V413.433M0.1 372.1V413.433M82.7667 372.1H124.1M82.7667 372.1V413.433M124.1 372.1H165.433M124.1 372.1V413.433M165.433 372.1H206.767M165.433 372.1V413.433M206.767 372.1H248.1M206.767 372.1V413.433M248.1 372.1H289.433M248.1 372.1V413.433M289.433 372.1H330.767M289.433 372.1V413.433M330.767 372.1H372.1M330.767 372.1V413.433M372.1 372.1H413.433M372.1 372.1V413.433M413.433 372.1H454.767M413.433 372.1V413.433M454.767 372.1H496.1M454.767 372.1V413.433M496.1 372.1H537.433M496.1 372.1V413.433M537.433 372.1H578.767M537.433 372.1V413.433M578.767 372.1H620.1M578.767 372.1V413.433M620.1 372.1H661.433M620.1 372.1V413.433M661.433 372.1H702.767M661.433 372.1V413.433M702.767 372.1H744.1M702.767 372.1V413.433M744.1 372.1H785.433M744.1 372.1V413.433M785.433 372.1H826.767M785.433 372.1V413.433M826.767 372.1H868.1M826.767 372.1V413.433M868.1 372.1H909.433M868.1 372.1V413.433M909.433 372.1H950.767M909.433 372.1V413.433M950.767 372.1H992.1M950.767 372.1V413.433M992.1 372.1H1033.43M992.1 372.1V413.433M1033.43 372.1H1074.77M1033.43 372.1V413.433M1074.77 372.1H1116.1M1074.77 372.1V413.433M1116.1 372.1H1157.43M1116.1 372.1V413.433M1157.43 372.1H1198.77M1157.43 372.1V413.433M1198.77 372.1H1240.1M1198.77 372.1V413.433M1240.1 372.1H1281.43M1240.1 372.1V413.433M1281.43 372.1H1322.77M1281.43 372.1V413.433M1322.77 372.1H1364.1M1322.77 372.1V413.433M1364.1 372.1H1405.43M1364.1 372.1V413.433M1405.43 372.1H1446.77M1405.43 372.1V413.433M1446.77 372.1H1488.1M1446.77 372.1V413.433M1488.1 372.1V413.433M41.4333 413.433H0.1M41.4333 413.433H82.7667M41.4333 413.433V454.767M0.1 413.433V454.767M82.7667 413.433H124.1M82.7667 413.433V454.767M124.1 413.433H165.433M124.1 413.433V454.767M165.433 413.433H206.767M165.433 413.433V454.767M206.767 413.433H248.1M206.767 413.433V454.767M248.1 413.433H289.433M248.1 413.433V454.767M289.433 413.433H330.767M289.433 413.433V454.767M330.767 413.433H372.1M330.767 413.433V454.767M372.1 413.433H413.433M372.1 413.433V454.767M413.433 413.433H454.767M413.433 413.433V454.767M454.767 413.433H496.1M454.767 413.433V454.767M496.1 413.433H537.433M496.1 413.433V454.767M537.433 413.433H578.767M537.433 413.433V454.767M578.767 413.433H620.1M578.767 413.433V454.767M620.1 413.433H661.433M620.1 413.433V454.767M661.433 413.433H702.767M661.433 413.433V454.767M702.767 413.433H744.1M702.767 413.433V454.767M744.1 413.433H785.433M744.1 413.433V454.767M785.433 413.433H826.767M785.433 413.433V454.767M826.767 413.433H868.1M826.767 413.433V454.767M868.1 413.433H909.433M868.1 413.433V454.767M909.433 413.433H950.767M909.433 413.433V454.767M950.767 413.433H992.1M950.767 413.433V454.767M992.1 413.433H1033.43M992.1 413.433V454.767M1033.43 413.433H1074.77M1033.43 413.433V454.767M1074.77 413.433H1116.1M1074.77 413.433V454.767M1116.1 413.433H1157.43M1116.1 413.433V454.767M1157.43 413.433H1198.77M1157.43 413.433V454.767M1198.77 413.433H1240.1M1198.77 413.433V454.767M1240.1 413.433H1281.43M1240.1 413.433V454.767M1281.43 413.433H1322.77M1281.43 413.433V454.767M1322.77 413.433H1364.1M1322.77 413.433V454.767M1364.1 413.433H1405.43M1364.1 413.433V454.767M1405.43 413.433H1446.77M1405.43 413.433V454.767M1446.77 413.433H1488.1M1446.77 413.433V454.767M1488.1 413.433V454.767M41.4333 454.767H0.1M41.4333 454.767H82.7667M41.4333 454.767V496.1M0.1 454.767V496.1M82.7667 454.767H124.1M82.7667 454.767V496.1M124.1 454.767H165.433M124.1 454.767V496.1M165.433 454.767H206.767M165.433 454.767V496.1M206.767 454.767H248.1M206.767 454.767V496.1M248.1 454.767H289.433M248.1 454.767V496.1M289.433 454.767H330.767M289.433 454.767V496.1M330.767 454.767H372.1M330.767 454.767V496.1M372.1 454.767H413.433M372.1 454.767V496.1M413.433 454.767H454.767M413.433 454.767V496.1M454.767 454.767H496.1M454.767 454.767V496.1M496.1 454.767H537.433M496.1 454.767V496.1M537.433 454.767H578.767M537.433 454.767V496.1M578.767 454.767H620.1M578.767 454.767V496.1M620.1 454.767H661.433M620.1 454.767V496.1M661.433 454.767H702.767M661.433 454.767V496.1M702.767 454.767H744.1M702.767 454.767V496.1M744.1 454.767H785.433M744.1 454.767V496.1M785.433 454.767H826.767M785.433 454.767V496.1M826.767 454.767H868.1M826.767 454.767V496.1M868.1 454.767H909.433M868.1 454.767V496.1M909.433 454.767H950.767M909.433 454.767V496.1M950.767 454.767H992.1M950.767 454.767V496.1M992.1 454.767H1033.43M992.1 454.767V496.1M1033.43 454.767H1074.77M1033.43 454.767V496.1M1074.77 454.767H1116.1M1074.77 454.767V496.1M1116.1 454.767H1157.43M1116.1 454.767V496.1M1157.43 454.767H1198.77M1157.43 454.767V496.1M1198.77 454.767H1240.1M1198.77 454.767V496.1M1240.1 454.767H1281.43M1240.1 454.767V496.1M1281.43 454.767H1322.77M1281.43 454.767V496.1M1322.77 454.767H1364.1M1322.77 454.767V496.1M1364.1 454.767H1405.43M1364.1 454.767V496.1M1405.43 454.767H1446.77M1405.43 454.767V496.1M1446.77 454.767H1488.1M1446.77 454.767V496.1M1488.1 454.767V496.1M41.4333 496.1H0.1M41.4333 496.1H82.7667M41.4333 496.1V537.433M0.1 496.1V537.433M82.7667 496.1H124.1M82.7667 496.1V537.433M124.1 496.1H165.433M124.1 496.1V537.433M165.433 496.1H206.767M165.433 496.1V537.433M206.767 496.1H248.1M206.767 496.1V537.433M248.1 496.1H289.433M248.1 496.1V537.433M289.433 496.1H330.767M289.433 496.1V537.433M330.767 496.1H372.1M330.767 496.1V537.433M372.1 496.1H413.433M372.1 496.1V537.433M413.433 496.1H454.767M413.433 496.1V537.433M454.767 496.1H496.1M454.767 496.1V537.433M496.1 496.1H537.433M496.1 496.1V537.433M537.433 496.1H578.767M537.433 496.1V537.433M578.767 496.1H620.1M578.767 496.1V537.433M620.1 496.1H661.433M620.1 496.1V537.433M661.433 496.1H702.767M661.433 496.1V537.433M702.767 496.1H744.1M702.767 496.1V537.433M744.1 496.1H785.433M744.1 496.1V537.433M785.433 496.1H826.767M785.433 496.1V537.433M826.767 496.1H868.1M826.767 496.1V537.433M868.1 496.1H909.433M868.1 496.1V537.433M909.433 496.1H950.767M909.433 496.1V537.433M950.767 496.1H992.1M950.767 496.1V537.433M992.1 496.1H1033.43M992.1 496.1V537.433M1033.43 496.1H1074.77M1033.43 496.1V537.433M1074.77 496.1H1116.1M1074.77 496.1V537.433M1116.1 496.1H1157.43M1116.1 496.1V537.433M1157.43 496.1H1198.77M1157.43 496.1V537.433M1198.77 496.1H1240.1M1198.77 496.1V537.433M1240.1 496.1H1281.43M1240.1 496.1V537.433M1281.43 496.1H1322.77M1281.43 496.1V537.433M1322.77 496.1H1364.1M1322.77 496.1V537.433M1364.1 496.1H1405.43M1364.1 496.1V537.433M1405.43 496.1H1446.77M1405.43 496.1V537.433M1446.77 496.1H1488.1M1446.77 496.1V537.433M1488.1 496.1V537.433M41.4333 537.433H0.1M41.4333 537.433H82.7667M41.4333 537.433V578.767M0.1 537.433V578.767M82.7667 537.433H124.1M82.7667 537.433V578.767M124.1 537.433H165.433M124.1 537.433V578.767M165.433 537.433H206.767M165.433 537.433V578.767M206.767 537.433H248.1M206.767 537.433V578.767M248.1 537.433H289.433M248.1 537.433V578.767M289.433 537.433H330.767M289.433 537.433V578.767M330.767 537.433H372.1M330.767 537.433V578.767M372.1 537.433H413.433M372.1 537.433V578.767M413.433 537.433H454.767M413.433 537.433V578.767M454.767 537.433H496.1M454.767 537.433V578.767M496.1 537.433H537.433M496.1 537.433V578.767M537.433 537.433H578.767M537.433 537.433V578.767M578.767 537.433H620.1M578.767 537.433V578.767M620.1 537.433H661.433M620.1 537.433V578.767M661.433 537.433H702.767M661.433 537.433V578.767M702.767 537.433H744.1M702.767 537.433V578.767M744.1 537.433H785.433M744.1 537.433V578.767M785.433 537.433H826.767M785.433 537.433V578.767M826.767 537.433H868.1M826.767 537.433V578.767M868.1 537.433H909.433M868.1 537.433V578.767M909.433 537.433H950.767M909.433 537.433V578.767M950.767 537.433H992.1M950.767 537.433V578.767M992.1 537.433H1033.43M992.1 537.433V578.767M1033.43 537.433H1074.77M1033.43 537.433V578.767M1074.77 537.433H1116.1M1074.77 537.433V578.767M1116.1 537.433H1157.43M1116.1 537.433V578.767M1157.43 537.433H1198.77M1157.43 537.433V578.767M1198.77 537.433H1240.1M1198.77 537.433V578.767M1240.1 537.433H1281.43M1240.1 537.433V578.767M1281.43 537.433H1322.77M1281.43 537.433V578.767M1322.77 537.433H1364.1M1322.77 537.433V578.767M1364.1 537.433H1405.43M1364.1 537.433V578.767M1405.43 537.433H1446.77M1405.43 537.433V578.767M1446.77 537.433H1488.1M1446.77 537.433V578.767M1488.1 537.433V578.767M41.4333 578.767H0.1M41.4333 578.767H82.7667M41.4333 578.767V620.1M0.1 578.767V620.1M82.7667 578.767H124.1M82.7667 578.767V620.1M124.1 578.767H165.433M124.1 578.767V620.1M165.433 578.767H206.767M165.433 578.767V620.1M206.767 578.767H248.1M206.767 578.767V620.1M248.1 578.767H289.433M248.1 578.767V620.1M289.433 578.767H330.767M289.433 578.767V620.1M330.767 578.767H372.1M330.767 578.767V620.1M372.1 578.767H413.433M372.1 578.767V620.1M413.433 578.767H454.767M413.433 578.767V620.1M454.767 578.767H496.1M454.767 578.767V620.1M496.1 578.767H537.433M496.1 578.767V620.1M537.433 578.767H578.767M537.433 578.767V620.1M578.767 578.767H620.1M578.767 578.767V620.1M620.1 578.767H661.433M620.1 578.767V620.1M661.433 578.767H702.767M661.433 578.767V620.1M702.767 578.767H744.1M702.767 578.767V620.1M744.1 578.767H785.433M744.1 578.767V620.1M785.433 578.767H826.767M785.433 578.767V620.1M826.767 578.767H868.1M826.767 578.767V620.1M868.1 578.767H909.433M868.1 578.767V620.1M909.433 578.767H950.767M909.433 578.767V620.1M950.767 578.767H992.1M950.767 578.767V620.1M992.1 578.767H1033.43M992.1 578.767V620.1M1033.43 578.767H1074.77M1033.43 578.767V620.1M1074.77 578.767H1116.1M1074.77 578.767V620.1M1116.1 578.767H1157.43M1116.1 578.767V620.1M1157.43 578.767H1198.77M1157.43 578.767V620.1M1198.77 578.767H1240.1M1198.77 578.767V620.1M1240.1 578.767H1281.43M1240.1 578.767V620.1M1281.43 578.767H1322.77M1281.43 578.767V620.1M1322.77 578.767H1364.1M1322.77 578.767V620.1M1364.1 578.767H1405.43M1364.1 578.767V620.1M1405.43 578.767H1446.77M1405.43 578.767V620.1M1446.77 578.767H1488.1M1446.77 578.767V620.1M1488.1 578.767V620.1M41.4333 620.1H0.1M41.4333 620.1H82.7667M41.4333 620.1V661.433M0.1 620.1V661.433M82.7667 620.1H124.1M82.7667 620.1V661.433M124.1 620.1H165.433M124.1 620.1V661.433M165.433 620.1H206.767M165.433 620.1V661.433M206.767 620.1H248.1M206.767 620.1V661.433M248.1 620.1H289.433M248.1 620.1V661.433M289.433 620.1H330.767M289.433 620.1V661.433M330.767 620.1H372.1M330.767 620.1V661.433M372.1 620.1H413.433M372.1 620.1V661.433M413.433 620.1H454.767M413.433 620.1V661.433M454.767 620.1H496.1M454.767 620.1V661.433M496.1 620.1H537.433M496.1 620.1V661.433M537.433 620.1H578.767M537.433 620.1V661.433M578.767 620.1H620.1M578.767 620.1V661.433M620.1 620.1H661.433M620.1 620.1V661.433M661.433 620.1H702.767M661.433 620.1V661.433M702.767 620.1H744.1M702.767 620.1V661.433M744.1 620.1H785.433M744.1 620.1V661.433M785.433 620.1H826.767M785.433 620.1V661.433M826.767 620.1H868.1M826.767 620.1V661.433M868.1 620.1H909.433M868.1 620.1V661.433M909.433 620.1H950.767M909.433 620.1V661.433M950.767 620.1H992.1M950.767 620.1V661.433M992.1 620.1H1033.43M992.1 620.1V661.433M1033.43 620.1H1074.77M1033.43 620.1V661.433M1074.77 620.1H1116.1M1074.77 620.1V661.433M1116.1 620.1H1157.43M1116.1 620.1V661.433M1157.43 620.1H1198.77M1157.43 620.1V661.433M1198.77 620.1H1240.1M1198.77 620.1V661.433M1240.1 620.1H1281.43M1240.1 620.1V661.433M1281.43 620.1H1322.77M1281.43 620.1V661.433M1322.77 620.1H1364.1M1322.77 620.1V661.433M1364.1 620.1H1405.43M1364.1 620.1V661.433M1405.43 620.1H1446.77M1405.43 620.1V661.433M1446.77 620.1H1488.1M1446.77 620.1V661.433M1488.1 620.1V661.433M41.4333 661.433H0.1M41.4333 661.433H82.7667M41.4333 661.433V702.767M0.1 661.433V702.767M82.7667 661.433H124.1M82.7667 661.433V702.767M124.1 661.433H165.433M124.1 661.433V702.767M165.433 661.433H206.767M165.433 661.433V702.767M206.767 661.433H248.1M206.767 661.433V702.767M248.1 661.433H289.433M248.1 661.433V702.767M289.433 661.433H330.767M289.433 661.433V702.767M330.767 661.433H372.1M330.767 661.433V702.767M372.1 661.433H413.433M372.1 661.433V702.767M413.433 661.433H454.767M413.433 661.433V702.767M454.767 661.433H496.1M454.767 661.433V702.767M496.1 661.433H537.433M496.1 661.433V702.767M537.433 661.433H578.767M537.433 661.433V702.767M578.767 661.433H620.1M578.767 661.433V702.767M620.1 661.433H661.433M620.1 661.433V702.767M661.433 661.433H702.767M661.433 661.433V702.767M702.767 661.433H744.1M702.767 661.433V702.767M744.1 661.433H785.433M744.1 661.433V702.767M785.433 661.433H826.767M785.433 661.433V702.767M826.767 661.433H868.1M826.767 661.433V702.767M868.1 661.433H909.433M868.1 661.433V702.767M909.433 661.433H950.767M909.433 661.433V702.767M950.767 661.433H992.1M950.767 661.433V702.767M992.1 661.433H1033.43M992.1 661.433V702.767M1033.43 661.433H1074.77M1033.43 661.433V702.767M1074.77 661.433H1116.1M1074.77 661.433V702.767M1116.1 661.433H1157.43M1116.1 661.433V702.767M1157.43 661.433H1198.77M1157.43 661.433V702.767M1198.77 661.433H1240.1M1198.77 661.433V702.767M1240.1 661.433H1281.43M1240.1 661.433V702.767M1281.43 661.433H1322.77M1281.43 661.433V702.767M1322.77 661.433H1364.1M1322.77 661.433V702.767M1364.1 661.433H1405.43M1364.1 661.433V702.767M1405.43 661.433H1446.77M1405.43 661.433V702.767M1446.77 661.433H1488.1M1446.77 661.433V702.767M1488.1 661.433V702.767M41.4333 702.767H0.1M41.4333 702.767H82.7667M41.4333 702.767V744.1M0.1 702.767V744.1M82.7667 702.767H124.1M82.7667 702.767V744.1M124.1 702.767H165.433M124.1 702.767V744.1M165.433 702.767H206.767M165.433 702.767V744.1M206.767 702.767H248.1M206.767 702.767V744.1M248.1 702.767H289.433M248.1 702.767V744.1M289.433 702.767H330.767M289.433 702.767V744.1M330.767 702.767H372.1M330.767 702.767V744.1M372.1 702.767H413.433M372.1 702.767V744.1M413.433 702.767H454.767M413.433 702.767V744.1M454.767 702.767H496.1M454.767 702.767V744.1M496.1 702.767H537.433M496.1 702.767V744.1M537.433 702.767H578.767M537.433 702.767V744.1M578.767 702.767H620.1M578.767 702.767V744.1M620.1 702.767H661.433M620.1 702.767V744.1M661.433 702.767H702.767M661.433 702.767V744.1M702.767 702.767H744.1M702.767 702.767V744.1M744.1 702.767H785.433M744.1 702.767V744.1M785.433 702.767H826.767M785.433 702.767V744.1M826.767 702.767H868.1M826.767 702.767V744.1M868.1 702.767H909.433M868.1 702.767V744.1M909.433 702.767H950.767M909.433 702.767V744.1M950.767 702.767H992.1M950.767 702.767V744.1M992.1 702.767H1033.43M992.1 702.767V744.1M1033.43 702.767H1074.77M1033.43 702.767V744.1M1074.77 702.767H1116.1M1074.77 702.767V744.1M1116.1 702.767H1157.43M1116.1 702.767V744.1M1157.43 702.767H1198.77M1157.43 702.767V744.1M1198.77 702.767H1240.1M1198.77 702.767V744.1M1240.1 702.767H1281.43M1240.1 702.767V744.1M1281.43 702.767H1322.77M1281.43 702.767V744.1M1322.77 702.767H1364.1M1322.77 702.767V744.1M1364.1 702.767H1405.43M1364.1 702.767V744.1M1405.43 702.767H1446.77M1405.43 702.767V744.1M1446.77 702.767H1488.1M1446.77 702.767V744.1M1488.1 702.767V744.1M41.4333 744.1H0.1M41.4333 744.1H82.7667M41.4333 744.1V785.433M0.1 744.1V785.433M82.7667 744.1H124.1M82.7667 744.1V785.433M124.1 744.1H165.433M124.1 744.1V785.433M165.433 744.1H206.767M165.433 744.1V785.433M206.767 744.1H248.1M206.767 744.1V785.433M248.1 744.1H289.433M248.1 744.1V785.433M289.433 744.1H330.767M289.433 744.1V785.433M330.767 744.1H372.1M330.767 744.1V785.433M372.1 744.1H413.433M372.1 744.1V785.433M413.433 744.1H454.767M413.433 744.1V785.433M454.767 744.1H496.1M454.767 744.1V785.433M496.1 744.1H537.433M496.1 744.1V785.433M537.433 744.1H578.767M537.433 744.1V785.433M578.767 744.1H620.1M578.767 744.1V785.433M620.1 744.1H661.433M620.1 744.1V785.433M661.433 744.1H702.767M661.433 744.1V785.433M702.767 744.1H744.1M702.767 744.1V785.433M744.1 744.1H785.433M744.1 744.1V785.433M785.433 744.1H826.767M785.433 744.1V785.433M826.767 744.1H868.1M826.767 744.1V785.433M868.1 744.1H909.433M868.1 744.1V785.433M909.433 744.1H950.767M909.433 744.1V785.433M950.767 744.1H992.1M950.767 744.1V785.433M992.1 744.1H1033.43M992.1 744.1V785.433M1033.43 744.1H1074.77M1033.43 744.1V785.433M1074.77 744.1H1116.1M1074.77 744.1V785.433M1116.1 744.1H1157.43M1116.1 744.1V785.433M1157.43 744.1H1198.77M1157.43 744.1V785.433M1198.77 744.1H1240.1M1198.77 744.1V785.433M1240.1 744.1H1281.43M1240.1 744.1V785.433M1281.43 744.1H1322.77M1281.43 744.1V785.433M1322.77 744.1H1364.1M1322.77 744.1V785.433M1364.1 744.1H1405.43M1364.1 744.1V785.433M1405.43 744.1H1446.77M1405.43 744.1V785.433M1446.77 744.1H1488.1M1446.77 744.1V785.433M1488.1 744.1V785.433M41.4333 785.433H0.1M41.4333 785.433H82.7667M41.4333 785.433V826.767M0.1 785.433V826.767M82.7667 785.433H124.1M82.7667 785.433V826.767M124.1 785.433H165.433M124.1 785.433V826.767M165.433 785.433H206.767M165.433 785.433V826.767M206.767 785.433H248.1M206.767 785.433V826.767M248.1 785.433H289.433M248.1 785.433V826.767M289.433 785.433H330.767M289.433 785.433V826.767M330.767 785.433H372.1M330.767 785.433V826.767M372.1 785.433H413.433M372.1 785.433V826.767M413.433 785.433H454.767M413.433 785.433V826.767M454.767 785.433H496.1M454.767 785.433V826.767M496.1 785.433H537.433M496.1 785.433V826.767M537.433 785.433H578.767M537.433 785.433V826.767M578.767 785.433H620.1M578.767 785.433V826.767M620.1 785.433H661.433M620.1 785.433V826.767M661.433 785.433H702.767M661.433 785.433V826.767M702.767 785.433H744.1M702.767 785.433V826.767M744.1 785.433H785.433M744.1 785.433V826.767M785.433 785.433H826.767M785.433 785.433V826.767M826.767 785.433H868.1M826.767 785.433V826.767M868.1 785.433H909.433M868.1 785.433V826.767M909.433 785.433H950.767M909.433 785.433V826.767M950.767 785.433H992.1M950.767 785.433V826.767M992.1 785.433H1033.43M992.1 785.433V826.767M1033.43 785.433H1074.77M1033.43 785.433V826.767M1074.77 785.433H1116.1M1074.77 785.433V826.767M1116.1 785.433H1157.43M1116.1 785.433V826.767M1157.43 785.433H1198.77M1157.43 785.433V826.767M1198.77 785.433H1240.1M1198.77 785.433V826.767M1240.1 785.433H1281.43M1240.1 785.433V826.767M1281.43 785.433H1322.77M1281.43 785.433V826.767M1322.77 785.433H1364.1M1322.77 785.433V826.767M1364.1 785.433H1405.43M1364.1 785.433V826.767M1405.43 785.433H1446.77M1405.43 785.433V826.767M1446.77 785.433H1488.1M1446.77 785.433V826.767M1488.1 785.433V826.767M41.4333 826.767H0.1M41.4333 826.767H82.7667M41.4333 826.767V868.1M0.1 826.767V868.1M82.7667 826.767H124.1M82.7667 826.767V868.1M124.1 826.767H165.433M124.1 826.767V868.1M165.433 826.767H206.767M165.433 826.767V868.1M206.767 826.767H248.1M206.767 826.767V868.1M248.1 826.767H289.433M248.1 826.767V868.1M289.433 826.767H330.767M289.433 826.767V868.1M330.767 826.767H372.1M330.767 826.767V868.1M372.1 826.767H413.433M372.1 826.767V868.1M413.433 826.767H454.767M413.433 826.767V868.1M454.767 826.767H496.1M454.767 826.767V868.1M496.1 826.767H537.433M496.1 826.767V868.1M537.433 826.767H578.767M537.433 826.767V868.1M578.767 826.767H620.1M578.767 826.767V868.1M620.1 826.767H661.433M620.1 826.767V868.1M661.433 826.767H702.767M661.433 826.767V868.1M702.767 826.767H744.1M702.767 826.767V868.1M744.1 826.767H785.433M744.1 826.767V868.1M785.433 826.767H826.767M785.433 826.767V868.1M826.767 826.767H868.1M826.767 826.767V868.1M868.1 826.767H909.433M868.1 826.767V868.1M909.433 826.767H950.767M909.433 826.767V868.1M950.767 826.767H992.1M950.767 826.767V868.1M992.1 826.767H1033.43M992.1 826.767V868.1M1033.43 826.767H1074.77M1033.43 826.767V868.1M1074.77 826.767H1116.1M1074.77 826.767V868.1M1116.1 826.767H1157.43M1116.1 826.767V868.1M1157.43 826.767H1198.77M1157.43 826.767V868.1M1198.77 826.767H1240.1M1198.77 826.767V868.1M1240.1 826.767H1281.43M1240.1 826.767V868.1M1281.43 826.767H1322.77M1281.43 826.767V868.1M1322.77 826.767H1364.1M1322.77 826.767V868.1M1364.1 826.767H1405.43M1364.1 826.767V868.1M1405.43 826.767H1446.77M1405.43 826.767V868.1M1446.77 826.767H1488.1M1446.77 826.767V868.1M1488.1 826.767V868.1M41.4333 868.1H0.1M41.4333 868.1H82.7667M41.4333 868.1V909.433M0.1 868.1V909.433M82.7667 868.1H124.1M82.7667 868.1V909.433M124.1 868.1H165.433M124.1 868.1V909.433M165.433 868.1H206.767M165.433 868.1V909.433M206.767 868.1H248.1M206.767 868.1V909.433M248.1 868.1H289.433M248.1 868.1V909.433M289.433 868.1H330.767M289.433 868.1V909.433M330.767 868.1H372.1M330.767 868.1V909.433M372.1 868.1H413.433M372.1 868.1V909.433M413.433 868.1H454.767M413.433 868.1V909.433M454.767 868.1H496.1M454.767 868.1V909.433M496.1 868.1H537.433M496.1 868.1V909.433M537.433 868.1H578.767M537.433 868.1V909.433M578.767 868.1H620.1M578.767 868.1V909.433M620.1 868.1H661.433M620.1 868.1V909.433M661.433 868.1H702.767M661.433 868.1V909.433M702.767 868.1H744.1M702.767 868.1V909.433M744.1 868.1H785.433M744.1 868.1V909.433M785.433 868.1H826.767M785.433 868.1V909.433M826.767 868.1H868.1M826.767 868.1V909.433M868.1 868.1H909.433M868.1 868.1V909.433M909.433 868.1H950.767M909.433 868.1V909.433M950.767 868.1H992.1M950.767 868.1V909.433M992.1 868.1H1033.43M992.1 868.1V909.433M1033.43 868.1H1074.77M1033.43 868.1V909.433M1074.77 868.1H1116.1M1074.77 868.1V909.433M1116.1 868.1H1157.43M1116.1 868.1V909.433M1157.43 868.1H1198.77M1157.43 868.1V909.433M1198.77 868.1H1240.1M1198.77 868.1V909.433M1240.1 868.1H1281.43M1240.1 868.1V909.433M1281.43 868.1H1322.77M1281.43 868.1V909.433M1322.77 868.1H1364.1M1322.77 868.1V909.433M1364.1 868.1H1405.43M1364.1 868.1V909.433M1405.43 868.1H1446.77M1405.43 868.1V909.433M1446.77 868.1H1488.1M1446.77 868.1V909.433M1488.1 868.1V909.433M41.4333 909.433H0.1M41.4333 909.433H82.7667M41.4333 909.433V950.767M0.1 909.433V950.767M82.7667 909.433H124.1M82.7667 909.433V950.767M124.1 909.433H165.433M124.1 909.433V950.767M165.433 909.433H206.767M165.433 909.433V950.767M206.767 909.433H248.1M206.767 909.433V950.767M248.1 909.433H289.433M248.1 909.433V950.767M289.433 909.433H330.767M289.433 909.433V950.767M330.767 909.433H372.1M330.767 909.433V950.767M372.1 909.433H413.433M372.1 909.433V950.767M413.433 909.433H454.767M413.433 909.433V950.767M454.767 909.433H496.1M454.767 909.433V950.767M496.1 909.433H537.433M496.1 909.433V950.767M537.433 909.433H578.767M537.433 909.433V950.767M578.767 909.433H620.1M578.767 909.433V950.767M620.1 909.433H661.433M620.1 909.433V950.767M661.433 909.433H702.767M661.433 909.433V950.767M702.767 909.433H744.1M702.767 909.433V950.767M744.1 909.433H785.433M744.1 909.433V950.767M785.433 909.433H826.767M785.433 909.433V950.767M826.767 909.433H868.1M826.767 909.433V950.767M868.1 909.433H909.433M868.1 909.433V950.767M909.433 909.433H950.767M909.433 909.433V950.767M950.767 909.433H992.1M950.767 909.433V950.767M992.1 909.433H1033.43M992.1 909.433V950.767M1033.43 909.433H1074.77M1033.43 909.433V950.767M1074.77 909.433H1116.1M1074.77 909.433V950.767M1116.1 909.433H1157.43M1116.1 909.433V950.767M1157.43 909.433H1198.77M1157.43 909.433V950.767M1198.77 909.433H1240.1M1198.77 909.433V950.767M1240.1 909.433H1281.43M1240.1 909.433V950.767M1281.43 909.433H1322.77M1281.43 909.433V950.767M1322.77 909.433H1364.1M1322.77 909.433V950.767M1364.1 909.433H1405.43M1364.1 909.433V950.767M1405.43 909.433H1446.77M1405.43 909.433V950.767M1446.77 909.433H1488.1M1446.77 909.433V950.767M1488.1 909.433V950.767M41.4333 950.767H0.1M41.4333 950.767H82.7667M41.4333 950.767V992.1M0.1 950.767V992.1M82.7667 950.767H124.1M82.7667 950.767V992.1M124.1 950.767H165.433M124.1 950.767V992.1M165.433 950.767H206.767M165.433 950.767V992.1M206.767 950.767H248.1M206.767 950.767V992.1M248.1 950.767H289.433M248.1 950.767V992.1M289.433 950.767H330.767M289.433 950.767V992.1M330.767 950.767H372.1M330.767 950.767V992.1M372.1 950.767H413.433M372.1 950.767V992.1M413.433 950.767H454.767M413.433 950.767V992.1M454.767 950.767H496.1M454.767 950.767V992.1M496.1 950.767H537.433M496.1 950.767V992.1M537.433 950.767H578.767M537.433 950.767V992.1M578.767 950.767H620.1M578.767 950.767V992.1M620.1 950.767H661.433M620.1 950.767V992.1M661.433 950.767H702.767M661.433 950.767V992.1M702.767 950.767H744.1M702.767 950.767V992.1M744.1 950.767H785.433M744.1 950.767V992.1M785.433 950.767H826.767M785.433 950.767V992.1M826.767 950.767H868.1M826.767 950.767V992.1M868.1 950.767H909.433M868.1 950.767V992.1M909.433 950.767H950.767M909.433 950.767V992.1M950.767 950.767H992.1M950.767 950.767V992.1M992.1 950.767H1033.43M992.1 950.767V992.1M1033.43 950.767H1074.77M1033.43 950.767V992.1M1074.77 950.767H1116.1M1074.77 950.767V992.1M1116.1 950.767H1157.43M1116.1 950.767V992.1M1157.43 950.767H1198.77M1157.43 950.767V992.1M1198.77 950.767H1240.1M1198.77 950.767V992.1M1240.1 950.767H1281.43M1240.1 950.767V992.1M1281.43 950.767H1322.77M1281.43 950.767V992.1M1322.77 950.767H1364.1M1322.77 950.767V992.1M1364.1 950.767H1405.43M1364.1 950.767V992.1M1405.43 950.767H1446.77M1405.43 950.767V992.1M1446.77 950.767H1488.1M1446.77 950.767V992.1M1488.1 950.767V992.1M41.4333 992.1H0.1M41.4333 992.1H82.7667M41.4333 992.1V1033.43M0.1 992.1V1033.43M82.7667 992.1H124.1M82.7667 992.1V1033.43M124.1 992.1H165.433M124.1 992.1V1033.43M165.433 992.1H206.767M165.433 992.1V1033.43M206.767 992.1H248.1M206.767 992.1V1033.43M248.1 992.1H289.433M248.1 992.1V1033.43M289.433 992.1H330.767M289.433 992.1V1033.43M330.767 992.1H372.1M330.767 992.1V1033.43M372.1 992.1H413.433M372.1 992.1V1033.43M413.433 992.1H454.767M413.433 992.1V1033.43M454.767 992.1H496.1M454.767 992.1V1033.43M496.1 992.1H537.433M496.1 992.1V1033.43M537.433 992.1H578.767M537.433 992.1V1033.43M578.767 992.1H620.1M578.767 992.1V1033.43M620.1 992.1H661.433M620.1 992.1V1033.43M661.433 992.1H702.767M661.433 992.1V1033.43M702.767 992.1H744.1M702.767 992.1V1033.43M744.1 992.1H785.433M744.1 992.1V1033.43M785.433 992.1H826.767M785.433 992.1V1033.43M826.767 992.1H868.1M826.767 992.1V1033.43M868.1 992.1H909.433M868.1 992.1V1033.43M909.433 992.1H950.767M909.433 992.1V1033.43M950.767 992.1H992.1M950.767 992.1V1033.43M992.1 992.1H1033.43M992.1 992.1V1033.43M1033.43 992.1H1074.77M1033.43 992.1V1033.43M1074.77 992.1H1116.1M1074.77 992.1V1033.43M1116.1 992.1H1157.43M1116.1 992.1V1033.43M1157.43 992.1H1198.77M1157.43 992.1V1033.43M1198.77 992.1H1240.1M1198.77 992.1V1033.43M1240.1 992.1H1281.43M1240.1 992.1V1033.43M1281.43 992.1H1322.77M1281.43 992.1V1033.43M1322.77 992.1H1364.1M1322.77 992.1V1033.43M1364.1 992.1H1405.43M1364.1 992.1V1033.43M1405.43 992.1H1446.77M1405.43 992.1V1033.43M1446.77 992.1H1488.1M1446.77 992.1V1033.43M1488.1 992.1V1033.43M41.4333 1033.43H0.1M41.4333 1033.43H82.7667M41.4333 1033.43V1074.77M0.1 1033.43V1074.77M82.7667 1033.43H124.1M82.7667 1033.43V1074.77M124.1 1033.43H165.433M124.1 1033.43V1074.77M165.433 1033.43H206.767M165.433 1033.43V1074.77M206.767 1033.43H248.1M206.767 1033.43V1074.77M248.1 1033.43H289.433M248.1 1033.43V1074.77M289.433 1033.43H330.767M289.433 1033.43V1074.77M330.767 1033.43H372.1M330.767 1033.43V1074.77M372.1 1033.43H413.433M372.1 1033.43V1074.77M413.433 1033.43H454.767M413.433 1033.43V1074.77M454.767 1033.43H496.1M454.767 1033.43V1074.77M496.1 1033.43H537.433M496.1 1033.43V1074.77M537.433 1033.43H578.767M537.433 1033.43V1074.77M578.767 1033.43H620.1M578.767 1033.43V1074.77M620.1 1033.43H661.433M620.1 1033.43V1074.77M661.433 1033.43H702.767M661.433 1033.43V1074.77M702.767 1033.43H744.1M702.767 1033.43V1074.77M744.1 1033.43H785.433M744.1 1033.43V1074.77M785.433 1033.43H826.767M785.433 1033.43V1074.77M826.767 1033.43H868.1M826.767 1033.43V1074.77M868.1 1033.43H909.433M868.1 1033.43V1074.77M909.433 1033.43H950.767M909.433 1033.43V1074.77M950.767 1033.43H992.1M950.767 1033.43V1074.77M992.1 1033.43H1033.43M992.1 1033.43V1074.77M1033.43 1033.43H1074.77M1033.43 1033.43V1074.77M1074.77 1033.43H1116.1M1074.77 1033.43V1074.77M1116.1 1033.43H1157.43M1116.1 1033.43V1074.77M1157.43 1033.43H1198.77M1157.43 1033.43V1074.77M1198.77 1033.43H1240.1M1198.77 1033.43V1074.77M1240.1 1033.43H1281.43M1240.1 1033.43V1074.77M1281.43 1033.43H1322.77M1281.43 1033.43V1074.77M1322.77 1033.43H1364.1M1322.77 1033.43V1074.77M1364.1 1033.43H1405.43M1364.1 1033.43V1074.77M1405.43 1033.43H1446.77M1405.43 1033.43V1074.77M1446.77 1033.43H1488.1M1446.77 1033.43V1074.77M1488.1 1033.43V1074.77M41.4333 1074.77H0.1M41.4333 1074.77H82.7667M41.4333 1074.77V1116.1M0.1 1074.77V1116.1M82.7667 1074.77H124.1M82.7667 1074.77V1116.1M124.1 1074.77H165.433M124.1 1074.77V1116.1M165.433 1074.77H206.767M165.433 1074.77V1116.1M206.767 1074.77H248.1M206.767 1074.77V1116.1M248.1 1074.77H289.433M248.1 1074.77V1116.1M289.433 1074.77H330.767M289.433 1074.77V1116.1M330.767 1074.77H372.1M330.767 1074.77V1116.1M372.1 1074.77H413.433M372.1 1074.77V1116.1M413.433 1074.77H454.767M413.433 1074.77V1116.1M454.767 1074.77H496.1M454.767 1074.77V1116.1M496.1 1074.77H537.433M496.1 1074.77V1116.1M537.433 1074.77H578.767M537.433 1074.77V1116.1M578.767 1074.77H620.1M578.767 1074.77V1116.1M620.1 1074.77H661.433M620.1 1074.77V1116.1M661.433 1074.77H702.767M661.433 1074.77V1116.1M702.767 1074.77H744.1M702.767 1074.77V1116.1M744.1 1074.77H785.433M744.1 1074.77V1116.1M785.433 1074.77H826.767M785.433 1074.77V1116.1M826.767 1074.77H868.1M826.767 1074.77V1116.1M868.1 1074.77H909.433M868.1 1074.77V1116.1M909.433 1074.77H950.767M909.433 1074.77V1116.1M950.767 1074.77H992.1M950.767 1074.77V1116.1M992.1 1074.77H1033.43M992.1 1074.77V1116.1M1033.43 1074.77H1074.77M1033.43 1074.77V1116.1M1074.77 1074.77H1116.1M1074.77 1074.77V1116.1M1116.1 1074.77H1157.43M1116.1 1074.77V1116.1M1157.43 1074.77H1198.77M1157.43 1074.77V1116.1M1198.77 1074.77H1240.1M1198.77 1074.77V1116.1M1240.1 1074.77H1281.43M1240.1 1074.77V1116.1M1281.43 1074.77H1322.77M1281.43 1074.77V1116.1M1322.77 1074.77H1364.1M1322.77 1074.77V1116.1M1364.1 1074.77H1405.43M1364.1 1074.77V1116.1M1405.43 1074.77H1446.77M1405.43 1074.77V1116.1M1446.77 1074.77H1488.1M1446.77 1074.77V1116.1M1488.1 1074.77V1116.1M41.4333 1116.1H0.1M41.4333 1116.1H82.7667M41.4333 1116.1V1157.43M0.1 1116.1V1157.43M82.7667 1116.1H124.1M82.7667 1116.1V1157.43M124.1 1116.1H165.433M124.1 1116.1V1157.43M165.433 1116.1H206.767M165.433 1116.1V1157.43M206.767 1116.1H248.1M206.767 1116.1V1157.43M248.1 1116.1H289.433M248.1 1116.1V1157.43M289.433 1116.1H330.767M289.433 1116.1V1157.43M330.767 1116.1H372.1M330.767 1116.1V1157.43M372.1 1116.1H413.433M372.1 1116.1V1157.43M413.433 1116.1H454.767M413.433 1116.1V1157.43M454.767 1116.1H496.1M454.767 1116.1V1157.43M496.1 1116.1H537.433M496.1 1116.1V1157.43M537.433 1116.1H578.767M537.433 1116.1V1157.43M578.767 1116.1H620.1M578.767 1116.1V1157.43M620.1 1116.1H661.433M620.1 1116.1V1157.43M661.433 1116.1H702.767M661.433 1116.1V1157.43M702.767 1116.1H744.1M702.767 1116.1V1157.43M744.1 1116.1H785.433M744.1 1116.1V1157.43M785.433 1116.1H826.767M785.433 1116.1V1157.43M826.767 1116.1H868.1M826.767 1116.1V1157.43M868.1 1116.1H909.433M868.1 1116.1V1157.43M909.433 1116.1H950.767M909.433 1116.1V1157.43M950.767 1116.1H992.1M950.767 1116.1V1157.43M992.1 1116.1H1033.43M992.1 1116.1V1157.43M1033.43 1116.1H1074.77M1033.43 1116.1V1157.43M1074.77 1116.1H1116.1M1074.77 1116.1V1157.43M1116.1 1116.1H1157.43M1116.1 1116.1V1157.43M1157.43 1116.1H1198.77M1157.43 1116.1V1157.43M1198.77 1116.1H1240.1M1198.77 1116.1V1157.43M1240.1 1116.1H1281.43M1240.1 1116.1V1157.43M1281.43 1116.1H1322.77M1281.43 1116.1V1157.43M1322.77 1116.1H1364.1M1322.77 1116.1V1157.43M1364.1 1116.1H1405.43M1364.1 1116.1V1157.43M1405.43 1116.1H1446.77M1405.43 1116.1V1157.43M1446.77 1116.1H1488.1M1446.77 1116.1V1157.43M1488.1 1116.1V1157.43M41.4333 1157.43H0.1M41.4333 1157.43H82.7667M41.4333 1157.43V1198.77M0.1 1157.43V1198.77M82.7667 1157.43H124.1M82.7667 1157.43V1198.77M124.1 1157.43H165.433M124.1 1157.43V1198.77M165.433 1157.43H206.767M165.433 1157.43V1198.77M206.767 1157.43H248.1M206.767 1157.43V1198.77M248.1 1157.43H289.433M248.1 1157.43V1198.77M289.433 1157.43H330.767M289.433 1157.43V1198.77M330.767 1157.43H372.1M330.767 1157.43V1198.77M372.1 1157.43H413.433M372.1 1157.43V1198.77M413.433 1157.43H454.767M413.433 1157.43V1198.77M454.767 1157.43H496.1M454.767 1157.43V1198.77M496.1 1157.43H537.433M496.1 1157.43V1198.77M537.433 1157.43H578.767M537.433 1157.43V1198.77M578.767 1157.43H620.1M578.767 1157.43V1198.77M620.1 1157.43H661.433M620.1 1157.43V1198.77M661.433 1157.43H702.767M661.433 1157.43V1198.77M702.767 1157.43H744.1M702.767 1157.43V1198.77M744.1 1157.43H785.433M744.1 1157.43V1198.77M785.433 1157.43H826.767M785.433 1157.43V1198.77M826.767 1157.43H868.1M826.767 1157.43V1198.77M868.1 1157.43H909.433M868.1 1157.43V1198.77M909.433 1157.43H950.767M909.433 1157.43V1198.77M950.767 1157.43H992.1M950.767 1157.43V1198.77M992.1 1157.43H1033.43M992.1 1157.43V1198.77M1033.43 1157.43H1074.77M1033.43 1157.43V1198.77M1074.77 1157.43H1116.1M1074.77 1157.43V1198.77M1116.1 1157.43H1157.43M1116.1 1157.43V1198.77M1157.43 1157.43H1198.77M1157.43 1157.43V1198.77M1198.77 1157.43H1240.1M1198.77 1157.43V1198.77M1240.1 1157.43H1281.43M1240.1 1157.43V1198.77M1281.43 1157.43H1322.77M1281.43 1157.43V1198.77M1322.77 1157.43H1364.1M1322.77 1157.43V1198.77M1364.1 1157.43H1405.43M1364.1 1157.43V1198.77M1405.43 1157.43H1446.77M1405.43 1157.43V1198.77M1446.77 1157.43H1488.1M1446.77 1157.43V1198.77M1488.1 1157.43V1198.77M41.4333 1198.77H0.1M41.4333 1198.77H82.7667M41.4333 1198.77V1240.1M0.1 1198.77V1240.1M82.7667 1198.77H124.1M82.7667 1198.77V1240.1M124.1 1198.77H165.433M124.1 1198.77V1240.1M165.433 1198.77H206.767M165.433 1198.77V1240.1M206.767 1198.77H248.1M206.767 1198.77V1240.1M248.1 1198.77H289.433M248.1 1198.77V1240.1M289.433 1198.77H330.767M289.433 1198.77V1240.1M330.767 1198.77H372.1M330.767 1198.77V1240.1M372.1 1198.77H413.433M372.1 1198.77V1240.1M413.433 1198.77H454.767M413.433 1198.77V1240.1M454.767 1198.77H496.1M454.767 1198.77V1240.1M496.1 1198.77H537.433M496.1 1198.77V1240.1M537.433 1198.77H578.767M537.433 1198.77V1240.1M578.767 1198.77H620.1M578.767 1198.77V1240.1M620.1 1198.77H661.433M620.1 1198.77V1240.1M661.433 1198.77H702.767M661.433 1198.77V1240.1M702.767 1198.77H744.1M702.767 1198.77V1240.1M744.1 1198.77H785.433M744.1 1198.77V1240.1M785.433 1198.77H826.767M785.433 1198.77V1240.1M826.767 1198.77H868.1M826.767 1198.77V1240.1M868.1 1198.77H909.433M868.1 1198.77V1240.1M909.433 1198.77H950.767M909.433 1198.77V1240.1M950.767 1198.77H992.1M950.767 1198.77V1240.1M992.1 1198.77H1033.43M992.1 1198.77V1240.1M1033.43 1198.77H1074.77M1033.43 1198.77V1240.1M1074.77 1198.77H1116.1M1074.77 1198.77V1240.1M1116.1 1198.77H1157.43M1116.1 1198.77V1240.1M1157.43 1198.77H1198.77M1157.43 1198.77V1240.1M1198.77 1198.77H1240.1M1198.77 1198.77V1240.1M1240.1 1198.77H1281.43M1240.1 1198.77V1240.1M1281.43 1198.77H1322.77M1281.43 1198.77V1240.1M1322.77 1198.77H1364.1M1322.77 1198.77V1240.1M1364.1 1198.77H1405.43M1364.1 1198.77V1240.1M1405.43 1198.77H1446.77M1405.43 1198.77V1240.1M1446.77 1198.77H1488.1M1446.77 1198.77V1240.1M1488.1 1198.77V1240.1M41.4333 1240.1H0.1M41.4333 1240.1H82.7667M41.4333 1240.1V1281.43M0.1 1240.1V1281.43M82.7667 1240.1H124.1M82.7667 1240.1V1281.43M124.1 1240.1H165.433M124.1 1240.1V1281.43M165.433 1240.1H206.767M165.433 1240.1V1281.43M206.767 1240.1H248.1M206.767 1240.1V1281.43M248.1 1240.1H289.433M248.1 1240.1V1281.43M289.433 1240.1H330.767M289.433 1240.1V1281.43M330.767 1240.1H372.1M330.767 1240.1V1281.43M372.1 1240.1H413.433M372.1 1240.1V1281.43M413.433 1240.1H454.767M413.433 1240.1V1281.43M454.767 1240.1H496.1M454.767 1240.1V1281.43M496.1 1240.1H537.433M496.1 1240.1V1281.43M537.433 1240.1H578.767M537.433 1240.1V1281.43M578.767 1240.1H620.1M578.767 1240.1V1281.43M620.1 1240.1H661.433M620.1 1240.1V1281.43M661.433 1240.1H702.767M661.433 1240.1V1281.43M702.767 1240.1H744.1M702.767 1240.1V1281.43M744.1 1240.1H785.433M744.1 1240.1V1281.43M785.433 1240.1H826.767M785.433 1240.1V1281.43M826.767 1240.1H868.1M826.767 1240.1V1281.43M868.1 1240.1H909.433M868.1 1240.1V1281.43M909.433 1240.1H950.767M909.433 1240.1V1281.43M950.767 1240.1H992.1M950.767 1240.1V1281.43M992.1 1240.1H1033.43M992.1 1240.1V1281.43M1033.43 1240.1H1074.77M1033.43 1240.1V1281.43M1074.77 1240.1H1116.1M1074.77 1240.1V1281.43M1116.1 1240.1H1157.43M1116.1 1240.1V1281.43M1157.43 1240.1H1198.77M1157.43 1240.1V1281.43M1198.77 1240.1H1240.1M1198.77 1240.1V1281.43M1240.1 1240.1H1281.43M1240.1 1240.1V1281.43M1281.43 1240.1H1322.77M1281.43 1240.1V1281.43M1322.77 1240.1H1364.1M1322.77 1240.1V1281.43M1364.1 1240.1H1405.43M1364.1 1240.1V1281.43M1405.43 1240.1H1446.77M1405.43 1240.1V1281.43M1446.77 1240.1H1488.1M1446.77 1240.1V1281.43M1488.1 1240.1V1281.43M41.4333 1281.43H0.1M41.4333 1281.43H82.7667M41.4333 1281.43V1322.77M0.1 1281.43V1322.77M82.7667 1281.43H124.1M82.7667 1281.43V1322.77M124.1 1281.43H165.433M124.1 1281.43V1322.77M165.433 1281.43H206.767M165.433 1281.43V1322.77M206.767 1281.43H248.1M206.767 1281.43V1322.77M248.1 1281.43H289.433M248.1 1281.43V1322.77M289.433 1281.43H330.767M289.433 1281.43V1322.77M330.767 1281.43H372.1M330.767 1281.43V1322.77M372.1 1281.43H413.433M372.1 1281.43V1322.77M413.433 1281.43H454.767M413.433 1281.43V1322.77M454.767 1281.43H496.1M454.767 1281.43V1322.77M496.1 1281.43H537.433M496.1 1281.43V1322.77M537.433 1281.43H578.767M537.433 1281.43V1322.77M578.767 1281.43H620.1M578.767 1281.43V1322.77M620.1 1281.43H661.433M620.1 1281.43V1322.77M661.433 1281.43H702.767M661.433 1281.43V1322.77M702.767 1281.43H744.1M702.767 1281.43V1322.77M744.1 1281.43H785.433M744.1 1281.43V1322.77M785.433 1281.43H826.767M785.433 1281.43V1322.77M826.767 1281.43H868.1M826.767 1281.43V1322.77M868.1 1281.43H909.433M868.1 1281.43V1322.77M909.433 1281.43H950.767M909.433 1281.43V1322.77M950.767 1281.43H992.1M950.767 1281.43V1322.77M992.1 1281.43H1033.43M992.1 1281.43V1322.77M1033.43 1281.43H1074.77M1033.43 1281.43V1322.77M1074.77 1281.43H1116.1M1074.77 1281.43V1322.77M1116.1 1281.43H1157.43M1116.1 1281.43V1322.77M1157.43 1281.43H1198.77M1157.43 1281.43V1322.77M1198.77 1281.43H1240.1M1198.77 1281.43V1322.77M1240.1 1281.43H1281.43M1240.1 1281.43V1322.77M1281.43 1281.43H1322.77M1281.43 1281.43V1322.77M1322.77 1281.43H1364.1M1322.77 1281.43V1322.77M1364.1 1281.43H1405.43M1364.1 1281.43V1322.77M1405.43 1281.43H1446.77M1405.43 1281.43V1322.77M1446.77 1281.43H1488.1M1446.77 1281.43V1322.77M1488.1 1281.43V1322.77M41.4333 1322.77H0.1M41.4333 1322.77H82.7667M41.4333 1322.77V1364.1M0.1 1322.77V1364.1M82.7667 1322.77H124.1M82.7667 1322.77V1364.1M124.1 1322.77H165.433M124.1 1322.77V1364.1M165.433 1322.77H206.767M165.433 1322.77V1364.1M206.767 1322.77H248.1M206.767 1322.77V1364.1M248.1 1322.77H289.433M248.1 1322.77V1364.1M289.433 1322.77H330.767M289.433 1322.77V1364.1M330.767 1322.77H372.1M330.767 1322.77V1364.1M372.1 1322.77H413.433M372.1 1322.77V1364.1M413.433 1322.77H454.767M413.433 1322.77V1364.1M454.767 1322.77H496.1M454.767 1322.77V1364.1M496.1 1322.77H537.433M496.1 1322.77V1364.1M537.433 1322.77H578.767M537.433 1322.77V1364.1M578.767 1322.77H620.1M578.767 1322.77V1364.1M620.1 1322.77H661.433M620.1 1322.77V1364.1M661.433 1322.77H702.767M661.433 1322.77V1364.1M702.767 1322.77H744.1M702.767 1322.77V1364.1M744.1 1322.77H785.433M744.1 1322.77V1364.1M785.433 1322.77H826.767M785.433 1322.77V1364.1M826.767 1322.77H868.1M826.767 1322.77V1364.1M868.1 1322.77H909.433M868.1 1322.77V1364.1M909.433 1322.77H950.767M909.433 1322.77V1364.1M950.767 1322.77H992.1M950.767 1322.77V1364.1M992.1 1322.77H1033.43M992.1 1322.77V1364.1M1033.43 1322.77H1074.77M1033.43 1322.77V1364.1M1074.77 1322.77H1116.1M1074.77 1322.77V1364.1M1116.1 1322.77H1157.43M1116.1 1322.77V1364.1M1157.43 1322.77H1198.77M1157.43 1322.77V1364.1M1198.77 1322.77H1240.1M1198.77 1322.77V1364.1M1240.1 1322.77H1281.43M1240.1 1322.77V1364.1M1281.43 1322.77H1322.77M1281.43 1322.77V1364.1M1322.77 1322.77H1364.1M1322.77 1322.77V1364.1M1364.1 1322.77H1405.43M1364.1 1322.77V1364.1M1405.43 1322.77H1446.77M1405.43 1322.77V1364.1M1446.77 1322.77H1488.1M1446.77 1322.77V1364.1M1488.1 1322.77V1364.1M41.4333 1364.1H0.1M41.4333 1364.1H82.7667M41.4333 1364.1V1405.43M0.1 1364.1V1405.43M82.7667 1364.1H124.1M82.7667 1364.1V1405.43M124.1 1364.1H165.433M124.1 1364.1V1405.43M165.433 1364.1H206.767M165.433 1364.1V1405.43M206.767 1364.1H248.1M206.767 1364.1V1405.43M248.1 1364.1H289.433M248.1 1364.1V1405.43M289.433 1364.1H330.767M289.433 1364.1V1405.43M330.767 1364.1H372.1M330.767 1364.1V1405.43M372.1 1364.1H413.433M372.1 1364.1V1405.43M413.433 1364.1H454.767M413.433 1364.1V1405.43M454.767 1364.1H496.1M454.767 1364.1V1405.43M496.1 1364.1H537.433M496.1 1364.1V1405.43M537.433 1364.1H578.767M537.433 1364.1V1405.43M578.767 1364.1H620.1M578.767 1364.1V1405.43M620.1 1364.1H661.433M620.1 1364.1V1405.43M661.433 1364.1H702.767M661.433 1364.1V1405.43M702.767 1364.1H744.1M702.767 1364.1V1405.43M744.1 1364.1H785.433M744.1 1364.1V1405.43M785.433 1364.1H826.767M785.433 1364.1V1405.43M826.767 1364.1H868.1M826.767 1364.1V1405.43M868.1 1364.1H909.433M868.1 1364.1V1405.43M909.433 1364.1H950.767M909.433 1364.1V1405.43M950.767 1364.1H992.1M950.767 1364.1V1405.43M992.1 1364.1H1033.43M992.1 1364.1V1405.43M1033.43 1364.1H1074.77M1033.43 1364.1V1405.43M1074.77 1364.1H1116.1M1074.77 1364.1V1405.43M1116.1 1364.1H1157.43M1116.1 1364.1V1405.43M1157.43 1364.1H1198.77M1157.43 1364.1V1405.43M1198.77 1364.1H1240.1M1198.77 1364.1V1405.43M1240.1 1364.1H1281.43M1240.1 1364.1V1405.43M1281.43 1364.1H1322.77M1281.43 1364.1V1405.43M1322.77 1364.1H1364.1M1322.77 1364.1V1405.43M1364.1 1364.1H1405.43M1364.1 1364.1V1405.43M1405.43 1364.1H1446.77M1405.43 1364.1V1405.43M1446.77 1364.1H1488.1M1446.77 1364.1V1405.43M1488.1 1364.1V1405.43M41.4333 1405.43H0.1M41.4333 1405.43H82.7667M41.4333 1405.43V1446.77M0.1 1405.43V1446.77M82.7667 1405.43H124.1M82.7667 1405.43V1446.77M124.1 1405.43H165.433M124.1 1405.43V1446.77M165.433 1405.43H206.767M165.433 1405.43V1446.77M206.767 1405.43H248.1M206.767 1405.43V1446.77M248.1 1405.43H289.433M248.1 1405.43V1446.77M289.433 1405.43H330.767M289.433 1405.43V1446.77M330.767 1405.43H372.1M330.767 1405.43V1446.77M372.1 1405.43H413.433M372.1 1405.43V1446.77M413.433 1405.43H454.767M413.433 1405.43V1446.77M454.767 1405.43H496.1M454.767 1405.43V1446.77M496.1 1405.43H537.433M496.1 1405.43V1446.77M537.433 1405.43H578.767M537.433 1405.43V1446.77M578.767 1405.43H620.1M578.767 1405.43V1446.77M620.1 1405.43H661.433M620.1 1405.43V1446.77M661.433 1405.43H702.767M661.433 1405.43V1446.77M702.767 1405.43H744.1M702.767 1405.43V1446.77M744.1 1405.43H785.433M744.1 1405.43V1446.77M785.433 1405.43H826.767M785.433 1405.43V1446.77M826.767 1405.43H868.1M826.767 1405.43V1446.77M868.1 1405.43H909.433M868.1 1405.43V1446.77M909.433 1405.43H950.767M909.433 1405.43V1446.77M950.767 1405.43H992.1M950.767 1405.43V1446.77M992.1 1405.43H1033.43M992.1 1405.43V1446.77M1033.43 1405.43H1074.77M1033.43 1405.43V1446.77M1074.77 1405.43H1116.1M1074.77 1405.43V1446.77M1116.1 1405.43H1157.43M1116.1 1405.43V1446.77M1157.43 1405.43H1198.77M1157.43 1405.43V1446.77M1198.77 1405.43H1240.1M1198.77 1405.43V1446.77M1240.1 1405.43H1281.43M1240.1 1405.43V1446.77M1281.43 1405.43H1322.77M1281.43 1405.43V1446.77M1322.77 1405.43H1364.1M1322.77 1405.43V1446.77M1364.1 1405.43H1405.43M1364.1 1405.43V1446.77M1405.43 1405.43H1446.77M1405.43 1405.43V1446.77M1446.77 1405.43H1488.1M1446.77 1405.43V1446.77M1488.1 1405.43V1446.77M41.4333 1446.77H0.1M41.4333 1446.77H82.7667M41.4333 1446.77V1488.1M0.1 1446.77V1488.1H41.4333M82.7667 1446.77H124.1M82.7667 1446.77V1488.1M124.1 1446.77H165.433M124.1 1446.77V1488.1M165.433 1446.77H206.767M165.433 1446.77V1488.1M206.767 1446.77H248.1M206.767 1446.77V1488.1M248.1 1446.77H289.433M248.1 1446.77V1488.1M289.433 1446.77H330.767M289.433 1446.77V1488.1M330.767 1446.77H372.1M330.767 1446.77V1488.1M372.1 1446.77H413.433M372.1 1446.77V1488.1M413.433 1446.77H454.767M413.433 1446.77V1488.1M454.767 1446.77H496.1M454.767 1446.77V1488.1M496.1 1446.77H537.433M496.1 1446.77V1488.1M537.433 1446.77H578.767M537.433 1446.77V1488.1M578.767 1446.77H620.1M578.767 1446.77V1488.1M620.1 1446.77H661.433M620.1 1446.77V1488.1M661.433 1446.77H702.767M661.433 1446.77V1488.1M702.767 1446.77H744.1M702.767 1446.77V1488.1M744.1 1446.77H785.433M744.1 1446.77V1488.1M785.433 1446.77H826.767M785.433 1446.77V1488.1M826.767 1446.77H868.1M826.767 1446.77V1488.1M868.1 1446.77H909.433M868.1 1446.77V1488.1M909.433 1446.77H950.767M909.433 1446.77V1488.1M950.767 1446.77H992.1M950.767 1446.77V1488.1M992.1 1446.77H1033.43M992.1 1446.77V1488.1M1033.43 1446.77H1074.77M1033.43 1446.77V1488.1M1074.77 1446.77H1116.1M1074.77 1446.77V1488.1M1116.1 1446.77H1157.43M1116.1 1446.77V1488.1M1157.43 1446.77H1198.77M1157.43 1446.77V1488.1M1198.77 1446.77H1240.1M1198.77 1446.77V1488.1M1240.1 1446.77H1281.43M1240.1 1446.77V1488.1M1281.43 1446.77H1322.77M1281.43 1446.77V1488.1M1322.77 1446.77H1364.1M1322.77 1446.77V1488.1M1364.1 1446.77H1405.43M1364.1 1446.77V1488.1M1405.43 1446.77H1446.77M1405.43 1446.77V1488.1M1446.77 1446.77H1488.1M1446.77 1446.77V1488.1M1488.1 1446.77V1488.1H1446.77M41.4333 1488.1H82.7667M82.7667 1488.1H124.1M124.1 1488.1H165.433M165.433 1488.1H206.767M206.767 1488.1H248.1M248.1 1488.1H289.433M289.433 1488.1H330.767M330.767 1488.1H372.1M372.1 1488.1H413.433M413.433 1488.1H454.767M454.767 1488.1H496.1M496.1 1488.1H537.433M537.433 1488.1H578.767M578.767 1488.1H620.1M620.1 1488.1H661.433M661.433 1488.1H702.767M702.767 1488.1H744.1M744.1 1488.1H785.433M785.433 1488.1H826.767M826.767 1488.1H868.1M868.1 1488.1H909.433M909.433 1488.1H950.767M950.767 1488.1H992.1M992.1 1488.1H1033.43M1033.43 1488.1H1074.77M1074.77 1488.1H1116.1M1116.1 1488.1H1157.43M1157.43 1488.1H1198.77M1198.77 1488.1H1240.1M1240.1 1488.1H1281.43M1281.43 1488.1H1322.77M1322.77 1488.1H1364.1M1364.1 1488.1H1405.43M1405.43 1488.1H1446.77" stroke="url(#paint0_radial_0_541)" stroke-width="0.2"/>
<defs>
<radialGradient id="paint0_radial_0_541" cx="0" cy="0" r="1" gradientUnits="userSpaceOnUse" gradientTransform="translate(744.1 744.1) rotate(90) scale(162 590.968)">
<stop stop-color="#E1B6B6"/>
<stop offset="1" stop-color="#E1B6B6" stop-opacity="0"/>
</radialGradient>
</defs>
</svg>
