<svg preserveAspectRatio="none" width="100%" height="100%" overflow="visible" style="display: block;" viewBox="0 0 16 16" fill="none" xmlns="http://www.w3.org/2000/svg">
<g id="icon">
<path id="Vector" d="M9.01688 2.87062C9.03385 2.80717 9.06316 2.74768 9.10313 2.69556C9.1431 2.64343 9.19295 2.5997 9.24983 2.56684C9.30671 2.53399 9.36951 2.51267 9.43463 2.5041C9.49976 2.49552 9.56593 2.49987 9.62938 2.51687C10.5563 2.75872 11.402 3.24328 12.0794 3.92065C12.7567 4.59802 13.2413 5.44371 13.4831 6.37063C13.5001 6.43407 13.5045 6.50025 13.4959 6.56537C13.4873 6.63049 13.466 6.69329 13.4332 6.75017C13.4003 6.80705 13.3566 6.8569 13.3044 6.89687C13.2523 6.93684 13.1928 6.96615 13.1294 6.98313C13.0871 6.99422 13.0437 6.99989 13 7C12.8898 7 12.7827 6.9636 12.6954 6.89646C12.608 6.82933 12.5452 6.73522 12.5169 6.62875C12.3196 5.87208 11.9242 5.18169 11.3712 4.62876C10.8183 4.07584 10.1279 3.68037 9.37125 3.48312C9.30774 3.46622 9.24818 3.43696 9.19599 3.39702C9.1438 3.35707 9.09999 3.30723 9.06708 3.25034C9.03416 3.19346 9.01279 3.13064 9.00417 3.06548C8.99556 3.00033 8.99988 2.93411 9.01688 2.87062ZM8.87125 5.48313C9.73313 5.71313 10.2869 6.26687 10.5169 7.12875C10.5452 7.23522 10.608 7.32933 10.6954 7.39646C10.7827 7.4636 10.8898 7.5 11 7.5C11.0437 7.49989 11.0871 7.49422 11.1294 7.48313C11.1928 7.46615 11.2523 7.43684 11.3044 7.39687C11.3566 7.3569 11.4003 7.30705 11.4332 7.25017C11.466 7.19329 11.4873 7.13049 11.4959 7.06537C11.5045 7.00025 11.5001 6.93407 11.4831 6.87063C11.1631 5.67313 10.3269 4.83687 9.12938 4.51687C9.00124 4.48265 8.86476 4.50072 8.74995 4.56712C8.63515 4.63352 8.55142 4.7428 8.51719 4.87094C8.48296 4.99907 8.50103 5.13555 8.56743 5.25036C8.63383 5.36517 8.74312 5.4489 8.87125 5.48313ZM13.9925 11.4425C13.8811 12.2894 13.4651 13.0668 12.8224 13.6294C12.1797 14.1921 11.3542 14.5015 10.5 14.5C5.5375 14.5 1.5 10.4625 1.5 5.5C1.49847 4.64581 1.80793 3.82026 2.37058 3.17756C2.93324 2.53486 3.71061 2.11894 4.5575 2.0075C4.77166 1.98135 4.98853 2.02516 5.17574 2.1324C5.36295 2.23963 5.51046 2.40454 5.59625 2.6025L6.91625 5.54938V5.55688C6.98193 5.70841 7.00905 5.87385 6.9952 6.03842C6.98135 6.203 6.92696 6.36158 6.83688 6.5C6.82563 6.51688 6.81375 6.5325 6.80125 6.54812L5.5 8.09062C5.96813 9.04187 6.96313 10.0281 7.92688 10.4975L9.44813 9.20312C9.46306 9.19057 9.47872 9.17888 9.495 9.16813C9.63331 9.07588 9.79243 9.01957 9.95798 9.00429C10.1235 8.98901 10.2903 9.01525 10.4431 9.08062L10.4513 9.08438L13.3956 10.4037C13.5939 10.4892 13.7592 10.6366 13.8668 10.8239C13.9744 11.0111 14.0185 11.2281 13.9925 11.4425ZM13 11.3175C13 11.3175 12.9956 11.3175 12.9931 11.3175L10.0556 10.0019L8.53375 11.2962C8.51899 11.3088 8.50355 11.3204 8.4875 11.3312C8.3436 11.4273 8.17725 11.4843 8.00472 11.4968C7.83218 11.5093 7.65935 11.4768 7.50313 11.4025C6.3325 10.8369 5.16562 9.67875 4.59937 8.52063C4.52439 8.36553 4.49075 8.1937 4.5017 8.02179C4.51265 7.84987 4.56782 7.6837 4.66187 7.53937C4.67248 7.52243 4.68439 7.50634 4.6975 7.49125L6 5.94688L4.6875 3.00938C4.68725 3.00688 4.68725 3.00437 4.6875 3.00187C4.08141 3.08094 3.52492 3.37823 3.12226 3.83807C2.71959 4.29792 2.49836 4.88878 2.5 5.5C2.50232 7.62102 3.34591 9.65451 4.8457 11.1543C6.34549 12.6541 8.37898 13.4977 10.5 13.5C11.1108 13.5021 11.7015 13.2816 12.1617 12.8798C12.6218 12.4781 12.9198 11.9224 13 11.3169V11.3175Z" fill="var(--fill-0, #333333)"/>
</g>
</svg>
