<svg preserveAspectRatio="none" width="100%" height="100%" overflow="visible" style="display: block;" viewBox="0 0 24 24" fill="none" xmlns="http://www.w3.org/2000/svg">
<g id="icon">
<path id="Vector" d="M9.54844 17.9194C9.12563 18.8438 7.71469 21 3.75 21C3.55109 21 3.36032 20.921 3.21967 20.7803C3.07902 20.6397 3 20.4489 3 20.25C3 16.2853 5.15625 14.8744 6.08063 14.4516C6.17025 14.4107 6.26705 14.3879 6.3655 14.3844C6.46395 14.3809 6.56211 14.3969 6.65439 14.4314C6.74667 14.4658 6.83125 14.5182 6.90331 14.5853C6.97537 14.6525 7.0335 14.7332 7.07438 14.8228C7.11525 14.9124 7.13807 15.0092 7.14153 15.1077C7.145 15.2061 7.12904 15.3043 7.09456 15.3966C7.06009 15.4889 7.00778 15.5734 6.94061 15.6455C6.87345 15.7176 6.79275 15.7757 6.70313 15.8166C6.10031 16.0913 4.77 16.9753 4.53563 19.4644C7.02469 19.23 7.91063 17.8997 8.18344 17.2969C8.22431 17.2072 8.28244 17.1265 8.3545 17.0594C8.42656 16.9922 8.51115 16.9399 8.60342 16.9054C8.6957 16.871 8.79387 16.855 8.89231 16.8585C8.99076 16.8619 9.08756 16.8848 9.17719 16.9256C9.26681 16.9665 9.34751 17.0246 9.41468 17.0967C9.48184 17.1687 9.53415 17.2533 9.56862 17.3456C9.6031 17.4379 9.61906 17.5361 9.6156 17.6345C9.61213 17.7329 9.58931 17.8297 9.54844 17.9194ZM20.9859 4.41938C20.9637 4.05368 20.8084 3.70876 20.5494 3.4497C20.2903 3.19064 19.9454 3.03535 19.5797 3.01313C18.4003 2.94281 15.3862 3.05062 12.8859 5.55094L8.25 10.1906C8.18038 10.2604 8.0977 10.3157 8.00669 10.3535C7.91568 10.3913 7.81812 10.4108 7.71957 10.4109C7.52055 10.4111 7.32961 10.3322 7.18875 10.1916C7.0479 10.051 6.96867 9.86015 6.96849 9.66113C6.96831 9.46211 7.04721 9.27117 7.18781 9.13031L9.67781 6.63938C9.72994 6.58694 9.7654 6.52026 9.77974 6.44772C9.79408 6.37519 9.78666 6.30003 9.75841 6.2317C9.73015 6.16338 9.68233 6.10493 9.62095 6.0637C9.55957 6.02247 9.48738 6.00031 9.41344 6H6.97031C6.77272 5.99896 6.5769 6.03721 6.39423 6.11253C6.21155 6.18785 6.04568 6.29874 5.90625 6.43875L2.69063 9.65625C2.49342 9.85332 2.35504 10.1015 2.29101 10.3728C2.22699 10.6441 2.23985 10.928 2.32816 11.1924C2.41647 11.4568 2.57673 11.6914 2.79095 11.8699C3.00518 12.0483 3.26489 12.1635 3.54094 12.2025L7.1475 12.7059L11.2922 16.8506L11.7956 20.4591C11.8343 20.7351 11.9495 20.9949 12.1281 21.2089C12.3067 21.423 12.5416 21.5828 12.8063 21.6703C12.9604 21.7218 13.1219 21.7481 13.2844 21.7481C13.4812 21.7485 13.6761 21.7099 13.8579 21.6346C14.0397 21.5593 14.2048 21.4488 14.3438 21.3094L17.5613 18.0938C17.7008 17.954 17.8115 17.7881 17.8867 17.6055C17.962 17.4229 18.0005 17.2272 18 17.0297V14.5866C17.9999 14.5124 17.9778 14.44 17.9365 14.3784C17.8952 14.3168 17.8366 14.2689 17.7681 14.2406C17.6996 14.2123 17.6242 14.2049 17.5515 14.2195C17.4788 14.234 17.4121 14.2697 17.3597 14.3222L14.8688 16.8122C14.7959 16.8851 14.7088 16.9422 14.6129 16.98C14.517 17.0178 14.4143 17.0353 14.3113 17.0316C14.2082 17.028 14.1071 17.0031 14.0141 16.9585C13.9212 16.914 13.8384 16.8508 13.7709 16.7728C13.6479 16.624 13.5854 16.4343 13.5958 16.2415C13.6062 16.0487 13.6888 15.8669 13.8272 15.7322L18.4462 11.1131C20.9484 8.61188 21.0563 5.59781 20.9859 4.4175V4.41938Z" fill="var(--fill-0, #9E1515)"/>
</g>
</svg>
