<svg preserveAspectRatio="none" width="100%" height="100%" overflow="visible" style="display: block;" viewBox="0 0 211.622 37.9759" fill="none" xmlns="http://www.w3.org/2000/svg">
<g id="Group">
<path id="Vector" d="M1.96769 13.1833C2.65637 11.7076 3.64021 10.4286 4.91919 9.34639C6.19817 8.26418 7.7723 7.47711 9.64158 6.88681C11.5109 6.29651 13.5769 6.00135 15.8397 6.00135C18.2009 6.00135 20.267 6.29651 22.1362 6.88681C24.0055 7.47711 25.4813 8.36255 26.7603 9.44477C28.0392 10.527 29.0231 11.9044 29.6134 13.5769C30.302 15.151 30.5972 17.0203 30.5972 19.0863V36.9921H21.054V29.3182C20.8573 30.2036 20.5621 30.9907 20.1686 31.7778C19.7751 32.5648 19.3815 33.2535 18.8896 33.8438C18.3977 34.4341 17.8074 35.0244 17.1187 35.5163C16.43 36.0082 15.7413 36.4018 15.0527 36.7953C14.2656 37.0905 13.4785 37.3856 12.5931 37.5824C11.7076 37.7791 10.8222 37.8775 9.83835 37.8775C8.3626 37.8775 6.98523 37.6808 5.80463 37.2872C4.62403 36.8937 3.54182 36.3034 2.65637 35.5163C1.77092 34.7293 1.08224 33.8438 0.688706 32.7616C0.19679 31.6794 2.68064e-05 30.4988 2.68064e-05 29.1214C2.68064e-05 27.6457 0.29517 26.3667 0.88547 25.2845C1.47577 24.1039 2.26284 23.2184 3.44344 22.4314C4.52565 21.6443 5.90301 21.054 7.47714 20.6604C9.05127 20.2669 10.9206 20.0702 12.8882 20.0702H21.2508V25.1861H14.1672C13.3801 25.1861 12.7898 25.2845 12.1995 25.3829C11.6092 25.4812 11.1173 25.678 10.7238 25.9732C10.3303 26.2683 10.0351 26.5635 9.83835 26.957C9.64158 27.3505 9.5432 27.744 9.5432 28.236C9.5432 28.7279 9.64158 29.2198 9.83835 29.5149C10.0351 29.9085 10.3303 30.2036 10.7238 30.4988C11.1173 30.7939 11.6092 30.9907 12.1012 31.0891C12.6915 31.1875 13.2818 31.2859 13.9704 31.2859C14.6591 31.2859 15.2494 31.1875 15.8397 31.0891C16.43 30.9907 17.0203 30.7939 17.5122 30.5972C18.0042 30.4004 18.4961 30.1053 18.8896 29.8101C19.2831 29.515 19.6767 29.1214 19.9718 28.7279C20.267 28.3343 20.4637 27.9408 20.6605 27.4489C20.8573 26.957 20.9557 26.5634 20.9557 26.0715V19.2831C20.9557 18.3976 20.8573 17.5122 20.5621 16.8235C20.267 16.1348 19.9718 15.4461 19.4799 14.9542C18.988 14.4623 18.3977 14.0688 17.709 13.7736C17.0203 13.4785 16.2332 13.3801 15.3478 13.3801C14.4623 13.3801 13.6753 13.4785 12.9866 13.6753C12.2979 13.872 11.806 14.2656 11.4125 14.6591C11.0189 15.0526 10.7238 15.6429 10.4286 16.2332C10.2319 16.8235 10.1335 17.5122 10.1335 18.2993H0.688706C0.885473 16.3316 1.27901 14.6591 1.96769 13.1833Z" fill="var(--fill-0, white)"/>
<path id="Vector_2" d="M43.0919 37.0905H33.5487V6.88681H43.0919V16.3316C43.387 14.6591 43.7805 13.1833 44.3708 11.9043C44.9611 10.6254 45.6498 9.54316 46.5353 8.65771C47.4207 7.77226 48.4045 7.18196 49.5851 6.69005C50.7657 6.29652 52.0447 6.00135 53.4221 6.00135C54.9962 6.00135 56.3736 6.29651 57.5542 6.78842C58.7348 7.37872 59.7186 8.16579 60.5057 9.248C61.2927 10.3302 61.8831 11.7076 62.2766 13.3801C62.6701 15.0526 62.8669 16.9219 62.8669 19.0863V36.8937H53.3237V21.054C53.3237 19.8734 53.2253 18.8896 53.0286 18.0041C52.8318 17.1187 52.5366 16.43 52.1431 15.8397C51.7496 15.2494 51.2577 14.8559 50.569 14.5607C49.9787 14.2656 49.1916 14.1672 48.4045 14.1672C47.8142 14.1672 47.3223 14.2655 46.8304 14.3639C46.3385 14.4623 45.8466 14.7575 45.453 14.9542C45.0595 15.2494 44.666 15.5445 44.3708 15.9381C44.0757 16.3316 43.7805 16.8235 43.5838 17.3154C43.387 17.8073 43.1902 18.3977 43.0919 19.0863C42.9935 19.775 42.8951 20.4637 42.8951 21.2508V37.0905H43.0919Z" fill="var(--fill-0, white)"/>
<path id="Vector_3" d="M65.7201 17.4138C66.0152 16.0364 66.6055 14.6591 67.1958 13.4785C67.8845 12.2979 68.6715 11.2157 69.557 10.3302C70.4424 9.44477 71.5247 8.6577 72.7053 7.96902C73.8859 7.37872 75.1648 6.8868 76.4438 6.49327C77.8212 6.19812 79.1985 6.00135 80.7727 6.00135C82.3468 6.00135 83.7242 6.19812 85.1015 6.49327C86.4789 6.78842 87.7579 7.28034 88.8401 7.96902C90.0207 8.6577 91.0045 9.34639 91.9884 10.3302C92.9722 11.3141 93.6609 12.2979 94.3496 13.4785C95.0383 14.6591 95.5302 15.9381 95.8253 17.3154C96.2189 18.6928 96.3172 20.2669 96.3172 21.8411C96.3172 23.4152 96.1205 24.9893 95.8253 26.3667C95.4318 27.7441 94.9399 29.1214 94.3496 30.302C93.6609 31.4826 92.8738 32.5648 91.9884 33.4503C91.1029 34.3357 90.0207 35.1228 88.8401 35.8115C87.6595 36.5002 86.4789 36.9921 85.1015 37.2872C83.7242 37.5824 82.3468 37.7791 80.7727 37.7791C79.2969 37.7791 77.8212 37.5824 76.4438 37.2872C75.0665 36.9921 73.7875 36.5002 72.7053 35.8115C71.5247 35.1228 70.5408 34.4341 69.557 33.4503C68.6715 32.5648 67.8845 31.4826 67.1958 30.302C66.5071 29.1214 66.0152 27.8424 65.7201 26.3667C65.3265 24.9893 65.2281 23.4152 65.2281 21.8411C65.2281 20.3653 65.4249 18.8896 65.7201 17.4138ZM75.2632 25.2845C75.5584 26.2683 75.9519 27.0554 76.4438 27.744C76.9357 28.4327 77.6244 28.9246 78.3131 29.2198C79.0018 29.5149 79.8872 29.7117 80.8711 29.7117C81.8549 29.7117 82.642 29.5149 83.429 29.2198C84.2161 28.9246 84.8064 28.4327 85.2983 27.744C85.7902 27.0554 86.1838 26.2683 86.4789 25.2845C86.7741 24.3006 86.8724 23.2184 86.8724 21.9394C86.8724 20.6605 86.7741 19.5783 86.4789 18.5944C86.1838 17.6106 85.7902 16.8235 85.2983 16.1348C84.8064 15.4462 84.2161 14.9542 83.429 14.6591C82.642 14.3639 81.8549 14.1672 80.8711 14.1672C79.8872 14.1672 79.1002 14.3639 78.3131 14.6591C77.526 14.9542 76.9357 15.4462 76.4438 16.1348C75.9519 16.8235 75.5584 17.6106 75.2632 18.5944C74.9681 19.5783 74.8697 20.6605 74.8697 21.9394C74.8697 23.2184 74.9681 24.3006 75.2632 25.2845Z" fill="var(--fill-0, white)"/>
<path id="Vector_4" d="M127.8 6.88683L117.961 37.0905H105.27L95.5301 6.88683H105.565L112.452 33.7454H110.878L117.863 6.88683H127.8Z" fill="var(--fill-0, white)"/>
<path id="Vector_5" d="M128.685 13.1833C129.374 11.7076 130.358 10.4286 131.637 9.34639C132.916 8.26418 134.49 7.47711 136.359 6.88681C138.228 6.29651 140.295 6.00135 142.557 6.00135C144.919 6.00135 146.985 6.29651 148.854 6.88681C150.723 7.47711 152.199 8.36255 153.478 9.44477C154.757 10.527 155.741 11.9044 156.331 13.5769C157.02 15.151 157.315 17.0203 157.315 19.0863V36.9921H147.772V29.3182C147.575 30.2036 147.28 30.9907 146.886 31.7778C146.493 32.5648 146.099 33.2535 145.607 33.8438C145.115 34.4341 144.525 35.0244 143.836 35.5163C143.148 36.0082 142.459 36.4018 141.77 36.7953C140.983 37.0905 140.196 37.3856 139.311 37.5824C138.425 37.7791 137.54 37.8775 136.556 37.8775C135.08 37.8775 133.703 37.6808 132.522 37.2872C131.342 36.8937 130.259 36.3034 129.374 35.5163C128.489 34.7293 127.8 33.8438 127.406 32.7616C126.914 31.6794 126.718 30.4988 126.718 29.1214C126.718 27.6457 127.013 26.3667 127.603 25.2845C128.193 24.2023 128.98 23.2184 130.161 22.4314C131.243 21.6443 132.621 21.054 134.195 20.6604C135.769 20.2669 137.638 20.0702 139.606 20.0702H147.968V25.1861H140.885C140.098 25.1861 139.507 25.2845 138.917 25.3829C138.327 25.4812 137.835 25.678 137.441 25.9732C137.048 26.2683 136.753 26.5635 136.556 26.957C136.359 27.3505 136.261 27.744 136.261 28.236C136.261 28.7279 136.359 29.2198 136.556 29.5149C136.753 29.9085 137.048 30.2036 137.441 30.4988C137.835 30.7939 138.327 30.9907 138.819 31.0891C139.409 31.1875 139.999 31.2859 140.688 31.2859C141.377 31.2859 141.967 31.1875 142.557 31.0891C143.148 30.9907 143.738 30.7939 144.23 30.5972C144.722 30.4004 145.214 30.1053 145.607 29.8101C146.001 29.515 146.394 29.1214 146.689 28.7279C146.985 28.3343 147.181 27.9408 147.378 27.4489C147.575 26.957 147.673 26.5634 147.673 26.0715V19.2831C147.673 18.3976 147.575 17.5122 147.28 16.8235C146.985 16.1348 146.689 15.4461 146.198 14.9542C145.706 14.4623 145.115 14.0688 144.427 13.7736C143.738 13.4785 142.951 13.3801 142.065 13.3801C141.18 13.3801 140.393 13.4785 139.704 13.6753C139.016 13.872 138.524 14.2656 138.13 14.6591C137.737 15.0526 137.441 15.6429 137.146 16.2332C136.95 16.8235 136.851 17.5122 136.851 18.2993H127.603C127.603 16.3316 127.997 14.6591 128.685 13.1833Z" fill="var(--fill-0, white)"/>
<path id="Vector_6" d="M158.987 14.3639V6.88683H180.14V14.3639H158.987ZM176.401 37.5824C175.221 37.7792 174.138 37.8775 173.154 37.8775C171.384 37.8775 169.908 37.5824 168.629 37.0905C167.35 36.5986 166.169 35.8115 165.382 34.8277C164.497 33.8438 163.808 32.5648 163.415 31.0891C163.021 29.6133 162.726 27.8425 162.726 25.8748V2.06767e-06H172.269V25.8748C172.269 26.6619 172.367 27.3505 172.466 27.9408C172.564 28.5311 172.859 29.0231 173.154 29.3182C173.45 29.7117 173.843 30.0069 174.335 30.1053C174.827 30.302 175.319 30.4004 176.008 30.4004C176.5 30.4004 177.09 30.302 177.877 30.2036C178.566 30.1053 179.451 29.9085 180.336 29.7117V36.7953C178.762 37.1889 177.483 37.484 176.401 37.5824Z" fill="var(--fill-0, white)"/>
<path id="Vector_7" d="M190.568 26.0715C190.863 27.0553 191.355 27.8424 191.946 28.5311C192.536 29.2198 193.225 29.7117 194.11 30.1052C194.996 30.4987 195.881 30.5971 196.963 30.5971C197.652 30.5971 198.341 30.4988 198.931 30.4004C199.521 30.2036 200.013 30.0068 200.505 29.7117C200.997 29.4165 201.39 29.023 201.784 28.5311C202.178 28.0392 202.473 27.5473 202.768 26.8586H211.524C211.13 28.6295 210.442 30.1052 209.556 31.4826C208.671 32.8599 207.589 34.0405 206.31 35.0244C205.031 36.0082 203.555 36.6969 201.981 37.1888C200.407 37.6807 198.636 37.9759 196.766 37.9759C194.504 37.9759 192.339 37.5824 190.47 36.7953C188.601 36.0082 186.928 34.926 185.551 33.5486C184.173 32.1713 183.19 30.4987 182.403 28.5311C181.615 26.5634 181.32 24.399 181.32 22.0378C181.32 19.6766 181.714 17.5122 182.403 15.5445C183.19 13.5768 184.173 11.9043 185.551 10.527C186.928 9.14959 188.502 8.06737 190.372 7.28031C192.241 6.49324 194.307 6.09971 196.57 6.09971C198.833 6.09971 200.899 6.49324 202.768 7.28031C204.637 8.06737 206.211 9.14959 207.49 10.527C208.769 11.9043 209.851 13.5768 210.54 15.5445C211.229 17.5122 211.622 19.6766 211.622 22.0378C211.622 22.4313 211.622 22.8248 211.622 23.12C211.622 23.5135 211.524 23.9071 211.524 24.3006H186.731V19.0863H206.408L202.866 24.2022C202.866 23.8087 202.866 23.4151 202.965 23.12C202.965 22.7265 202.965 22.4313 202.965 22.1362C202.965 20.6604 202.866 19.3814 202.571 18.2992C202.276 17.217 201.882 16.3316 201.39 15.5445C200.899 14.8558 200.21 14.2655 199.423 13.872C198.636 13.4784 197.75 13.3801 196.668 13.3801C195.684 13.3801 194.7 13.5768 193.913 13.872C193.126 14.2655 192.438 14.7574 191.946 15.4461C191.454 16.1348 190.962 16.9219 190.667 17.9057C190.372 18.8895 190.273 20.0701 190.273 21.2507V22.8249C190.076 24.0055 190.273 25.0877 190.568 26.0715Z" fill="var(--fill-0, white)"/>
</g>
</svg>
