<svg preserveAspectRatio="none" width="100%" height="100%" overflow="visible" style="display: block;" viewBox="0 0 16 16" fill="none" xmlns="http://www.w3.org/2000/svg">
<g id="icon">
<path id="Vector" d="M15.3538 5.35375L13.3538 7.35375C13.2599 7.44757 13.1327 7.50028 13 7.50028C12.8673 7.50028 12.7401 7.44757 12.6463 7.35375C12.5524 7.25993 12.4997 7.13268 12.4997 7C12.4997 6.86732 12.5524 6.74007 12.6463 6.64625L13.7931 5.5H13C10.5831 5.5 10.0881 6.6875 9.46125 8.1925C8.81563 9.7425 8.08313 11.5 5 11.5H4.9375C4.8158 11.9713 4.52639 12.3821 4.1235 12.6553C3.72061 12.9285 3.23191 13.0454 2.749 12.9841C2.26609 12.9227 1.82213 12.6874 1.50034 12.3221C1.17854 11.9569 1.00101 11.4868 1.00101 11C1.00101 10.5132 1.17854 10.0431 1.50034 9.67788C1.82213 9.31263 2.26609 9.07728 2.749 9.01594C3.23191 8.9546 3.72061 9.07149 4.1235 9.3447C4.52639 9.61791 4.8158 10.0287 4.9375 10.5H5C7.41687 10.5 7.91187 9.3125 8.53875 7.8075C9.1875 6.2575 9.91688 4.5 13 4.5H13.7931L12.6463 3.35375C12.5524 3.25993 12.4997 3.13268 12.4997 3C12.4997 2.86732 12.5524 2.74007 12.6463 2.64625C12.7401 2.55243 12.8673 2.49972 13 2.49972C13.1327 2.49972 13.2599 2.55243 13.3538 2.64625L15.3538 4.64625C15.4002 4.69269 15.4371 4.74783 15.4623 4.80853C15.4874 4.86923 15.5004 4.93429 15.5004 5C15.5004 5.06571 15.4874 5.13077 15.4623 5.19147C15.4371 5.25217 15.4002 5.30731 15.3538 5.35375Z" fill="var(--fill-0, #080C14)"/>
</g>
</svg>
