<svg preserveAspectRatio="xMidYMid meet" width="100%" height="100%" overflow="visible" style="display: block;" viewBox="0 0 19.9984 13.7494" fill="none" xmlns="http://www.w3.org/2000/svg">
<path id="Vector" d="M19.8665 4.67987L17.8728 0.69081C17.7993 0.543987 17.6977 0.41307 17.5736 0.305535C17.4496 0.198001 17.3056 0.115955 17.1498 0.0640836C16.9941 0.0122122 16.8296 -0.00846893 16.6659 0.00322132C16.5021 0.0149116 16.3423 0.0587444 16.1954 0.132216L14.2525 1.10331L10.1595 0.0204974C10.0545 -0.00683248 9.94422 -0.00683248 9.8392 0.0204974L5.74623 1.10331L3.80326 0.132216C3.65645 0.0587444 3.4966 0.0149116 3.33285 0.00322132C3.1691 -0.00846893 3.00465 0.0122122 2.84889 0.0640836C2.69313 0.115955 2.54911 0.198001 2.42506 0.305535C2.30102 0.41307 2.19937 0.543987 2.12592 0.69081L0.132168 4.67909C0.0586961 4.8259 0.0148635 4.98575 0.00317326 5.1495C-0.00851699 5.31325 0.0121641 5.47771 0.0640355 5.63346C0.115907 5.78922 0.197953 5.93324 0.305487 6.05729C0.413022 6.18134 0.543939 6.28299 0.690762 6.35643L2.80014 7.4119L7.13529 10.508C7.19917 10.5534 7.27098 10.5866 7.34701 10.6057L12.347 11.8557C12.4517 11.8819 12.5614 11.8806 12.6655 11.8519C12.7696 11.8231 12.8644 11.7679 12.9408 11.6916L16.0658 8.56659L17.2439 7.38847L19.3079 6.35643C19.6043 6.2081 19.8296 5.94817 19.9343 5.63379C20.0391 5.3194 20.0147 4.97629 19.8665 4.67987ZM15.5783 7.2869L12.89 5.13378C12.7695 5.03733 12.6177 4.98884 12.4637 4.99764C12.3096 5.00644 12.1643 5.0719 12.0556 5.18143C10.6642 6.583 9.11342 6.40565 8.12436 5.78065L11.5025 2.4994H13.9876L16.1134 6.75018L15.5783 7.2869ZM12.3072 10.5572L7.76654 9.42206L3.92279 6.67675L6.11029 2.30175L9.99936 1.27128L10.765 1.47362L7.24936 4.88612L7.24311 4.89315C7.11077 5.02549 7.00983 5.18586 6.94775 5.36242C6.88568 5.53898 6.86403 5.72722 6.88443 5.91327C6.90483 6.09931 6.96674 6.27839 7.0656 6.43731C7.16446 6.59622 7.29774 6.73091 7.45561 6.83143C9.06186 7.85722 11.0001 7.69081 12.5267 6.44081L14.6869 8.17597L12.3072 10.5572ZM10.2978 13.276C10.264 13.411 10.1861 13.531 10.0764 13.6168C9.96675 13.7025 9.83156 13.7492 9.69232 13.7494C9.64097 13.7493 9.58982 13.743 9.53998 13.7307L6.28139 12.9158C6.20524 12.897 6.13339 12.8639 6.06967 12.8182L4.01107 11.3478C3.8845 11.2485 3.80113 11.1041 3.77834 10.9448C3.75555 10.7855 3.79509 10.6235 3.88872 10.4926C3.98236 10.3617 4.12287 10.272 4.281 10.2421C4.43914 10.2122 4.6027 10.2445 4.73764 10.3322L6.69936 11.7338L9.84311 12.5182C10.0039 12.5584 10.1421 12.6608 10.2274 12.8029C10.3126 12.945 10.338 13.1152 10.2978 13.276Z" fill="var(--fill-0, #9E1515)"/>
</svg>
