<svg preserveAspectRatio="xMidYMid meet" width="100%" height="100%" overflow="visible" style="display: block;" viewBox="0 0 17.5 12.5" fill="none" xmlns="http://www.w3.org/2000/svg">
<path id="Vector" d="M16.25 0H3.75C3.41848 0 3.10054 0.131696 2.86612 0.366116C2.6317 0.600537 2.5 0.918479 2.5 1.25V10.625C2.5 10.7908 2.43415 10.9497 2.31694 11.0669C2.19973 11.1842 2.04076 11.25 1.875 11.25C1.70924 11.25 1.55027 11.1842 1.43306 11.0669C1.31585 10.9497 1.25 10.7908 1.25 10.625V3.125C1.25 2.95924 1.18415 2.80027 1.06694 2.68306C0.949732 2.56585 0.79076 2.5 0.625 2.5C0.45924 2.5 0.300268 2.56585 0.183058 2.68306C0.065848 2.80027 0 2.95924 0 3.125V10.6336C0.0022724 11.1294 0.200819 11.6041 0.552204 11.9539C0.903589 12.3036 1.3792 12.5 1.875 12.5H15.625C16.1223 12.5 16.5992 12.3025 16.9508 11.9508C17.3025 11.5992 17.5 11.1223 17.5 10.625V1.25C17.5 0.918479 17.3683 0.600537 17.1339 0.366116C16.8995 0.131696 16.5815 0 16.25 0ZM13.125 8.125H6.875C6.70924 8.125 6.55027 8.05915 6.43306 7.94194C6.31585 7.82473 6.25 7.66576 6.25 7.5C6.25 7.33424 6.31585 7.17527 6.43306 7.05806C6.55027 6.94085 6.70924 6.875 6.875 6.875H13.125C13.2908 6.875 13.4497 6.94085 13.5669 7.05806C13.6842 7.17527 13.75 7.33424 13.75 7.5C13.75 7.66576 13.6842 7.82473 13.5669 7.94194C13.4497 8.05915 13.2908 8.125 13.125 8.125ZM13.125 5.625H6.875C6.70924 5.625 6.55027 5.55915 6.43306 5.44194C6.31585 5.32473 6.25 5.16576 6.25 5C6.25 4.83424 6.31585 4.67527 6.43306 4.55806C6.55027 4.44085 6.70924 4.375 6.875 4.375H13.125C13.2908 4.375 13.4497 4.44085 13.5669 4.55806C13.6842 4.67527 13.75 4.83424 13.75 5C13.75 5.16576 13.6842 5.32473 13.5669 5.44194C13.4497 5.55915 13.2908 5.625 13.125 5.625Z" fill="var(--fill-0, #9E1515)"/>
</svg>
