<svg preserveAspectRatio="none" width="100%" height="100%" overflow="visible" style="display: block;" viewBox="0 0 24 24" fill="none" xmlns="http://www.w3.org/2000/svg">
<g id="icon">
<path id="Vector" d="M20.1675 11.5912C20.2158 11.5033 20.246 11.4065 20.2562 11.3067C20.2664 11.2068 20.2565 11.106 20.227 11.01C20.1976 10.9141 20.1492 10.8251 20.0846 10.7482C20.0201 10.6713 19.9409 10.6081 19.8515 10.5625C19.7621 10.5168 19.6645 10.4895 19.5644 10.4822C19.4643 10.4749 19.3638 10.4878 19.2688 10.5201C19.1738 10.5524 19.0862 10.6035 19.0112 10.6702C18.9363 10.737 18.8755 10.8181 18.8325 10.9088C18.1392 12.2445 17.0581 13.3392 15.7312 14.0494L14.0212 10.2009C14.5364 9.81486 14.9303 9.28951 15.1567 8.68686C15.383 8.08421 15.4323 7.4294 15.2986 6.79967C15.165 6.16995 14.854 5.59158 14.4025 5.13278C13.9509 4.67399 13.3775 4.35391 12.75 4.21031V2.25C12.75 2.05109 12.671 1.86032 12.5303 1.71967C12.3897 1.57902 12.1989 1.5 12 1.5C11.8011 1.5 11.6103 1.57902 11.4697 1.71967C11.329 1.86032 11.25 2.05109 11.25 2.25V4.21031C10.6225 4.35391 10.0491 4.67399 9.59753 5.13278C9.14595 5.59158 8.83501 6.16995 8.70138 6.79967C8.56775 7.4294 8.617 8.08421 8.84333 8.68686C9.06966 9.28951 9.46362 9.81486 9.97875 10.2009L5.31469 20.6953C5.27413 20.7854 5.25177 20.8826 5.24889 20.9813C5.24601 21.0801 5.26267 21.1784 5.2979 21.2707C5.33314 21.363 5.38626 21.4474 5.45421 21.5191C5.52217 21.5908 5.60362 21.6484 5.69388 21.6885C5.78415 21.7287 5.88146 21.7506 5.98021 21.753C6.07897 21.7554 6.17723 21.7383 6.26936 21.7026C6.36148 21.667 6.44565 21.6134 6.51703 21.5451C6.58841 21.4769 6.6456 21.3951 6.68531 21.3047L9.04219 16.0022C9.99311 16.3333 10.9931 16.5016 12 16.5C13.0074 16.4988 14.008 16.3339 14.9625 16.0116L17.3147 21.3047C17.3961 21.4855 17.5458 21.6267 17.7311 21.6975C17.9163 21.7682 18.1221 21.7627 18.3033 21.6821C18.4845 21.6016 18.6264 21.4525 18.698 21.2676C18.7696 21.0826 18.765 20.8769 18.6853 20.6953L16.3416 15.4219C17.9805 14.5689 19.3165 13.2312 20.1675 11.5912ZM12 15C11.2037 15.001 10.4125 14.8744 9.65625 14.625L11.3512 10.8112C11.7808 10.8963 12.2229 10.8963 12.6525 10.8112L14.3531 14.6362C13.592 14.8772 12.7984 14.9999 12 15Z" fill="var(--fill-0, #9E1515)"/>
</g>
</svg>
