<svg preserveAspectRatio="none" width="100%" height="100%" overflow="visible" style="display: block;" viewBox="0 0 139.218 356.218" fill="none" xmlns="http://www.w3.org/2000/svg">
<g id="Line 1" filter="url(#filter0_dddddd_0_32)">
<path d="M17.9424 335.609C17.9424 337.082 19.1363 338.276 20.6091 338.276C22.0818 338.276 23.2757 337.082 23.2757 335.609C23.2757 334.136 22.0818 332.942 20.6091 332.942C19.1363 332.942 17.9424 334.136 17.9424 335.609ZM115.942 20.6091C115.942 22.0818 117.136 23.2757 118.609 23.2757C120.082 23.2757 121.276 22.0818 121.276 20.6091C121.276 19.1363 120.082 17.9424 118.609 17.9424C117.136 17.9424 115.942 19.1363 115.942 20.6091ZM20.6091 335.609V336.109H110.609V335.609V335.109H20.6091V335.609ZM118.609 327.609H119.109V20.6091H118.609H118.109V327.609H118.609ZM110.609 335.609V336.109C115.303 336.109 119.109 332.303 119.109 327.609H118.609H118.109C118.109 331.751 114.751 335.109 110.609 335.109V335.609Z" fill="url(#paint0_linear_0_32)"/>
</g>
<defs>
<filter id="filter0_dddddd_0_32" x="-7.15256e-07" y="-7.15256e-07" width="139.218" height="356.218" filterUnits="userSpaceOnUse" color-interpolation-filters="sRGB">
<feFlood flood-opacity="0" result="BackgroundImageFix"/>
<feColorMatrix in="SourceAlpha" type="matrix" values="0 0 0 0 0 0 0 0 0 0 0 0 0 0 0 0 0 0 127 0" result="hardAlpha"/>
<feOffset/>
<feGaussianBlur stdDeviation="0.2136"/>
<feColorMatrix type="matrix" values="0 0 0 0 1 0 0 0 0 1 0 0 0 0 1 0 0 0 1 0"/>
<feBlend mode="normal" in2="BackgroundImageFix" result="effect1_dropShadow_0_32"/>
<feColorMatrix in="SourceAlpha" type="matrix" values="0 0 0 0 0 0 0 0 0 0 0 0 0 0 0 0 0 0 127 0" result="hardAlpha"/>
<feOffset/>
<feGaussianBlur stdDeviation="0.4272"/>
<feColorMatrix type="matrix" values="0 0 0 0 1 0 0 0 0 1 0 0 0 0 1 0 0 0 1 0"/>
<feBlend mode="normal" in2="effect1_dropShadow_0_32" result="effect2_dropShadow_0_32"/>
<feColorMatrix in="SourceAlpha" type="matrix" values="0 0 0 0 0 0 0 0 0 0 0 0 0 0 0 0 0 0 127 0" result="hardAlpha"/>
<feOffset/>
<feGaussianBlur stdDeviation="1.4952"/>
<feColorMatrix type="matrix" values="0 0 0 0 1 0 0 0 0 1 0 0 0 0 1 0 0 0 1 0"/>
<feBlend mode="normal" in2="effect2_dropShadow_0_32" result="effect3_dropShadow_0_32"/>
<feColorMatrix in="SourceAlpha" type="matrix" values="0 0 0 0 0 0 0 0 0 0 0 0 0 0 0 0 0 0 127 0" result="hardAlpha"/>
<feOffset/>
<feGaussianBlur stdDeviation="2.9904"/>
<feColorMatrix type="matrix" values="0 0 0 0 1 0 0 0 0 1 0 0 0 0 1 0 0 0 1 0"/>
<feBlend mode="normal" in2="effect3_dropShadow_0_32" result="effect4_dropShadow_0_32"/>
<feColorMatrix in="SourceAlpha" type="matrix" values="0 0 0 0 0 0 0 0 0 0 0 0 0 0 0 0 0 0 127 0" result="hardAlpha"/>
<feOffset/>
<feGaussianBlur stdDeviation="5.1264"/>
<feColorMatrix type="matrix" values="0 0 0 0 1 0 0 0 0 1 0 0 0 0 1 0 0 0 1 0"/>
<feBlend mode="normal" in2="effect4_dropShadow_0_32" result="effect5_dropShadow_0_32"/>
<feColorMatrix in="SourceAlpha" type="matrix" values="0 0 0 0 0 0 0 0 0 0 0 0 0 0 0 0 0 0 127 0" result="hardAlpha"/>
<feOffset/>
<feGaussianBlur stdDeviation="8.9712"/>
<feColorMatrix type="matrix" values="0 0 0 0 1 0 0 0 0 1 0 0 0 0 1 0 0 0 1 0"/>
<feBlend mode="normal" in2="effect5_dropShadow_0_32" result="effect6_dropShadow_0_32"/>
<feBlend mode="normal" in="SourceGraphic" in2="effect6_dropShadow_0_32" result="shape"/>
</filter>
<linearGradient id="paint0_linear_0_32" x1="69.6091" y1="20.6091" x2="69.6091" y2="335.609" gradientUnits="userSpaceOnUse">
<stop stop-color="white"/>
<stop offset="1" stop-color="white"/>
</linearGradient>
</defs>
</svg>
