<svg preserveAspectRatio="none" width="100%" height="100%" overflow="visible" style="display: block;" viewBox="0 0 117.218 297.218" fill="none" xmlns="http://www.w3.org/2000/svg">
<g id="Line 2" filter="url(#filter0_dddddd_0_30)">
<path d="M17.9424 276.609C17.9424 278.082 19.1363 279.276 20.6091 279.276C22.0818 279.276 23.2757 278.082 23.2757 276.609C23.2757 275.136 22.0818 273.942 20.6091 273.942C19.1363 273.942 17.9424 275.136 17.9424 276.609ZM93.9424 20.6091C93.9424 22.0818 95.1363 23.2757 96.6091 23.2757C98.0818 23.2757 99.2757 22.0818 99.2757 20.6091C99.2757 19.1363 98.0818 17.9424 96.6091 17.9424C95.1363 17.9424 93.9424 19.1363 93.9424 20.6091ZM20.6091 276.609V277.109H88.6091V276.609V276.109H20.6091V276.609ZM96.6091 268.609H97.1091V20.6091H96.6091H96.1091V268.609H96.6091ZM88.6091 276.609V277.109C93.3035 277.109 97.1091 273.303 97.1091 268.609H96.6091H96.1091C96.1091 272.751 92.7512 276.109 88.6091 276.109V276.609Z" fill="url(#paint0_linear_0_30)"/>
</g>
<defs>
<filter id="filter0_dddddd_0_30" x="-7.15256e-07" y="-7.15256e-07" width="117.218" height="297.218" filterUnits="userSpaceOnUse" color-interpolation-filters="sRGB">
<feFlood flood-opacity="0" result="BackgroundImageFix"/>
<feColorMatrix in="SourceAlpha" type="matrix" values="0 0 0 0 0 0 0 0 0 0 0 0 0 0 0 0 0 0 127 0" result="hardAlpha"/>
<feOffset/>
<feGaussianBlur stdDeviation="0.2136"/>
<feColorMatrix type="matrix" values="0 0 0 0 1 0 0 0 0 1 0 0 0 0 1 0 0 0 1 0"/>
<feBlend mode="normal" in2="BackgroundImageFix" result="effect1_dropShadow_0_30"/>
<feColorMatrix in="SourceAlpha" type="matrix" values="0 0 0 0 0 0 0 0 0 0 0 0 0 0 0 0 0 0 127 0" result="hardAlpha"/>
<feOffset/>
<feGaussianBlur stdDeviation="0.4272"/>
<feColorMatrix type="matrix" values="0 0 0 0 1 0 0 0 0 1 0 0 0 0 1 0 0 0 1 0"/>
<feBlend mode="normal" in2="effect1_dropShadow_0_30" result="effect2_dropShadow_0_30"/>
<feColorMatrix in="SourceAlpha" type="matrix" values="0 0 0 0 0 0 0 0 0 0 0 0 0 0 0 0 0 0 127 0" result="hardAlpha"/>
<feOffset/>
<feGaussianBlur stdDeviation="1.4952"/>
<feColorMatrix type="matrix" values="0 0 0 0 1 0 0 0 0 1 0 0 0 0 1 0 0 0 1 0"/>
<feBlend mode="normal" in2="effect2_dropShadow_0_30" result="effect3_dropShadow_0_30"/>
<feColorMatrix in="SourceAlpha" type="matrix" values="0 0 0 0 0 0 0 0 0 0 0 0 0 0 0 0 0 0 127 0" result="hardAlpha"/>
<feOffset/>
<feGaussianBlur stdDeviation="2.9904"/>
<feColorMatrix type="matrix" values="0 0 0 0 1 0 0 0 0 1 0 0 0 0 1 0 0 0 1 0"/>
<feBlend mode="normal" in2="effect3_dropShadow_0_30" result="effect4_dropShadow_0_30"/>
<feColorMatrix in="SourceAlpha" type="matrix" values="0 0 0 0 0 0 0 0 0 0 0 0 0 0 0 0 0 0 127 0" result="hardAlpha"/>
<feOffset/>
<feGaussianBlur stdDeviation="5.1264"/>
<feColorMatrix type="matrix" values="0 0 0 0 1 0 0 0 0 1 0 0 0 0 1 0 0 0 1 0"/>
<feBlend mode="normal" in2="effect4_dropShadow_0_30" result="effect5_dropShadow_0_30"/>
<feColorMatrix in="SourceAlpha" type="matrix" values="0 0 0 0 0 0 0 0 0 0 0 0 0 0 0 0 0 0 127 0" result="hardAlpha"/>
<feOffset/>
<feGaussianBlur stdDeviation="8.9712"/>
<feColorMatrix type="matrix" values="0 0 0 0 1 0 0 0 0 1 0 0 0 0 1 0 0 0 1 0"/>
<feBlend mode="normal" in2="effect5_dropShadow_0_30" result="effect6_dropShadow_0_30"/>
<feBlend mode="normal" in="SourceGraphic" in2="effect6_dropShadow_0_30" result="shape"/>
</filter>
<linearGradient id="paint0_linear_0_30" x1="58.6091" y1="20.6091" x2="58.6091" y2="276.609" gradientUnits="userSpaceOnUse">
<stop stop-color="white"/>
<stop offset="1" stop-color="white"/>
</linearGradient>
</defs>
</svg>
