<svg preserveAspectRatio="none" width="100%" height="100%" overflow="visible" style="display: block;" viewBox="0 0 143.218 190.218" fill="none" xmlns="http://www.w3.org/2000/svg">
<g id="Line 3" filter="url(#filter0_dddddd_0_29)">
<path d="M17.9424 169.609C17.9424 171.082 19.1363 172.276 20.6091 172.276C22.0818 172.276 23.2757 171.082 23.2757 169.609C23.2757 168.136 22.0818 166.942 20.6091 166.942C19.1363 166.942 17.9424 168.136 17.9424 169.609ZM119.942 20.6091C119.942 22.0818 121.136 23.2757 122.609 23.2757C124.082 23.2757 125.276 22.0818 125.276 20.6091C125.276 19.1363 124.082 17.9424 122.609 17.9424C121.136 17.9424 119.942 19.1363 119.942 20.6091ZM20.6091 169.609V170.109H114.609V169.609V169.109H20.6091V169.609ZM122.609 161.609H123.109V20.6091H122.609H122.109V161.609H122.609ZM114.609 169.609V170.109C119.303 170.109 123.109 166.303 123.109 161.609H122.609H122.109C122.109 165.751 118.751 169.109 114.609 169.109V169.609Z" fill="url(#paint0_linear_0_29)"/>
</g>
<defs>
<filter id="filter0_dddddd_0_29" x="-7.15256e-07" y="-7.15256e-07" width="143.218" height="190.218" filterUnits="userSpaceOnUse" color-interpolation-filters="sRGB">
<feFlood flood-opacity="0" result="BackgroundImageFix"/>
<feColorMatrix in="SourceAlpha" type="matrix" values="0 0 0 0 0 0 0 0 0 0 0 0 0 0 0 0 0 0 127 0" result="hardAlpha"/>
<feOffset/>
<feGaussianBlur stdDeviation="0.2136"/>
<feColorMatrix type="matrix" values="0 0 0 0 1 0 0 0 0 1 0 0 0 0 1 0 0 0 1 0"/>
<feBlend mode="normal" in2="BackgroundImageFix" result="effect1_dropShadow_0_29"/>
<feColorMatrix in="SourceAlpha" type="matrix" values="0 0 0 0 0 0 0 0 0 0 0 0 0 0 0 0 0 0 127 0" result="hardAlpha"/>
<feOffset/>
<feGaussianBlur stdDeviation="0.4272"/>
<feColorMatrix type="matrix" values="0 0 0 0 1 0 0 0 0 1 0 0 0 0 1 0 0 0 1 0"/>
<feBlend mode="normal" in2="effect1_dropShadow_0_29" result="effect2_dropShadow_0_29"/>
<feColorMatrix in="SourceAlpha" type="matrix" values="0 0 0 0 0 0 0 0 0 0 0 0 0 0 0 0 0 0 127 0" result="hardAlpha"/>
<feOffset/>
<feGaussianBlur stdDeviation="1.4952"/>
<feColorMatrix type="matrix" values="0 0 0 0 1 0 0 0 0 1 0 0 0 0 1 0 0 0 1 0"/>
<feBlend mode="normal" in2="effect2_dropShadow_0_29" result="effect3_dropShadow_0_29"/>
<feColorMatrix in="SourceAlpha" type="matrix" values="0 0 0 0 0 0 0 0 0 0 0 0 0 0 0 0 0 0 127 0" result="hardAlpha"/>
<feOffset/>
<feGaussianBlur stdDeviation="2.9904"/>
<feColorMatrix type="matrix" values="0 0 0 0 1 0 0 0 0 1 0 0 0 0 1 0 0 0 1 0"/>
<feBlend mode="normal" in2="effect3_dropShadow_0_29" result="effect4_dropShadow_0_29"/>
<feColorMatrix in="SourceAlpha" type="matrix" values="0 0 0 0 0 0 0 0 0 0 0 0 0 0 0 0 0 0 127 0" result="hardAlpha"/>
<feOffset/>
<feGaussianBlur stdDeviation="5.1264"/>
<feColorMatrix type="matrix" values="0 0 0 0 1 0 0 0 0 1 0 0 0 0 1 0 0 0 1 0"/>
<feBlend mode="normal" in2="effect4_dropShadow_0_29" result="effect5_dropShadow_0_29"/>
<feColorMatrix in="SourceAlpha" type="matrix" values="0 0 0 0 0 0 0 0 0 0 0 0 0 0 0 0 0 0 127 0" result="hardAlpha"/>
<feOffset/>
<feGaussianBlur stdDeviation="8.9712"/>
<feColorMatrix type="matrix" values="0 0 0 0 1 0 0 0 0 1 0 0 0 0 1 0 0 0 1 0"/>
<feBlend mode="normal" in2="effect5_dropShadow_0_29" result="effect6_dropShadow_0_29"/>
<feBlend mode="normal" in="SourceGraphic" in2="effect6_dropShadow_0_29" result="shape"/>
</filter>
<linearGradient id="paint0_linear_0_29" x1="71.6091" y1="20.6091" x2="71.6091" y2="169.609" gradientUnits="userSpaceOnUse">
<stop stop-color="white"/>
<stop offset="1" stop-color="white"/>
</linearGradient>
</defs>
</svg>
