<svg preserveAspectRatio="none" width="100%" height="100%" overflow="visible" style="display: block;" viewBox="0 0 12.9988 13" fill="none" xmlns="http://www.w3.org/2000/svg">
<path id="Vector" d="M10.2252 7.5525L8.22517 6.5525C8.14644 6.51327 8.05876 6.4955 7.97097 6.50099C7.88318 6.50647 7.7984 6.53502 7.72517 6.58375L6.80704 7.19625C6.38558 6.96456 6.03874 6.61772 5.80704 6.19625L6.41954 5.27812C6.46827 5.2049 6.49682 5.12011 6.50231 5.03232C6.50779 4.94453 6.49002 4.85685 6.45079 4.77812L5.45079 2.77813C5.40935 2.69442 5.34528 2.624 5.26585 2.57484C5.18643 2.52568 5.09482 2.49976 5.00142 2.5C4.33838 2.5 3.70249 2.76339 3.23365 3.23223C2.76481 3.70107 2.50142 4.33696 2.50142 5C2.50307 6.45818 3.08307 7.85617 4.11416 8.88726C5.14525 9.91835 6.54324 10.4983 8.00142 10.5C8.32972 10.5 8.65481 10.4353 8.95813 10.3097C9.26144 10.1841 9.53704 9.99991 9.76919 9.76777C10.0013 9.53562 10.1855 9.26002 10.3111 8.95671C10.4368 8.65339 10.5014 8.3283 10.5014 8C10.5015 7.90711 10.4757 7.81604 10.4269 7.737C10.3781 7.65795 10.3082 7.59407 10.2252 7.5525ZM8.00142 9.5C6.80835 9.49868 5.66453 9.02415 4.8209 8.18052C3.97727 7.33689 3.50274 6.19307 3.50142 5C3.50132 4.6532 3.6214 4.31708 3.84121 4.04884C4.06102 3.7806 4.36699 3.59681 4.70704 3.52875L5.42454 4.96625L4.81392 5.875C4.76829 5.94345 4.74025 6.02209 4.73229 6.10397C4.72433 6.18585 4.7367 6.26842 4.76829 6.34438C5.12603 7.19461 5.80243 7.87101 6.65267 8.22875C6.72885 8.26175 6.81205 8.27525 6.89476 8.26805C6.97747 8.26085 7.05708 8.23317 7.12642 8.1875L8.03954 7.57875L9.47704 8.29625C9.40846 8.6367 9.22386 8.9428 8.95475 9.16233C8.68565 9.38185 8.34871 9.5012 8.00142 9.5ZM6.50142 1.54797e-07C5.37921 -0.000244726 4.27605 0.290055 3.29933 0.842643C2.3226 1.39523 1.50557 2.19128 0.927776 3.15331C0.349979 4.11534 0.0310947 5.21058 0.00216122 6.33241C-0.0267723 7.45425 0.235231 8.56446 0.762669 9.555L0.0532938 11.6831C-0.00546583 11.8593 -0.0139932 12.0484 0.0286674 12.2292C0.071328 12.4099 0.163491 12.5753 0.294826 12.7066C0.426161 12.8379 0.591478 12.9301 0.772248 12.9728C0.953018 13.0154 1.1421 13.0069 1.31829 12.9481L3.44642 12.2388C4.31815 12.7024 5.28405 12.9614 6.27081 12.996C7.25757 13.0306 8.23925 12.84 9.14134 12.4386C10.0434 12.0372 10.8422 11.4355 11.477 10.6793C12.1119 9.92309 12.5661 9.03218 12.8052 8.07421C13.0444 7.11624 13.0621 6.11638 12.8571 5.15052C12.6521 4.18467 12.2298 3.27821 11.6222 2.49995C11.0146 1.72169 10.2376 1.09208 9.35036 0.658909C8.46308 0.225743 7.48878 0.000405144 6.50142 1.54797e-07ZM6.50142 12C5.53453 12.0007 4.5846 11.746 3.74767 11.2619C3.68639 11.2263 3.61826 11.2042 3.54779 11.197C3.47733 11.1898 3.40613 11.1976 3.33892 11.22L1.00142 12L1.78079 9.6625C1.80326 9.59533 1.8112 9.52416 1.80409 9.45369C1.79698 9.38323 1.77498 9.31507 1.73954 9.25375C1.13328 8.20557 0.889862 6.98661 1.04706 5.78598C1.20426 4.58534 1.75329 3.47014 2.60897 2.61337C3.46466 1.7566 4.57916 1.20617 5.7796 1.04745C6.98004 0.888735 8.1993 1.13061 9.24825 1.73555C10.2972 2.3405 11.1172 3.27469 11.581 4.39322C12.0448 5.51175 12.1266 6.75208 11.8136 7.92181C11.5005 9.09153 10.8102 10.1253 9.84976 10.8626C8.88928 11.6 7.7123 11.9998 6.50142 12Z" fill="var(--fill-0, white)"/>
</svg>
