<svg preserveAspectRatio="none" width="100%" height="100%" overflow="visible" style="display: block;" viewBox="0 0 711.633 576" fill="none" xmlns="http://www.w3.org/2000/svg">
<g id="Ornament" opacity="0.1">
<path id="Fill 1" fill-rule="evenodd" clip-rule="evenodd" d="M387.042 227.642H324.598L305.284 278.266L305.372 278.318L324.598 227.902H387.035L406.268 278.318L406.349 278.266L387.042 227.642ZM380.322 235.809L380.315 235.797H331.318L331.311 235.809H380.322ZM355.82 271.561L362.784 267.254L360.119 260.277H351.52L348.848 267.254L355.82 271.561ZM294.752 281.191L318.074 220H393.559L416.881 281.191L355.82 319L294.752 281.191Z" fill="var(--fill-0, white)"/>
<path id="Fill 2" fill-rule="evenodd" clip-rule="evenodd" d="M393.783 220.381H317.843L294.379 281.87L355.81 319.868L417.254 281.87L393.783 220.381ZM284.183 284.689L311.548 213H400.078L427.449 284.689L355.81 329L284.183 284.689Z" fill="var(--fill-0, white)"/>
<path id="Fill 3" fill-rule="evenodd" clip-rule="evenodd" d="M400.53 212.124H311.109L283.473 284.471L355.816 329.191L428.159 284.471L400.53 212.124ZM273.615 287.196L305.03 205H406.61L438.018 287.196L355.816 338L273.615 287.196Z" fill="var(--fill-0, white)"/>
<path id="Fill 4" fill-rule="evenodd" clip-rule="evenodd" d="M407.27 203.872H304.363L272.547 287.079L355.813 338.496L439.079 287.079L407.27 203.872ZM263.046 289.704L298.486 197H413.14L448.587 289.704L355.813 347L263.046 289.704Z" fill="var(--fill-0, white)"/>
<path id="Fill 5" fill-rule="evenodd" clip-rule="evenodd" d="M413.11 195.615H297.362L261.582 289.684L355.233 347.816L448.883 289.684L413.11 195.615ZM252.477 292.211L291.733 189H418.733L457.982 292.211L355.233 356L252.477 292.211Z" fill="var(--fill-0, white)"/>
<path id="Fill 6" fill-rule="evenodd" clip-rule="evenodd" d="M419.842 187.366H290.609L250.681 292.287L355.229 357.124L459.777 292.287L419.842 187.366ZM241.908 294.714L285.2 181H425.252L468.55 294.714L355.229 365L241.908 294.714Z" fill="var(--fill-0, white)"/>
<path id="Fill 7" fill-rule="evenodd" clip-rule="evenodd" d="M426.586 179.116H283.873L239.766 294.884L355.226 366.432L470.693 294.884L426.586 179.116ZM231.339 297.219L278.669 173H431.796L479.119 297.219L355.226 374L231.339 297.219Z" fill="var(--fill-0, white)"/>
<path id="Fill 8" fill-rule="evenodd" clip-rule="evenodd" d="M433.335 170.861H277.13L228.85 297.493L355.226 375.756L481.609 297.493L433.335 170.861ZM220.771 299.724L272.134 165H438.325L489.688 299.724L355.226 383L220.771 299.724Z" fill="var(--fill-0, white)"/>
<path id="Fill 9" fill-rule="evenodd" clip-rule="evenodd" d="M440.072 163.612H270.387L217.933 301.089L355.226 386.063L492.526 301.089L440.072 163.612ZM210.202 303.233L265.598 158H444.854L500.257 303.233L355.226 393L210.202 303.233Z" fill="var(--fill-0, white)"/>
<path id="Fill 10" fill-rule="evenodd" clip-rule="evenodd" d="M446.82 155.352H263.646L207.028 303.7L355.229 395.374L503.437 303.7L446.82 155.352ZM199.633 305.746L259.072 150H451.387L510.826 305.746L355.229 402L199.633 305.746Z" fill="var(--fill-0, white)"/>
<path id="Fill 11" fill-rule="evenodd" clip-rule="evenodd" d="M453.56 147.109H256.899L196.109 306.304L355.229 404.686L514.349 306.304L453.56 147.109ZM189.064 308.251L252.54 142H457.918L521.394 308.251L355.229 411L189.064 308.251Z" fill="var(--fill-0, white)"/>
<path id="Fill 12" fill-rule="evenodd" clip-rule="evenodd" d="M460.304 138.855H250.147L185.19 308.9L355.229 413.998L525.268 308.9L460.304 138.855ZM178.495 310.755L246.011 134H464.44L531.963 310.755L355.229 420L178.495 310.755Z" fill="var(--fill-0, white)"/>
<path id="Fill 13" fill-rule="evenodd" clip-rule="evenodd" d="M467.058 130.59H243.414L174.285 311.503L355.229 423.316L536.187 311.503L467.058 130.59ZM167.927 313.266L239.486 126H470.979L542.532 313.266L355.229 429L167.927 313.266Z" fill="var(--fill-0, white)"/>
<path id="Fill 14" fill-rule="evenodd" clip-rule="evenodd" d="M473.794 122.348H236.665L163.372 314.107L355.226 432.627L547.087 314.107L473.794 122.348ZM157.358 315.766L232.947 118H477.512L553.101 315.766L355.226 438L157.358 315.766Z" fill="var(--fill-0, white)"/>
<path id="Fill 15" fill-rule="evenodd" clip-rule="evenodd" d="M480.546 114.094H229.92L152.452 316.718L355.233 441.944L558.013 316.718L480.546 114.094ZM148.205 319.148L146.789 318.273L226.418 110H484.054L563.67 318.273L355.233 447L148.205 319.148Z" fill="var(--fill-0, white)"/>
<path id="Fill 16" fill-rule="evenodd" clip-rule="evenodd" d="M487.28 105.846H223.172L141.532 319.31L355.226 451.25L568.92 319.31L487.28 105.846ZM136.22 320.784L219.879 102H490.566L574.238 320.784L355.226 456L136.22 320.784Z" fill="var(--fill-0, white)"/>
<path id="Fill 17" fill-rule="evenodd" clip-rule="evenodd" d="M494.033 98.5869H216.425L130.618 322.921L355.229 461.561L579.84 322.921L494.033 98.5869ZM125.651 324.286L213.349 95H497.11L584.807 324.286L355.229 466L125.651 324.286Z" fill="var(--fill-0, white)"/>
<path id="Fill 18" fill-rule="evenodd" clip-rule="evenodd" d="M501.007 90.3335H210.626L120.874 325.523L355.813 470.872L590.759 325.523L501.007 90.3335ZM116.257 326.795L207.78 87H503.853L595.376 326.795L355.813 475L116.257 326.795Z" fill="var(--fill-0, white)"/>
<path id="Fill 19" fill-rule="evenodd" clip-rule="evenodd" d="M507.752 82.0913H203.874L109.948 328.12L355.813 480.183L601.685 328.12L507.752 82.0913ZM106.75 329.963L105.688 329.301L201.251 79H510.389L605.945 329.301L355.813 484L106.75 329.963Z" fill="var(--fill-0, white)"/>
<path id="Fill 20" fill-rule="evenodd" clip-rule="evenodd" d="M514.494 73.832H197.139L99.0488 330.723L355.816 489.494L612.591 330.723L514.494 73.832ZM95.1192 331.806L194.718 71H516.922L616.514 331.806L355.816 493L95.1192 331.806Z" fill="var(--fill-0, white)"/>
<path id="Fill 21" fill-rule="evenodd" clip-rule="evenodd" d="M623.511 333.33L521.245 65.5845H190.394L88.1222 333.33L355.816 498.811L623.511 333.33ZM85.4434 334.873L84.5504 334.321L187.837 63.8922L188.182 63H523.451L627.082 334.321L356.709 501.453L355.816 502L85.4434 334.873Z" fill="var(--fill-0, white)"/>
<path id="Fill 22" fill-rule="evenodd" clip-rule="evenodd" d="M527.992 57.3311H183.641L77.2091 335.926L355.82 508.116L634.424 335.926L527.992 57.3311ZM73.9816 336.824L181.652 55H529.981L637.651 336.824L355.82 511L73.9816 336.824Z" fill="var(--fill-0, white)"/>
<path id="Fill 23" fill-rule="evenodd" clip-rule="evenodd" d="M534.732 49.0776H176.894L66.2822 338.539L355.816 517.433L645.344 338.539L534.732 49.0776ZM64.1301 339.777L63.4128 339.339L174.837 47.7195L175.115 47H536.518L647.943 338.62L648.22 339.339L355.816 520L64.1301 339.777Z" fill="var(--fill-0, white)"/>
<path id="Fill 24" fill-rule="evenodd" clip-rule="evenodd" d="M541.485 41.8247H170.148L55.3686 342.135L355.813 527.738L656.264 342.135L541.485 41.8247ZM53.4734 343.223L52.844 342.831L168.341 40.6331L168.591 40H543.042L658.552 342.198L658.789 342.831L355.813 530L53.4734 343.223Z" fill="var(--fill-0, white)"/>
<path id="Fill 25" fill-rule="evenodd" clip-rule="evenodd" d="M667.164 344.741L548.228 33.5884H163.412L44.4684 344.741L355.816 537.049L667.164 344.741ZM42.8303 345.679L42.2752 345.339L161.855 32.5525L162.065 32H549.575L669.148 344.792L669.358 345.339L356.365 538.655L355.816 539L42.8303 345.679Z" fill="var(--fill-0, white)"/>
<path id="Fill 26" fill-rule="evenodd" clip-rule="evenodd" d="M554.974 25.3291H156.659L33.541 347.343L355.813 546.365L678.085 347.343L554.974 25.3291ZM32.16 348.138L31.7064 347.85L155.352 24.4662L155.521 24H556.105L679.757 347.395L679.927 347.85L355.813 548L32.16 348.138Z" fill="var(--fill-0, white)"/>
<path id="Fill 27" fill-rule="evenodd" clip-rule="evenodd" d="M689.006 349.947L561.721 17.0762H149.919L22.6272 349.947L355.817 555.665L689.006 349.947ZM21.5167 350.586L21.1376 350.35L148.855 16.3683L148.998 16H562.642L690.353 349.982L690.495 350.35L356.196 556.764L355.816 557L21.5167 350.586Z" fill="var(--fill-0, white)"/>
<path id="Fill 28" fill-rule="evenodd" clip-rule="evenodd" d="M699.913 353.161L568.463 8.81836H143.17L11.7133 353.161L355.81 565.974L699.913 353.161ZM10.86 353.651L10.5688 353.479L142.466 8H569.167L701.064 353.479L356.094 566.821L355.81 567L10.86 353.651Z" fill="var(--fill-0, white)"/>
<path id="Fill 29" fill-rule="evenodd" clip-rule="evenodd" d="M135.93 0L135.856 0.201757L0 355.981L0.203184 356.108L355.817 576L356.013 575.873L711.633 355.981L711.565 355.785L575.709 0H135.93ZM0.792374 355.762L136.431 0.570801H575.208L710.841 355.762L355.816 575.28L0.792374 355.762Z" fill="var(--fill-0, white)"/>
</g>
</svg>
