<svg preserveAspectRatio="none" width="100%" height="100%" overflow="visible" style="display: block;" viewBox="0 0 17.728 17.7226" fill="none" xmlns="http://www.w3.org/2000/svg">
<path id="Vector" d="M17.728 8.8613C17.73 9.12107 17.651 9.37502 17.502 9.58784C17.3531 9.80066 17.1415 9.96178 16.8967 10.0488L11.8744 11.8752L10.0488 16.8967C9.95882 17.1391 9.79681 17.3482 9.58453 17.4958C9.37225 17.6435 9.11987 17.7226 8.8613 17.7226C8.60273 17.7226 8.35035 17.6435 8.13807 17.4958C7.92579 17.3482 7.76378 17.1391 7.6738 16.8967L5.84822 11.8744L0.825885 10.0488C0.583474 9.95882 0.374407 9.79681 0.226771 9.58453C0.0791339 9.37225 0 9.11987 0 8.8613C0 8.60273 0.0791339 8.35035 0.226771 8.13807C0.374407 7.92579 0.583474 7.76378 0.825885 7.6738L5.84822 5.84822L7.6738 0.825885C7.76378 0.583474 7.92579 0.374407 8.13807 0.226771C8.35035 0.0791339 8.60273 0 8.8613 0C9.11987 0 9.37225 0.0791339 9.58453 0.226771C9.79681 0.374407 9.95882 0.583474 10.0488 0.825885L11.8752 5.84822L16.8967 7.6738C17.1415 7.76083 17.3531 7.92195 17.502 8.13476C17.651 8.34758 17.73 8.60153 17.728 8.8613Z" fill="var(--fill-0, #9E1515)"/>
</svg>
