<svg preserveAspectRatio="none" width="100%" height="100%" overflow="visible" style="display: block;" viewBox="0 0 19.5003 18.7491" fill="none" xmlns="http://www.w3.org/2000/svg">
<path id="Vector" d="M16.5722 2.80219C14.7569 1.00462 12.3047 -0.00261382 9.75 5.09434e-06H9.64969C7.08125 0.0264318 4.62699 1.06532 2.82015 2.89094C1.01331 4.71656 -0.000135935 7.18143 1.36758e-08 9.75001C1.36758e-08 13.7813 2.49187 17.1619 6.5025 18.5784C6.95485 18.7379 7.43885 18.7866 7.91391 18.7204C8.38897 18.6543 8.84123 18.4752 9.23278 18.1981C9.62432 17.9211 9.94373 17.5542 10.1642 17.1282C10.3847 16.7023 10.4999 16.2297 10.5 15.75C10.5 15.3522 10.658 14.9707 10.9393 14.6893C11.2206 14.408 11.6022 14.25 12 14.25H16.3322C17.0127 14.2533 17.6739 14.0237 18.2059 13.5995C18.738 13.1752 19.1089 12.5817 19.2572 11.9175C19.4248 11.1794 19.5063 10.4244 19.5 9.66751C19.4904 8.38638 19.2267 7.11988 18.7242 5.94141C18.2216 4.76294 17.4901 3.69592 16.5722 2.80219ZM5.625 13.5C5.4025 13.5 5.18499 13.434 4.99998 13.3104C4.81498 13.1868 4.67078 13.0111 4.58564 12.8055C4.50049 12.6 4.47821 12.3738 4.52162 12.1555C4.56502 11.9373 4.67217 11.7368 4.8295 11.5795C4.98684 11.4222 5.18729 11.315 5.40552 11.2716C5.62375 11.2282 5.84995 11.2505 6.05552 11.3356C6.26109 11.4208 6.43679 11.565 6.5604 11.75C6.68402 11.935 6.75 12.1525 6.75 12.375C6.75 12.6734 6.63147 12.9595 6.42049 13.1705C6.20952 13.3815 5.92337 13.5 5.625 13.5ZM5.625 8.25001C5.4025 8.25001 5.18499 8.18403 4.99998 8.06041C4.81498 7.93679 4.67078 7.76109 4.58564 7.55552C4.50049 7.34996 4.47821 7.12376 4.52162 6.90553C4.56502 6.6873 4.67217 6.48684 4.8295 6.32951C4.98684 6.17218 5.18729 6.06503 5.40552 6.02162C5.62375 5.97821 5.84995 6.00049 6.05552 6.08564C6.26109 6.17079 6.43679 6.31498 6.5604 6.49999C6.68402 6.68499 6.75 6.9025 6.75 7.12501C6.75 7.42337 6.63147 7.70952 6.42049 7.9205C6.20952 8.13148 5.92337 8.25001 5.625 8.25001ZM9.75 6.00001C9.5275 6.00001 9.30999 5.93403 9.12498 5.81041C8.93998 5.68679 8.79578 5.51109 8.71063 5.30552C8.62549 5.09996 8.60321 4.87376 8.64662 4.65553C8.69002 4.4373 8.79717 4.23684 8.9545 4.07951C9.11184 3.92218 9.31229 3.81503 9.53052 3.77162C9.74875 3.72821 9.97495 3.75049 10.1805 3.83564C10.3861 3.92079 10.5618 4.06498 10.6854 4.24999C10.809 4.43499 10.875 4.6525 10.875 4.87501C10.875 5.17337 10.7565 5.45952 10.5455 5.6705C10.3345 5.88148 10.0484 6.00001 9.75 6.00001ZM13.875 8.25001C13.6525 8.25001 13.435 8.18403 13.25 8.06041C13.065 7.93679 12.9208 7.76109 12.8356 7.55552C12.7505 7.34996 12.7282 7.12376 12.7716 6.90553C12.815 6.6873 12.9222 6.48684 13.0795 6.32951C13.2368 6.17218 13.4373 6.06503 13.6555 6.02162C13.8738 5.97821 14.1 6.00049 14.3055 6.08564C14.5111 6.17079 14.6868 6.31498 14.8104 6.49999C14.934 6.68499 15 6.9025 15 7.12501C15 7.42337 14.8815 7.70952 14.6705 7.9205C14.4595 8.13148 14.1734 8.25001 13.875 8.25001Z" fill="var(--fill-0, white)"/>
</svg>
