<svg preserveAspectRatio="none" width="100%" height="100%" overflow="visible" style="display: block;" viewBox="0 0 73.3773 63.5937" fill="none" xmlns="http://www.w3.org/2000/svg">
<g id="Group 10">
<path id="Vector" d="M43.241 31.7374C43.241 28.229 40.3076 25.3844 36.6887 25.3844C33.0702 25.3844 30.1363 28.229 30.1363 31.7374C30.1363 35.2463 33.0702 38.0906 36.6887 38.0906C40.3076 38.0906 43.241 35.2463 43.241 31.7374Z" fill="var(--fill-0, #53C1DE)"/>
<path id="Vector_2" fill-rule="evenodd" clip-rule="evenodd" d="M57.969 19.9432C59.3527 14.4915 61.092 4.3818 54.9606 0.954293C48.8578 -2.45826 40.9162 4.08083 36.7226 8.0059C32.5414 4.11994 24.3767 -2.3912 18.2505 1.04719C12.1501 4.47119 14.0313 14.4133 15.4457 19.8992C9.75505 21.4663 0 24.8416 0 31.7379C0 38.6146 9.7449 42.2868 15.4018 43.8525C13.9822 49.3687 12.1952 59.1688 18.3034 62.5852C24.4525 66.0229 32.5917 59.6667 36.8242 55.6987C41.0446 59.6469 48.9099 66.0447 55.0139 62.6187C61.137 59.182 59.5423 49.2078 58.1278 43.6901C63.6115 42.121 73.3773 38.5287 73.3773 31.7379C73.3773 24.9079 63.5699 21.5052 57.969 19.9432ZM57.2739 40.766C56.3452 37.9155 55.0917 34.8843 53.5583 31.753C55.022 28.6957 56.2268 25.7036 57.1296 22.8715C61.2356 24.0257 70.2429 26.6636 70.2429 31.7379C70.2429 36.8599 61.5993 39.5227 57.2739 40.766ZM53.4431 59.9884C48.8888 62.5444 42.1237 56.4262 39.0069 53.5187C41.0747 51.3259 43.141 48.7768 45.1576 45.9462C48.7052 45.6412 52.0563 45.1422 55.0956 44.461C56.0911 48.3639 58.0175 57.4209 53.4431 59.9884ZM19.8696 59.9519C15.3149 57.4055 17.3967 48.6604 18.4411 44.597C21.4466 45.2417 24.7736 45.7055 28.3295 45.9851C30.3594 48.7548 32.4856 51.3008 34.6282 53.5304C31.981 56.0133 24.4456 62.5101 19.8696 59.9519ZM3.13441 31.7379C3.13441 26.5968 12.0879 23.978 16.2874 22.8267C17.2058 25.7224 18.4102 28.7502 19.8638 31.812C18.3914 34.9193 17.1697 37.995 16.2429 40.925C12.2386 39.8135 3.13441 36.8821 3.13441 31.7379ZM19.8209 3.67752C24.3943 1.11083 31.4904 7.36177 34.5262 10.1753C32.3946 12.3947 30.2879 14.9215 28.2755 17.6754C24.8245 17.9855 21.5209 18.4835 18.484 19.1507C17.3446 14.7261 15.2525 6.24145 19.8209 3.67752ZM47.4 20.9788C49.7412 21.2652 51.9844 21.6463 54.0906 22.1125C53.4583 24.0775 52.6702 26.1323 51.742 28.2388C50.3965 25.7635 48.9522 23.3379 47.4 20.9788ZM36.7236 12.3472C38.1694 13.8658 39.6174 15.5616 41.0419 17.4014C38.1525 17.2689 35.2585 17.2684 32.3692 17.3995C33.7949 15.5767 35.2553 13.8834 36.7236 12.3472ZM21.6622 28.2366C20.7494 26.1375 19.9684 24.0736 19.3306 22.0804C21.4242 21.6262 23.6568 21.255 25.9829 20.9732C24.4263 23.3271 22.9845 25.7518 21.6622 28.2366ZM26.0497 42.7195C23.6468 42.4595 21.3803 42.1071 19.2874 41.6653C19.9352 39.6372 20.7334 37.5288 21.6658 35.3845C23.0062 37.8952 24.4701 40.3433 26.0497 42.7195ZM36.8105 51.3433C35.3248 49.7889 33.8428 48.0697 32.3956 46.2206C35.3013 46.3312 38.2127 46.3314 41.1182 46.2057C39.6893 48.0885 38.2464 49.8102 36.8105 51.3433ZM51.7718 35.2754C52.7526 37.443 53.5794 39.5398 54.2361 41.5337C52.1084 42.0046 49.8114 42.3837 47.3912 42.6652C48.9549 40.2614 50.4222 37.7981 51.7718 35.2754ZM43.4083 43.0336C38.9636 43.3415 34.4912 43.3381 30.0451 43.0588C27.5187 39.4806 25.2697 35.7176 23.3284 31.811C25.2604 27.9125 27.493 24.1568 30.0074 20.5843C34.4568 20.2582 38.9335 20.2573 43.3829 20.5862C45.8757 24.1585 48.1049 27.9044 50.0817 31.7677C48.1284 35.6643 45.884 39.4276 43.4083 43.0336ZM53.3949 3.58717C57.9695 6.14544 55.9333 15.2313 54.9339 19.1823C51.8897 18.5011 48.5838 17.9943 45.1229 17.6793C43.1065 14.8957 41.0174 12.3645 38.9203 10.1737C41.995 7.29959 48.8646 1.05392 53.3949 3.58717Z" fill="var(--fill-0, #53C1DE)"/>
</g>
</svg>
