<svg preserveAspectRatio="none" width="100%" height="100%" overflow="visible" style="display: block;" viewBox="0 0 63.7968 63.7968" fill="none" xmlns="http://www.w3.org/2000/svg">
<g id="Group 4">
<path id="Vector" d="M57.5667 0H6.23016C2.78934 0 0 2.78934 0 6.23016V57.5667C0 61.0075 2.78934 63.7968 6.23016 63.7968H57.5667C61.0075 63.7968 63.7968 61.0075 63.7968 57.5667V6.23016C63.7968 2.78934 61.0075 0 57.5667 0Z" fill="var(--fill-0, #3178C6)"/>
<path id="Vector_2" fill-rule="evenodd" clip-rule="evenodd" d="M39.4914 50.767V57.0048C40.5055 57.5246 41.7048 57.9144 43.0894 58.1743C44.474 58.4342 45.9332 58.5642 47.4673 58.5642C48.9624 58.5642 50.3826 58.4213 51.7282 58.1353C53.0738 57.8495 54.2537 57.3783 55.2677 56.7221C56.2817 56.0659 57.0845 55.2081 57.676 54.149C58.2675 53.0899 58.5633 51.7807 58.5633 50.2213C58.5633 49.0906 58.3944 48.0998 58.0563 47.2486C57.7183 46.3974 57.2308 45.6405 56.5937 44.9777C55.9568 44.3149 55.1929 43.7203 54.3024 43.194C53.4119 42.6677 52.4076 42.1706 51.2895 41.7029C50.4705 41.365 49.7359 41.0369 49.0859 40.7185C48.4358 40.4 47.8833 40.0752 47.4283 39.7439C46.9732 39.4124 46.6222 39.0615 46.3753 38.6912C46.1283 38.3208 46.0047 37.9017 46.0047 37.4339C46.0047 37.0051 46.1152 36.6185 46.3363 36.274C46.5573 35.9296 46.8693 35.6341 47.2723 35.3871C47.6754 35.1403 48.1693 34.9485 48.7543 34.8121C49.3395 34.6756 49.9894 34.6075 50.7045 34.6075C51.2245 34.6075 51.7737 34.6465 52.3522 34.7244C52.9308 34.8024 53.5125 34.9226 54.0977 35.085C54.6827 35.2474 55.2514 35.4522 55.804 35.699C56.3565 35.946 56.8667 36.2318 57.3347 36.5568V30.7283C56.3858 30.3645 55.3489 30.0949 54.2244 29.9194C53.0999 29.744 51.8095 29.6562 50.3535 29.6562C48.8713 29.6562 47.4673 29.8155 46.1413 30.1339C44.8152 30.4522 43.6485 30.9493 42.6408 31.625C41.6332 32.3008 40.837 33.1617 40.252 34.2079C39.667 35.2539 39.3744 36.5047 39.3744 37.9602C39.3744 39.8185 39.9107 41.404 40.9833 42.7165C42.0558 44.029 43.6841 45.1401 45.8683 46.0498C46.7263 46.4007 47.5259 46.745 48.2669 47.0829C49.0079 47.4208 49.6482 47.7717 50.1876 48.1355C50.7272 48.4994 51.1529 48.8957 51.4651 49.3246C51.7771 49.7534 51.9331 50.2407 51.9331 50.7866C51.9331 51.1894 51.8355 51.563 51.6405 51.9074C51.4455 52.2518 51.1497 52.5506 50.7532 52.804C50.3567 53.0575 49.8627 53.2556 49.2712 53.3985C48.6796 53.5416 47.9874 53.613 47.1943 53.613C45.8422 53.613 44.5032 53.3758 43.1771 52.9015C41.8511 52.4272 40.6225 51.7157 39.4914 50.767ZM29.005 35.3982H37.007V30.2793H14.703V35.3982H22.6659V58.1904H29.005V35.3982Z" fill="var(--fill-0, white)"/>
</g>
</svg>
