<svg preserveAspectRatio="none" width="100%" height="100%" overflow="visible" style="display: block;" viewBox="0 0 29.8667 64" fill="none" xmlns="http://www.w3.org/2000/svg">
<path id="Vector" d="M20.4892 7.13324C17.8047 3.94631 15.4929 0.709591 15.0207 0.0373469C14.9709 -0.012449 14.8964 -0.012449 14.8467 0.0373469C14.3744 0.709591 12.0627 3.94631 9.37807 7.13324C-13.6645 36.5375 13.0072 56.3813 13.0072 56.3813L13.2309 56.5307C13.4298 59.593 13.9269 64 13.9269 64H14.9212H15.9155C15.9155 64 16.4127 59.6179 16.6115 56.5307L16.8352 56.3564C16.8601 56.3813 43.5319 36.5375 20.4892 7.13324ZM14.9212 55.9579C14.9212 55.9579 13.7281 54.9372 13.4049 54.4142V54.3646L14.8467 22.3458C14.8467 22.2463 14.9958 22.2463 14.9958 22.3458L16.4375 54.3646V54.4142C16.1144 54.9372 14.9212 55.9579 14.9212 55.9579Z" fill="var(--fill-0, #00684A)"/>
</svg>
