<svg preserveAspectRatio="none" width="100%" height="100%" overflow="visible" style="display: block;" viewBox="0 0 56.6857 63.7099" fill="none" xmlns="http://www.w3.org/2000/svg">
<g id="Group 11">
<path id="Vector" d="M56.6828 18.7306C56.6824 17.6594 56.4533 16.7128 55.99 15.9006C55.5348 15.1015 54.8533 14.4319 53.9391 13.9025C46.3926 9.55117 38.8389 5.21317 31.2949 0.857419C29.2611 -0.316741 27.2891 -0.273714 25.2704 0.917302C22.2667 2.68852 7.22816 11.3044 2.74688 13.9C0.901357 14.9686 0.00332686 16.6037 0.00288328 18.7286C0 27.4794 0.00288328 36.2301 0 44.9809C0 46.0286 0.219795 46.9571 0.662711 47.7571C1.11805 48.5801 1.80915 49.2681 2.74444 49.8095C7.22594 52.4051 22.2665 61.0204 25.2695 62.7922C27.2891 63.9839 29.2611 64.0265 31.2956 62.8521C38.8398 58.4962 46.394 54.1582 53.9415 49.8068C54.8768 49.2657 55.5679 48.5772 56.0232 47.7548C56.4655 46.9546 56.6857 46.0264 56.6857 44.9785C56.6857 44.9785 56.6857 27.4816 56.6828 18.7306Z" fill="var(--fill-0, #A179DC)"/>
<path id="Vector_2" d="M28.4296 31.7687L0.662683 47.7563C1.11802 48.5794 1.80912 49.2674 2.74441 49.8088C7.22591 52.4044 22.2664 61.0196 25.2695 62.7915C27.2891 63.9832 29.261 64.0258 31.2955 62.8514C38.8397 58.4954 46.3939 54.1574 53.9415 49.8061C54.8768 49.2649 55.5679 48.5765 56.0232 47.7541L28.4296 31.7687Z" fill="var(--fill-0, #A179DC)"/>
<path id="Vector_3" d="M56.6827 18.7316C56.6823 17.6604 56.4532 16.7138 55.9899 15.9016L28.4295 31.7707L56.0231 47.7558C56.4654 46.9556 56.6852 46.0274 56.6856 44.9794C56.6856 44.9794 56.6856 27.4826 56.6827 18.7316Z" fill="var(--fill-0, #A179DC)"/>
<g id="Group">
<path id="Vector_4" d="M44.7777 25.7914V28.7798H47.7661V25.7914H49.2603V28.7798H52.2487V30.274H49.2603V33.2622H52.2487V34.7564H49.2603V37.7448H47.7661V34.7564H44.7777V37.7448H43.2835V34.7564H40.2953V33.2622H43.2835V30.274H40.2953V28.7798H43.2835V25.7914H44.7777ZM47.7661 30.2738H44.7777V33.2622H47.7661V30.2738Z" fill="var(--fill-0, white)"/>
<path id="Vector_5" d="M28.4906 10.7838C36.2852 10.7838 43.0904 15.0169 46.7356 21.3091L46.7001 21.2486L37.529 26.529C35.7223 23.4698 32.4101 21.4052 28.6102 21.3626L28.4904 21.3619C22.6961 21.3619 17.9986 26.0594 17.9986 31.8537C17.9967 33.68 18.4738 35.4749 19.3823 37.0591C21.1908 40.2163 24.5907 42.3457 28.4906 42.3457C32.4148 42.3457 35.8339 40.1893 37.6331 36.9984L37.5894 37.0749L46.7464 42.3797C43.1412 48.6186 36.4292 52.8387 28.7253 52.9227L28.4906 52.9241C20.6714 52.9241 13.8469 48.6648 10.2109 42.3393C8.43587 39.2513 7.42029 35.6714 7.42029 31.8537C7.42029 20.2172 16.8535 10.7836 28.4904 10.7836L28.4906 10.7838Z" fill="var(--fill-0, white)"/>
</g>
</g>
</svg>
