<svg preserveAspectRatio="none" width="100%" height="100%" overflow="visible" style="display: block;" viewBox="0 0 63.7968 63.7968" fill="none" xmlns="http://www.w3.org/2000/svg">
<g id="Group 5">
<path id="Vector" d="M0 6.09523C0 2.72892 2.72893 0 6.09524 0H57.7016C61.0679 0 63.7968 2.72893 63.7968 6.09524V57.7016C63.7968 61.0679 61.0679 63.7968 57.7016 63.7968H6.09523C2.72892 63.7968 0 61.0679 0 57.7016V6.09523Z" fill="var(--fill-0, #F7DF1E)"/>
<path id="Vector_2" d="M16.7746 53.3125L21.6565 50.3579C22.5985 52.0278 23.4553 53.4408 25.5105 53.4408C27.4805 53.4408 28.7228 52.6703 28.7228 49.6728V29.2882H34.7179V49.7575C34.7179 55.967 31.078 58.7935 25.7674 58.7935C20.9714 58.7935 18.1876 56.3097 16.7743 53.312M37.9743 52.67L42.8557 49.8438C44.1409 51.9423 45.8111 53.4839 48.7657 53.4839C51.25 53.4839 52.834 52.2419 52.834 50.5288C52.834 48.4734 51.2066 47.7452 48.4659 46.5465L46.9674 45.9036C42.6419 44.0627 39.7728 41.75 39.7728 36.8681C39.7728 32.3714 43.1986 28.9453 48.5519 28.9453C52.3632 28.9453 55.104 30.2731 57.0737 33.7418L52.4056 36.7397C51.3776 34.8984 50.2646 34.1704 48.5516 34.1704C46.7957 34.1704 45.6822 35.2839 45.6822 36.7397C45.6822 38.5383 46.7957 39.2667 49.365 40.3801L50.8637 41.0224C55.96 43.2066 58.8291 45.4333 58.8291 50.4433C58.8291 55.8397 54.5896 58.7943 48.894 58.7943C43.327 58.7943 39.7297 56.1392 37.974 52.6703" fill="var(--fill-0, black)"/>
</g>
</svg>
