<svg preserveAspectRatio="none" width="100%" height="100%" overflow="visible" style="display: block;" viewBox="0 0 65.4326 63.7968" fill="none" xmlns="http://www.w3.org/2000/svg">
<g id="Group 15">
<path id="Vector" d="M11.587 0H53.8456C60.2526 0 65.4326 5.18008 65.4326 11.587V52.2098C65.4326 58.6167 60.2526 63.7968 53.8456 63.7968H11.587C5.18008 63.7968 0 58.6167 0 52.2098V11.587C0 5.18008 5.18008 0 11.587 0Z" fill="var(--fill-0, #330000)"/>
<path id="Vector_2" d="M31.6262 38.1692H21.4841L19.4121 44.5762C19.3576 44.8215 19.1395 44.9851 18.8941 44.9579H13.7685C13.4686 44.9579 13.3868 44.7943 13.4686 44.4671L22.2475 19.1938C22.3293 18.9211 22.4111 18.6212 22.5201 18.2941C22.6292 17.7215 22.6837 17.1217 22.6837 16.5219C22.6565 16.3856 22.7655 16.2493 22.9018 16.222H29.9631C30.1812 16.222 30.2903 16.3038 30.3175 16.4401L40.2687 44.5217C40.3505 44.8215 40.2687 44.9579 39.9961 44.9579H34.298C34.1072 44.9851 33.9163 44.8488 33.8618 44.658L31.6262 38.1692ZM23.0654 32.6347H29.9904C29.8268 32.0622 29.6087 31.3806 29.3633 30.6717C29.1179 29.9356 28.8726 29.145 28.6272 28.3271C28.3546 27.4819 28.1092 26.664 27.8365 25.8188C27.5639 24.9736 27.3185 24.183 27.1004 23.3924C26.8823 22.629 26.6915 21.9201 26.5006 21.2658H26.4461C26.2007 22.4381 25.9008 23.6105 25.5191 24.7828C25.1102 26.0915 24.7012 27.4546 24.265 28.8178C23.8833 30.2083 23.4744 31.4896 23.0654 32.6347ZM46.3485 20.9932C45.4488 21.0204 44.5764 20.666 43.9221 20.0389C43.295 19.3573 42.9678 18.4576 42.9951 17.5307C42.9678 16.6037 43.3223 15.7313 43.9766 15.1042C44.6309 14.4772 45.5034 14.15 46.4031 14.15C47.4663 14.15 48.2842 14.4772 48.884 15.1042C49.4838 15.7586 49.811 16.631 49.7837 17.5307C49.811 18.4576 49.4838 19.3573 48.8295 20.0389C48.2025 20.6933 47.2755 21.0477 46.3485 20.9932ZM43.295 44.658V23.665C43.295 23.3924 43.4041 23.2833 43.6494 23.2833H49.0476C49.293 23.2833 49.402 23.4196 49.402 23.665V44.658C49.402 44.9579 49.293 45.0942 49.0476 45.0942H43.704C43.4313 45.0942 43.295 44.9306 43.295 44.658Z" fill="var(--fill-0, #FF9A00)"/>
</g>
</svg>
