<svg preserveAspectRatio="none" width="100%" height="100%" overflow="visible" style="display: block;" viewBox="0 0 63.5937 63.5937" fill="none" xmlns="http://www.w3.org/2000/svg">
<g id="Group 17">
<path id="Vector" d="M31.7968 63.5937C49.3577 63.5937 63.5937 49.3577 63.5937 31.7968C63.5937 14.2359 49.3577 0 31.7968 0C14.2359 0 0 14.2359 0 31.7968C0 49.3577 14.2359 63.5937 31.7968 63.5937Z" fill="var(--fill-0, #7D2AE7)"/>
<path id="Vector_2" d="M31.7968 63.5937C49.3577 63.5937 63.5937 49.3577 63.5937 31.7968C63.5937 14.2359 49.3577 0 31.7968 0C14.2359 0 0 14.2359 0 31.7968C0 49.3577 14.2359 63.5937 31.7968 63.5937Z" fill="url(#paint0_radial_0_10)"/>
<path id="Vector_3" d="M31.7968 63.5937C49.3577 63.5937 63.5937 49.3577 63.5937 31.7968C63.5937 14.2359 49.3577 0 31.7968 0C14.2359 0 0 14.2359 0 31.7968C0 49.3577 14.2359 63.5937 31.7968 63.5937Z" fill="url(#paint1_radial_0_10)"/>
<path id="Vector_4" d="M31.7968 63.5937C49.3577 63.5937 63.5937 49.3577 63.5937 31.7968C63.5937 14.2359 49.3577 0 31.7968 0C14.2359 0 0 14.2359 0 31.7968C0 49.3577 14.2359 63.5937 31.7968 63.5937Z" fill="url(#paint2_radial_0_10)"/>
<path id="Vector_5" d="M31.7968 63.5937C49.3577 63.5937 63.5937 49.3577 63.5937 31.7968C63.5937 14.2359 49.3577 0 31.7968 0C14.2359 0 0 14.2359 0 31.7968C0 49.3577 14.2359 63.5937 31.7968 63.5937Z" fill="url(#paint3_radial_0_10)"/>
<path id="Vector_6" d="M45.5243 38.3197C45.2619 38.3197 45.0309 38.5413 44.7906 39.0252C42.0768 44.5281 37.3897 48.4217 31.9656 48.4217C25.694 48.4217 21.8101 42.7602 21.8101 34.9388C21.8101 21.6901 29.1919 14.03 35.6756 14.03C38.7054 14.03 40.5556 15.934 40.5556 18.9639C40.5556 22.5599 38.5126 24.4639 38.5126 25.7321C38.5126 26.3014 38.8667 26.6461 39.5689 26.6461C42.3901 26.6461 45.7013 23.4044 45.7013 18.8247C45.7013 14.3842 41.8365 11.1203 35.353 11.1203C24.6376 11.1203 15.1146 21.0544 15.1146 34.7996C15.1146 45.4392 21.1902 52.4699 30.5646 52.4699C40.5144 52.4699 46.2677 42.5704 46.2677 39.3573C46.2677 38.6457 45.9038 38.3197 45.5243 38.3197Z" fill="var(--fill-0, white)"/>
</g>
<defs>
<radialGradient id="paint0_radial_0_10" cx="0" cy="0" r="1" gradientUnits="userSpaceOnUse" gradientTransform="translate(12.2839 56.3644) rotate(-49.416) scale(49.1843)">
<stop stop-color="#6420FF"/>
<stop offset="1" stop-color="#6420FF" stop-opacity="0"/>
</radialGradient>
<radialGradient id="paint1_radial_0_10" cx="0" cy="0" r="1" gradientUnits="userSpaceOnUse" gradientTransform="translate(16.8355 7.22946) rotate(54.703) scale(55.4644)">
<stop stop-color="#00C4CC"/>
<stop offset="1" stop-color="#00C4CC" stop-opacity="0"/>
</radialGradient>
<radialGradient id="paint2_radial_0_10" cx="0" cy="0" r="1" gradientUnits="userSpaceOnUse" gradientTransform="translate(12.2836 56.3641) rotate(-45.1954) scale(48.5889 22.3467)">
<stop stop-color="#6420FF"/>
<stop offset="1" stop-color="#6420FF" stop-opacity="0"/>
</radialGradient>
<radialGradient id="paint3_radial_0_10" cx="0" cy="0" r="1" gradientUnits="userSpaceOnUse" gradientTransform="translate(26.0065 8.56841) rotate(66.5198) scale(50.0669 83.8733)">
<stop stop-color="#00C4CC" stop-opacity="0.725916"/>
<stop offset="0.0001" stop-color="#00C4CC"/>
<stop offset="1" stop-color="#00C4CC" stop-opacity="0"/>
</radialGradient>
</defs>
</svg>
