<svg preserveAspectRatio="none" width="100%" height="100%" overflow="visible" style="display: block;" viewBox="0 0 56.2795 63.7968" fill="none" xmlns="http://www.w3.org/2000/svg">
<g id="Group 7">
<path id="Vector" d="M28.1403 63.7968C27.2664 63.7968 26.4506 63.5624 25.6932 63.152L17.9445 58.5217C16.7794 57.8772 17.3619 57.6428 17.7115 57.5256C19.2847 56.998 19.5758 56.8807 21.2071 55.9431C21.3819 55.8258 21.6151 55.8843 21.7899 56.0015L27.7326 59.5769C27.9655 59.6941 28.2567 59.6941 28.4314 59.5769L51.6783 46.0379C51.9097 45.9207 52.0285 45.6863 52.0285 45.3934V18.3742C52.0285 18.081 51.9097 17.8466 51.6783 17.7294L28.4314 4.24915C28.1985 4.13193 27.907 4.13193 27.7326 4.24915L4.48633 17.7294C4.25307 17.8466 4.13674 18.1398 4.13674 18.3742V45.3934C4.13674 45.6278 4.25307 45.9207 4.48633 46.0379L10.8367 49.7302C14.2741 51.4887 16.4298 49.4374 16.4298 47.386V20.7184C16.4298 20.3668 16.7209 20.0152 17.129 20.0152H20.1002C20.4497 20.0152 20.7993 20.3083 20.7993 20.7184V47.386C20.7993 52.016 18.2941 54.7122 13.9245 54.7122C12.5847 54.7122 11.5359 54.7122 8.56443 53.2469L2.44697 49.7302C0.932302 48.8513 0.000183105 47.21 0.000183105 45.4519V18.4326C0.000183105 16.6745 0.932302 15.0335 2.44697 14.1543L25.6932 0.615589C27.1497 -0.205196 29.1306 -0.205196 30.5871 0.615589L53.8343 14.1543C55.3477 15.0335 56.2795 16.6745 56.2795 18.4326V45.4519C56.2795 47.21 55.3477 48.8513 53.8343 49.7302L30.5871 63.2692C29.8879 63.5624 29.0143 63.7968 28.1403 63.7968Z" fill="var(--fill-0, #5FA04E)"/>
<path id="Vector_2" d="M35.3966 45.308C25.2489 45.308 23.1619 40.5856 23.1619 36.5715C23.1619 36.2173 23.4516 35.8631 23.8574 35.8631H26.8723C27.2202 35.8631 27.5102 36.0992 27.5102 36.4534C27.9739 39.582 29.3076 41.1166 35.4541 41.1166C40.324 41.1166 42.412 39.9953 42.412 37.339C42.412 35.804 41.8301 34.6823 34.2356 33.9151C27.916 33.2657 23.9735 31.849 23.9735 26.7133C23.9735 21.932 27.916 19.0984 34.5256 19.0984C41.9483 19.0984 45.5999 21.6959 46.0636 27.3627C46.0636 27.5397 46.006 27.7169 45.8909 27.8938C45.7727 28.0119 45.5999 28.1302 45.4242 28.1302H42.3514C42.0635 28.1302 41.7725 27.8938 41.715 27.5988C41.018 24.3522 39.2209 23.2895 34.4678 23.2895C29.1336 23.2895 28.4957 25.1786 28.4957 26.5952C28.4957 28.3072 29.2494 28.8386 36.439 29.783C43.5696 30.7274 46.9333 32.0851 46.9333 37.1617C46.9333 42.3563 42.6998 45.308 35.3966 45.308Z" fill="var(--fill-0, #5FA04E)"/>
</g>
</svg>
