<svg preserveAspectRatio="none" width="100%" height="100%" overflow="visible" style="display: block;" viewBox="0 0 73.346 43.8857" fill="none" xmlns="http://www.w3.org/2000/svg">
<path id="Vector" d="M18.3365 14.6286C20.7814 4.87619 26.8935 0 36.673 0C51.3422 0 53.1759 10.9714 60.5105 12.8C65.4002 14.019 69.6787 12.1905 73.346 7.31428C70.9012 17.0667 64.789 21.9429 55.0095 21.9429C40.3403 21.9429 38.5067 10.9714 31.1721 9.14286C26.2823 7.92381 22.0038 9.75238 18.3365 14.6286ZM0 36.5714C2.44487 26.819 8.55704 21.9429 18.3365 21.9429C33.0057 21.9429 34.8394 32.9143 42.174 34.7429C47.0637 35.9619 51.3422 34.1333 55.0095 29.2571C52.5647 39.0095 46.4525 43.8857 36.673 43.8857C22.0038 43.8857 20.1702 32.9143 12.8356 31.0857C7.94582 29.8667 3.6673 31.6952 0 36.5714Z" fill="var(--fill-0, #44A8B3)"/>
</svg>
