<svg preserveAspectRatio="none" width="100%" height="100%" overflow="visible" style="display: block;" viewBox="0 0 42.5312 63.797" fill="none" xmlns="http://www.w3.org/2000/svg">
<g id="Group 16">
<path id="Vector" fill-rule="evenodd" clip-rule="evenodd" d="M21.2656 31.8984C21.2656 26.0262 26.0262 21.2656 31.8984 21.2656C37.7707 21.2656 42.5312 26.0262 42.5312 31.8984C42.5312 37.7707 37.7707 42.5312 31.8984 42.5312C26.0262 42.5312 21.2656 37.7707 21.2656 31.8984Z" fill="var(--fill-0, #1ABCFE)"/>
<path id="Vector_2" fill-rule="evenodd" clip-rule="evenodd" d="M0 53.1641C0 47.2918 4.76047 42.5312 10.6328 42.5312H21.2656V53.1641C21.2656 59.0363 16.505 63.7969 10.6328 63.7969C4.76047 63.7969 0 59.0363 0 53.1641Z" fill="var(--fill-0, #0ACF83)"/>
<path id="Vector_3" fill-rule="evenodd" clip-rule="evenodd" d="M21.2656 0V21.2656H31.8984C37.7707 21.2656 42.5312 16.505 42.5312 10.6328C42.5312 4.76047 37.7707 0 31.8984 0H21.2656Z" fill="var(--fill-0, #FF7262)"/>
<path id="Vector_4" fill-rule="evenodd" clip-rule="evenodd" d="M1.2207e-05 10.6328C1.2207e-05 16.505 4.76048 21.2656 10.6328 21.2656H21.2656V0H10.6328C4.76048 0 1.2207e-05 4.76047 1.2207e-05 10.6328Z" fill="var(--fill-0, #F24E1E)"/>
<path id="Vector_5" fill-rule="evenodd" clip-rule="evenodd" d="M0 31.8984C0 37.7707 4.76047 42.5312 10.6328 42.5312H21.2656V21.2656H10.6328C4.76047 21.2656 0 26.0262 0 31.8984Z" fill="var(--fill-0, #A259FF)"/>
</g>
</svg>
