<svg preserveAspectRatio="none" width="100%" height="100%" overflow="visible" style="display: block;" viewBox="0 0 39.371 29.4444" fill="none" xmlns="http://www.w3.org/2000/svg">
<g id="Ps">
<path id="Vector" d="M0 28.5179V0.463677C0 0.272832 0.0817908 0.163776 0.272636 0.163776C0.736117 0.163776 1.17233 0.163777 1.7994 0.136513C2.45372 0.10925 3.13531 0.10925 3.87143 0.0819859C4.60755 0.0547223 5.39819 0.0547221 6.24337 0.0274585C7.08854 0.000194896 7.90644 0.000195312 8.72435 0.000195312C10.96 0.000195312 12.8139 0.272831 14.3407 0.845366C15.7038 1.30885 16.958 2.07223 17.994 3.08098C18.8664 3.95342 19.548 5.0167 19.9842 6.18903C20.3932 7.3341 20.6113 8.50644 20.6113 9.7333C20.6113 12.078 20.066 14.0137 18.9755 15.5404C17.8849 17.0672 16.3582 18.2123 14.586 18.8666C12.7321 19.5482 10.6873 19.7936 8.45172 19.7936C7.79739 19.7936 7.36117 19.7936 7.08854 19.7663C6.8159 19.739 6.43421 19.739 5.9162 19.739V28.4907C5.94346 28.6815 5.80715 28.8451 5.6163 28.8723C5.58904 28.8723 5.56177 28.8723 5.50725 28.8723H0.327163C0.109055 28.8723 0 28.7633 0 28.5179ZM5.94347 5.42565V14.5862C6.32516 14.6135 6.67958 14.6407 7.00675 14.6407H8.45172C9.515 14.6407 10.5783 14.4772 11.587 14.15C12.4595 13.9046 13.2228 13.3866 13.8226 12.705C14.3952 12.0234 14.6678 11.0965 14.6678 9.89688C14.6951 9.05171 14.477 8.20654 14.0408 7.47042C13.5773 6.76157 12.9229 6.2163 12.1323 5.9164C11.1235 5.50744 10.033 5.34386 8.9152 5.37112C8.20634 5.37112 7.57928 5.37113 7.06127 5.39839C6.516 5.37113 6.13431 5.39839 5.94347 5.42565Z" fill="var(--fill-0, #31A8FF)"/>
<path id="Vector_2" d="M37.6238 12.9227C36.8058 12.4865 35.9334 12.1866 35.0064 11.9957C33.9977 11.7776 32.9889 11.6413 31.9529 11.6413C31.4077 11.6141 30.8351 11.6958 30.3171 11.8322C29.9627 11.914 29.6628 12.1048 29.4719 12.3774C29.3356 12.5955 29.2538 12.8682 29.2538 13.1136C29.2538 13.3589 29.3629 13.6043 29.5265 13.8224C29.7718 14.1223 30.099 14.3677 30.4534 14.5585C31.0805 14.8857 31.7348 15.1856 32.3891 15.4582C33.8614 15.949 35.2791 16.6306 36.5877 17.4485C37.4874 18.021 38.2236 18.7844 38.7416 19.7113C39.1778 20.5838 39.3959 21.538 39.3686 22.5195C39.3959 23.8009 39.0142 25.0823 38.3053 26.1455C37.542 27.2361 36.4787 28.0813 35.2518 28.572C33.9159 29.1445 32.2801 29.4444 30.3171 29.4444C29.063 29.4444 27.8361 29.3354 26.6093 29.09C25.655 28.9264 24.7008 28.6265 23.8284 28.2176C23.6375 28.1085 23.5012 27.9177 23.5285 27.6996V22.9557C23.5285 22.8739 23.5557 22.7649 23.6375 22.7103C23.7193 22.6558 23.8011 22.6831 23.8829 22.7376C24.9462 23.3647 26.064 23.8009 27.2636 24.0735C28.2996 24.3462 29.3901 24.4825 30.4807 24.4825C31.5167 24.4825 32.2528 24.3462 32.7436 24.1008C33.1798 23.9099 33.4797 23.4465 33.4797 22.9557C33.4797 22.574 33.2616 22.2196 32.8254 21.8652C32.3891 21.5107 31.4894 21.1018 30.1535 20.5838C28.7631 20.093 27.4817 19.4387 26.2821 18.6208C25.4369 18.021 24.7281 17.2304 24.2101 16.3034C23.7738 15.431 23.5557 14.4767 23.583 13.5225C23.583 12.3502 23.9102 11.2324 24.51 10.2236C25.1916 9.13307 26.2003 8.26063 27.3726 7.71536C28.654 7.06103 30.2626 6.76113 32.1983 6.76113C33.3161 6.76113 34.4612 6.84292 35.579 7.0065C36.3969 7.11556 37.1875 7.33367 37.9237 7.63357C38.0327 7.66083 38.1418 7.76989 38.1963 7.87894C38.2236 7.98799 38.2508 8.09705 38.2508 8.2061V12.6501C38.2508 12.7591 38.1963 12.8682 38.1145 12.9227C37.8691 12.9772 37.7328 12.9772 37.6238 12.9227Z" fill="var(--fill-0, #31A8FF)"/>
</g>
</svg>
