<svg preserveAspectRatio="xMidYMid meet" width="100%" height="100%" overflow="visible" style="display: block;" viewBox="0 0 13.9825 10.9778" fill="none" xmlns="http://www.w3.org/2000/svg">
<path id="Vector" d="M13.815 6.99595V6.9897C13.8139 6.985 13.8124 6.98041 13.8106 6.97595C13.7691 6.86276 13.7209 6.75214 13.6662 6.6447L11.0681 0.739698C11.0431 0.682821 11.0077 0.631104 10.9637 0.587198C10.778 0.401432 10.5575 0.254073 10.3148 0.153535C10.0722 0.0529967 9.81205 0.00125003 9.54937 0.00125003C9.28668 0.00125003 9.02657 0.0529967 8.78389 0.153535C8.54121 0.254073 8.32071 0.401432 8.13499 0.587198C8.04155 0.68074 7.98897 0.807483 7.98874 0.939698V2.5022H5.98874V0.939698C5.98879 0.874018 5.9759 0.808971 5.95081 0.748273C5.92571 0.687576 5.88891 0.632417 5.84249 0.585948C5.65677 0.400182 5.43627 0.252823 5.19359 0.152285C4.95091 0.0517467 4.6908 0 4.42812 0C4.16543 0 3.90532 0.0517467 3.66264 0.152285C3.41996 0.252823 3.19946 0.400182 3.01374 0.585948C2.96978 0.629854 2.93438 0.681571 2.90937 0.738448L0.31374 6.6447C0.259066 6.75214 0.210855 6.86276 0.169365 6.97595C0.167627 6.98022 0.166165 6.98461 0.16499 6.98907C0.16499 6.98907 0.16499 6.99407 0.16499 6.99595C-0.0931415 7.74179 -0.0469593 8.55932 0.293528 9.27134C0.634016 9.98337 1.24138 10.5325 1.98399 10.7998C2.7266 11.0671 3.54463 11.031 4.26079 10.6993C4.97696 10.3676 5.53357 9.76709 5.80999 9.02782C5.9317 8.69576 5.99308 8.34461 5.99124 7.99095V3.5022H7.99124V7.99157C7.9894 8.34524 8.05078 8.69638 8.17249 9.02845C8.44891 9.76771 9.00552 10.3683 9.72169 10.7C10.4379 11.0317 11.2559 11.0678 11.9985 10.8005C12.7411 10.5332 13.3485 9.984 13.689 9.27197C14.0294 8.55994 14.0756 7.74242 13.8175 6.99657L13.815 6.99595ZM4.86812 8.68345C4.68348 9.1761 4.31216 9.57616 3.83461 9.79695C3.35706 10.0177 2.81175 10.0414 2.31683 9.86296C1.82191 9.68448 1.41726 9.31817 1.19054 8.84341C0.963826 8.36865 0.933313 7.82368 1.10562 7.32657L1.21874 7.06845C1.42666 6.67322 1.76087 6.35896 2.16813 6.17572C2.57539 5.99249 3.03225 5.95083 3.46593 6.05738C3.89962 6.16393 4.28516 6.41256 4.56114 6.76366C4.83711 7.11476 4.98764 7.54812 4.98874 7.9947V8.0022C4.9887 8.2354 4.94788 8.46681 4.86812 8.68595V8.68345ZM11.6762 9.88157C11.3739 9.99224 11.0494 10.0283 10.7301 9.98666C10.4109 9.94503 10.1064 9.82695 9.84258 9.64245C9.57875 9.45796 9.36336 9.2125 9.21471 8.92693C9.06606 8.64137 8.98854 8.32414 8.98874 8.0022V7.99532C8.99039 7.54896 9.14132 7.11598 9.41749 6.7653C9.69367 6.41463 10.0792 6.16642 10.5128 6.06019C10.9463 5.95396 11.4029 5.99582 11.8099 6.1791C12.2169 6.36237 12.5509 6.67654 12.7587 7.07157L12.8719 7.3297C13.0497 7.82675 13.0238 8.37394 12.7998 8.85198C12.5759 9.33002 12.172 9.70011 11.6762 9.88157Z" fill="var(--fill-0, white)"/>
</svg>
