<svg preserveAspectRatio="xMidYMid meet" width="100%" height="100%" overflow="visible" style="display: block;" viewBox="0 0 13.9992 14.001" fill="none" xmlns="http://www.w3.org/2000/svg">
<path id="Vector" d="M4.53512 1.18808C4.48539 1.06492 4.48662 0.927049 4.53855 0.804799C4.59047 0.682548 4.68883 0.585932 4.81199 0.536204C4.93515 0.486476 5.07302 0.487709 5.19527 0.539634C5.31752 0.591558 5.41414 0.689919 5.46387 0.813079L5.96387 2.06308C5.98849 2.12406 6.00086 2.1893 6.00027 2.25506C5.99968 2.32082 5.98615 2.38583 5.96044 2.44636C5.93473 2.50689 5.89735 2.56177 5.85043 2.60785C5.80351 2.65394 5.74798 2.69033 5.68699 2.71495C5.62601 2.73958 5.56077 2.75195 5.49501 2.75136C5.42925 2.75077 5.36424 2.73723 5.30371 2.71152C5.24318 2.68581 5.1883 2.64843 5.14222 2.60151C5.09613 2.5546 5.05974 2.49906 5.03512 2.43808L4.53512 1.18808ZM0.811993 5.46495L2.06199 5.96495C2.12297 5.98958 2.18821 6.00195 2.25397 6.00136C2.31974 6.00077 2.38474 5.98723 2.44527 5.96152C2.5058 5.93581 2.56068 5.89843 2.60677 5.85151C2.65285 5.8046 2.68924 5.74906 2.71387 5.68808C2.73849 5.6271 2.75086 5.56186 2.75027 5.4961C2.74968 5.43033 2.73615 5.36533 2.71044 5.3048C2.68473 5.24427 2.64735 5.18939 2.60043 5.14331C2.55351 5.09722 2.49797 5.06083 2.43699 5.0362L1.18699 4.5362C1.06383 4.48648 0.925963 4.48771 0.803712 4.53963C0.681462 4.59156 0.584846 4.68992 0.535118 4.81308C0.485389 4.93624 0.486623 5.07411 0.538547 5.19636C0.590471 5.31861 0.688833 5.41523 0.811993 5.46495ZM13.187 8.5362L11.937 8.0362C11.8138 7.98648 11.676 7.98771 11.5537 8.03963C11.4315 8.09156 11.3348 8.18992 11.2851 8.31308C11.2354 8.43624 11.2366 8.57411 11.2885 8.69636C11.3405 8.81861 11.4388 8.91523 11.562 8.96495L12.812 9.46495C12.9352 9.51468 13.073 9.51345 13.1953 9.46152C13.3175 9.4096 13.4141 9.31124 13.4639 9.18808C13.5136 9.06492 13.5124 8.92705 13.4604 8.8048C13.4085 8.68255 13.3102 8.58593 13.187 8.5362ZM8.96387 11.5631C8.91414 11.4399 8.81752 11.3416 8.69527 11.2896C8.57302 11.2377 8.43515 11.2365 8.31199 11.2862C8.18883 11.3359 8.09047 11.4325 8.03855 11.5548C7.98662 11.677 7.98539 11.8149 8.03512 11.9381L8.53512 13.1881C8.58485 13.3112 8.68146 13.4096 8.80371 13.4615C8.92596 13.5134 9.06383 13.5147 9.18699 13.465C9.31015 13.4152 9.40851 13.3186 9.46044 13.1964C9.51236 13.0741 9.5136 12.9362 9.46387 12.8131L8.96387 11.5631ZM13.8689 0.158079C13.823 0.109143 13.7678 0.0699352 13.7064 0.0427884C13.6451 0.0156416 13.5789 0.00111089 13.5119 6.1241e-05C13.4448 -0.000988406 13.3782 0.0114645 13.3161 0.0366786C13.2539 0.0618927 13.1975 0.0993526 13.1501 0.146829L9.87449 3.42245L9.53824 3.0862C9.3525 2.90025 9.13192 2.75273 8.88912 2.65208C8.64633 2.55144 8.38607 2.49963 8.12324 2.49963C7.86041 2.49963 7.60016 2.55144 7.35736 2.65208C7.11457 2.75273 6.89399 2.90025 6.70824 3.0862L5.63324 4.15933C5.61 4.18255 5.59156 4.21012 5.57898 4.24047C5.5664 4.27082 5.55992 4.30335 5.55992 4.3362C5.55992 4.36906 5.5664 4.40159 5.57898 4.43194C5.59156 4.46229 5.61 4.48986 5.63324 4.51308L9.48949 8.36683C9.51271 8.39007 9.54028 8.40851 9.57063 8.42109C9.60098 8.43368 9.63351 8.44015 9.66637 8.44015C9.69922 8.44015 9.73175 8.43368 9.7621 8.42109C9.79245 8.40851 9.82002 8.39007 9.84324 8.36683L10.8895 7.32058C11.2687 6.94869 11.4885 6.44401 11.5026 5.91308C11.5078 5.64467 11.4586 5.37799 11.3579 5.12911C11.2573 4.88023 11.1073 4.65431 10.917 4.46495L10.5807 4.12933L13.8432 0.868704C13.9383 0.77642 13.9941 0.650964 13.9989 0.518541C14.0036 0.386118 13.9571 0.256972 13.8689 0.158079ZM4.35199 4.64683C4.30463 4.59945 4.24823 4.56207 4.18614 4.53691C4.12405 4.51176 4.05753 4.49933 3.99055 4.50038C3.92356 4.50143 3.85747 4.51593 3.7962 4.54302C3.73493 4.57011 3.67972 4.60924 3.63387 4.65808C3.54567 4.75697 3.4991 4.88612 3.50387 5.01854C3.50865 5.15096 3.5644 5.27642 3.65949 5.3687L4.04137 5.75058L3.08324 6.70745C2.89336 6.89689 2.74375 7.12279 2.64343 7.37155C2.54312 7.6203 2.49415 7.88678 2.49949 8.15495C2.51269 8.68576 2.73164 9.19067 3.11012 9.56308L3.42262 9.87183L0.155117 13.1337C0.0629239 13.2235 0.00783527 13.3446 0.000773649 13.4731C-0.00628797 13.6016 0.035193 13.7281 0.116992 13.8275C0.161914 13.8796 0.217107 13.9218 0.279118 13.9517C0.341129 13.9815 0.408625 13.9981 0.47738 14.0007C0.546136 14.0032 0.614673 13.9915 0.678702 13.9663C0.74273 13.9411 0.800873 13.903 0.849493 13.8543L4.12449 10.5787L4.46012 10.915C4.83609 11.2892 5.34496 11.4993 5.87543 11.4993C6.4059 11.4993 6.91477 11.2892 7.29074 10.915L8.24949 9.95745L8.64574 10.3543C8.6922 10.4008 8.74735 10.4376 8.80804 10.4628C8.86874 10.4879 8.9338 10.5009 8.99949 10.5009C9.06519 10.5009 9.13024 10.4879 9.19094 10.4628C9.25164 10.4376 9.30679 10.4008 9.35324 10.3543C9.3997 10.3079 9.43655 10.2527 9.46169 10.192C9.48683 10.1313 9.49977 10.0663 9.49977 10.0006C9.49977 9.93488 9.48683 9.86983 9.46169 9.80913C9.43655 9.74843 9.3997 9.69328 9.35324 9.64683L4.35199 4.64683Z" fill="var(--fill-0, white)"/>
</svg>
