<svg preserveAspectRatio="xMidYMid meet" width="100%" height="100%" overflow="visible" style="display: block;" viewBox="0 0 13 11" fill="none" xmlns="http://www.w3.org/2000/svg">
<path id="Vector" d="M12 0H3C2.73478 0 2.48043 0.105357 2.29289 0.292893C2.10536 0.48043 2 0.734784 2 1V2H1C0.734784 2 0.48043 2.10536 0.292893 2.29289C0.105357 2.48043 0 2.73478 0 3V10C0 10.2652 0.105357 10.5196 0.292893 10.7071C0.48043 10.8946 0.734784 11 1 11H10C10.2652 11 10.5196 10.8946 10.7071 10.7071C10.8946 10.5196 11 10.2652 11 10V9H12C12.2652 9 12.5196 8.89464 12.7071 8.70711C12.8946 8.51957 13 8.26522 13 8V1C13 0.734784 12.8946 0.48043 12.7071 0.292893C12.5196 0.105357 12.2652 0 12 0ZM10 3V4H1V3H10ZM12 8H11V3C11 2.73478 10.8946 2.48043 10.7071 2.29289C10.5196 2.10536 10.2652 2 10 2H3V1H12V8Z" fill="var(--fill-0, white)"/>
</svg>
