<svg preserveAspectRatio="xMidYMid meet" width="100%" height="100%" overflow="visible" style="display: block;" viewBox="0 0 12.4992 12.4992" fill="none" xmlns="http://www.w3.org/2000/svg">
<path id="Vector" d="M4.86501 9.94672C4.58313 10.563 3.64251 12.0005 0.999384 12.0005C0.866776 12.0005 0.739599 11.9478 0.645831 11.854C0.552062 11.7603 0.499384 11.6331 0.499384 11.5005C0.499384 8.85734 1.93688 7.91672 2.55313 7.63484C2.61289 7.60759 2.67742 7.59238 2.74305 7.59007C2.80868 7.58776 2.87412 7.5984 2.93564 7.62138C2.99716 7.64436 3.05355 7.67924 3.10159 7.72401C3.14963 7.76879 3.18838 7.82259 3.21563 7.88234C3.24288 7.94209 3.2581 8.00663 3.26041 8.07226C3.26272 8.13789 3.25207 8.20333 3.22909 8.26485C3.20611 8.32637 3.17124 8.38276 3.12646 8.4308C3.08168 8.47884 3.02789 8.51759 2.96813 8.54484C2.56626 8.72797 1.67938 9.31734 1.52313 10.9767C3.18251 10.8205 3.77313 9.93359 3.95501 9.53172C3.98226 9.47196 4.02101 9.41816 4.06905 9.37339C4.11709 9.32861 4.17348 9.29374 4.235 9.27076C4.29652 9.24777 4.36196 9.23713 4.42759 9.23944C4.49322 9.24175 4.55776 9.25697 4.61751 9.28421C4.67726 9.31146 4.73106 9.35022 4.77584 9.39826C4.82061 9.4463 4.85548 9.50269 4.87847 9.56421C4.90145 9.62572 4.91209 9.69117 4.90978 9.7568C4.90747 9.82243 4.89226 9.88696 4.86501 9.94672ZM12.49 0.946715C12.4752 0.702919 12.3717 0.472975 12.199 0.300267C12.0262 0.127559 11.7963 0.0240309 11.5525 0.00921528C10.7663 -0.0376597 8.75688 0.0342152 7.09001 1.70109L3.99938 4.79422C3.95297 4.84071 3.89785 4.87761 3.83718 4.90281C3.7765 4.928 3.71146 4.941 3.64576 4.94106C3.51308 4.94117 3.38579 4.88858 3.29188 4.79484C3.19798 4.7011 3.14516 4.5739 3.14504 4.44122C3.14493 4.30854 3.19752 4.18124 3.29126 4.08734L4.95126 2.42672C4.98601 2.39176 5.00965 2.34731 5.01921 2.29895C5.02877 2.25059 5.02382 2.20049 5.00499 2.15493C4.98615 2.10938 4.95427 2.07042 4.91335 2.04293C4.87243 2.01545 4.8243 2.00067 4.77501 2.00047H3.14626C3.01453 1.99977 2.88398 2.02527 2.7622 2.07549C2.64042 2.1257 2.52984 2.19963 2.43688 2.29297L0.293134 4.43797C0.161664 4.56935 0.0694103 4.73477 0.0267268 4.91566C-0.0159568 5.09656 -0.00738104 5.28577 0.0514915 5.46206C0.110364 5.63836 0.217204 5.79475 0.360019 5.9137C0.502835 6.03265 0.675976 6.10945 0.860009 6.13547L3.26438 6.47109L6.02751 9.23422L6.36313 11.6398C6.38894 11.8239 6.46572 11.997 6.58478 12.1397C6.70384 12.2824 6.86044 12.389 7.03688 12.4473C7.13965 12.4817 7.24728 12.4992 7.35563 12.4992C7.48683 12.4995 7.61678 12.4737 7.73799 12.4235C7.8592 12.3733 7.96928 12.2997 8.06188 12.2067L10.2069 10.063C10.2999 9.9698 10.3737 9.85918 10.4239 9.73745C10.4741 9.61571 10.4997 9.48527 10.4994 9.35359V7.72484C10.4993 7.67542 10.4846 7.62713 10.4571 7.58608C10.4295 7.54503 10.3905 7.51305 10.3448 7.49419C10.2991 7.47533 10.2489 7.47043 10.2004 7.48011C10.1519 7.4898 10.1074 7.51363 10.0725 7.54859L8.41188 9.20859C8.36332 9.25721 8.30525 9.29529 8.2413 9.32047C8.17735 9.34564 8.10891 9.35736 8.04023 9.3549C7.97155 9.35243 7.90412 9.33584 7.84214 9.30615C7.78016 9.27646 7.72497 9.23431 7.68001 9.18234C7.59799 9.08313 7.55631 8.95668 7.56326 8.82814C7.57021 8.6996 7.62528 8.57839 7.71751 8.48859L10.7969 5.40922C12.465 3.74172 12.5369 1.73234 12.49 0.945465V0.946715Z" fill="var(--fill-0, white)"/>
</svg>
