<svg preserveAspectRatio="xMidYMid meet" width="100%" height="100%" overflow="visible" style="display: block;" viewBox="0 0 32.5313 32.5313" fill="none" xmlns="http://www.w3.org/2000/svg">
<path id="Vector" d="M30.9402 9.24926C32.6747 12.8771 33.004 17.0188 31.8645 20.8751C30.7249 24.7315 28.1973 28.029 24.7694 30.1313C21.3416 32.2336 17.2565 32.9916 13.3026 32.2591C9.34873 31.5266 5.80633 29.3554 3.3591 26.1647C0.911861 22.9739 -0.266719 18.9898 0.0508219 14.9812C0.368362 10.9726 2.15951 7.22366 5.07858 4.45801C7.99765 1.69235 11.8377 0.106001 15.8576 0.00512367C19.5682 -0.0879905 23.1891 1.09063 26.1264 3.32973C26.5419 3.64648 27.1316 3.62644 27.501 3.25692L30.3886 0.368005C30.6231 0.133454 30.9413 0.00168478 31.273 0.00168478C31.6047 0.00168478 31.9228 0.133454 32.1573 0.368005C32.3919 0.602556 32.5237 0.920675 32.5237 1.25238C32.5237 1.58408 32.3919 1.9022 32.1573 2.13675L17.1573 17.1368C16.9228 17.3713 16.6047 17.5031 16.273 17.5031C15.9413 17.5031 15.6231 17.3713 15.3886 17.1368C15.154 16.9022 15.0223 16.5841 15.0223 16.2524C15.0223 15.9207 15.154 15.6026 15.3886 15.368L18.8541 11.9025C19.3013 11.4553 19.2246 10.7049 18.6391 10.4653C17.7276 10.0924 16.7351 9.93782 15.7423 10.0223C14.34 10.1416 13.0191 10.7307 11.9933 11.6941C10.9675 12.6576 10.2969 13.9391 10.09 15.3311C9.88316 16.7231 10.1522 18.1442 10.8535 19.3644C11.5548 20.5845 12.6473 21.5322 13.9543 22.0541C15.2613 22.576 16.7061 22.6416 18.055 22.2401C19.4038 21.8387 20.5777 20.9938 21.3866 19.8421C22.1955 18.6905 22.592 17.2996 22.512 15.8946C22.5028 15.7304 22.526 15.5661 22.5803 15.4109C22.6346 15.2557 22.7189 15.1127 22.8284 14.9901C22.938 14.8675 23.0706 14.7677 23.2187 14.6963C23.3668 14.625 23.5276 14.5835 23.6917 14.5743C24.0232 14.5556 24.3486 14.6694 24.5962 14.8907C24.7188 15.0002 24.8186 15.1328 24.89 15.2809C24.9613 15.4291 25.0028 15.5898 25.012 15.7539C25.126 17.7427 24.558 19.7107 23.4019 21.3329C22.2457 22.955 20.5707 24.1342 18.6537 24.6754C16.7366 25.2166 14.6923 25.0875 12.8586 24.3094C11.0248 23.5313 9.51148 22.1509 8.56862 20.3962C7.62575 18.6415 7.30983 16.6176 7.67306 14.659C8.03629 12.7004 9.05694 10.9244 10.5663 9.62445C12.0757 8.32453 13.9834 7.57853 15.9742 7.50974C17.6754 7.45096 19.3502 7.8897 20.7971 8.7628C21.2226 9.01961 21.776 8.98531 22.1274 8.63385L24.2941 6.46716C24.7104 6.05085 24.6802 5.36379 24.1987 5.02505C21.746 3.29968 18.7859 2.41865 15.7693 2.535C12.386 2.66549 9.17018 4.04138 6.73951 6.39842C4.30884 8.75546 2.8347 11.9274 2.60022 15.3051C2.36575 18.6828 3.38747 22.0281 5.46915 24.6983C7.55084 27.3686 10.5457 29.1757 13.8785 29.7724C17.2113 30.3691 20.6471 29.7134 23.526 27.9313C26.4048 26.1491 28.5238 23.3662 29.4758 20.117C30.4278 16.8677 30.1458 13.3813 28.6839 10.3274C28.5409 10.0282 28.5227 9.68445 28.6331 9.37179C28.7436 9.05913 28.9738 8.80316 29.273 8.66019C29.5722 8.51722 29.9159 8.49897 30.2286 8.60944C30.5412 8.71991 30.7972 8.95006 30.9402 9.24926Z" fill="var(--fill-0, white)" fill-opacity="0.6"/>
</svg>
