<svg preserveAspectRatio="xMidYMid meet" width="100%" height="100%" overflow="visible" style="display: block;" viewBox="0 0 13.0015 13.0007" fill="none" xmlns="http://www.w3.org/2000/svg">
<path id="Vector" d="M13.0015 4.49988C13.0022 5.24826 12.8163 5.98502 12.4606 6.64344C12.1048 7.30187 11.5905 7.86118 10.9641 8.27074C10.3377 8.6803 9.61912 8.92717 8.8733 8.989C8.12747 9.05084 7.378 8.92569 6.69273 8.62488L3.43898 12.3886C3.43148 12.3974 3.42273 12.4068 3.4146 12.4149C3.03949 12.79 2.53072 13.0007 2.00023 13.0007C1.46973 13.0007 0.960969 12.79 0.585853 12.4149C0.210738 12.0398 0 11.531 0 11.0005C0 10.47 0.210738 9.96124 0.585853 9.58613C0.594603 9.578 0.603353 9.56925 0.612728 9.56175L4.37648 6.30863C4.03927 5.53726 3.92498 4.68682 4.04657 3.85379C4.16816 3.02077 4.52077 2.23848 5.0644 1.59568C5.60802 0.952884 6.32091 0.475295 7.12219 0.217093C7.92347 -0.0411102 8.78108 -0.0695928 9.59773 0.134876C9.68191 0.155975 9.75916 0.198625 9.82186 0.258629C9.88456 0.318633 9.93057 0.393925 9.95535 0.4771C9.98013 0.560276 9.98284 0.648469 9.9632 0.733007C9.94357 0.817545 9.90226 0.895516 9.84335 0.959251L7.50148 3.49988L7.85523 5.14675L9.50148 5.49988L12.0421 3.15488C12.1058 3.09597 12.1838 3.05466 12.2683 3.03503C12.3529 3.01539 12.4411 3.01809 12.5243 3.04288C12.6074 3.06766 12.6827 3.11366 12.7427 3.17637C12.8027 3.23907 12.8454 3.31632 12.8665 3.4005C12.9562 3.76007 13.0015 4.12928 13.0015 4.49988Z" fill="var(--fill-0, white)"/>
</svg>
