<svg preserveAspectRatio="xMidYMid meet" width="100%" height="100%" overflow="visible" style="display: block;" viewBox="0 0 30 31.2501" fill="none" xmlns="http://www.w3.org/2000/svg">
<path id="Vector" d="M27.5 0H2.5C1.83696 0 1.20107 0.263392 0.732233 0.732233C0.263392 1.20107 0 1.83696 0 2.5V11.25C0 19.4875 3.9875 24.4797 7.33281 27.2172C10.9359 30.1641 14.5203 31.1641 14.6766 31.2063C14.8914 31.2647 15.118 31.2647 15.3328 31.2063C15.4891 31.1641 19.0688 30.1641 22.6766 27.2172C26.0125 24.4797 30 19.4875 30 11.25V2.5C30 1.83696 29.7366 1.20107 29.2678 0.732233C28.7989 0.263392 28.163 0 27.5 0ZM27.5 11.25C27.5 17.0422 25.3656 21.7437 21.1562 25.2219C19.414 26.6566 17.4442 27.7887 15.3292 28.5719C15.1168 28.6506 14.8832 28.6508 14.6706 28.5724C12.5848 27.8029 10.6408 26.6914 8.91875 25.2828C4.65938 21.7984 2.5 17.0781 2.5 11.25V3.5C2.5 2.94772 2.94772 2.5 3.5 2.5H26.5C27.0523 2.5 27.5 2.94772 27.5 3.5V11.25ZM7.86562 15.8844C7.63107 15.6498 7.49931 15.3317 7.49931 15C7.49931 14.6683 7.63107 14.3502 7.86562 14.1156C8.10018 13.8811 8.4183 13.7493 8.75 13.7493C9.0817 13.7493 9.39982 13.8811 9.63438 14.1156L11.7928 16.2752C12.1833 16.666 12.8167 16.666 13.2073 16.2754L20.3656 9.11562C20.4818 8.99949 20.6196 8.90736 20.7714 8.84451C20.9231 8.78165 21.0858 8.74931 21.25 8.74931C21.4142 8.74931 21.5769 8.78165 21.7286 8.84451C21.8804 8.90736 22.0182 8.99949 22.1344 9.11562C22.2505 9.23176 22.3426 9.36964 22.4055 9.52138C22.4683 9.67312 22.5007 9.83576 22.5007 10C22.5007 10.1642 22.4683 10.3269 22.4055 10.4786C22.3426 10.6304 22.2505 10.7682 22.1344 10.8844L13.3844 19.6344C13.2683 19.7506 13.1304 19.8428 12.9787 19.9057C12.8269 19.9686 12.6643 20.001 12.5 20.001C12.3357 20.001 12.1731 19.9686 12.0213 19.9057C11.8696 19.8428 11.7317 19.7506 11.6156 19.6344L7.86562 15.8844Z" fill="var(--fill-0, white)" fill-opacity="0.6"/>
</svg>
