<svg preserveAspectRatio="xMidYMid meet" width="100%" height="100%" overflow="visible" style="display: block;" viewBox="0 0 35 26.25" fill="none" xmlns="http://www.w3.org/2000/svg">
<path id="Vector" d="M33.75 18.75H33.5C32.9477 18.75 32.5 18.3023 32.5 17.75V3.75C32.5 2.75544 32.1049 1.80161 31.4017 1.09835C30.6984 0.395088 29.7446 0 28.75 0H6.25C5.25544 0 4.30161 0.395088 3.59835 1.09835C2.89509 1.80161 2.5 2.75544 2.5 3.75V17.75C2.5 18.3023 2.05228 18.75 1.5 18.75H1.25C0.918479 18.75 0.600537 18.8817 0.366116 19.1161C0.131696 19.3505 0 19.6685 0 20V22.5C0 23.4946 0.395088 24.4484 1.09835 25.1517C1.80161 25.8549 2.75544 26.25 3.75 26.25H31.25C32.2446 26.25 33.1984 25.8549 33.9017 25.1517C34.6049 24.4484 35 23.4946 35 22.5V20C35 19.6685 34.8683 19.3505 34.6339 19.1161C34.3995 18.8817 34.0815 18.75 33.75 18.75ZM5 3.75C5 3.41848 5.1317 3.10054 5.36612 2.86612C5.60054 2.6317 5.91848 2.5 6.25 2.5H28.75C29.0815 2.5 29.3995 2.6317 29.6339 2.86612C29.8683 3.10054 30 3.41848 30 3.75V17.75C30 18.3023 29.5523 18.75 29 18.75H6C5.44772 18.75 5 18.3023 5 17.75V3.75ZM32.5 22.5C32.5 22.8315 32.3683 23.1495 32.1339 23.3839C31.8995 23.6183 31.5815 23.75 31.25 23.75H3.75C3.41848 23.75 3.10054 23.6183 2.86612 23.3839C2.6317 23.1495 2.5 22.8315 2.5 22.5V22.25C2.5 21.6977 2.94772 21.25 3.5 21.25H31.5C32.0523 21.25 32.5 21.6977 32.5 22.25V22.5ZM21.25 6.25C21.25 6.58152 21.1183 6.89946 20.8839 7.13388C20.6495 7.3683 20.3315 7.5 20 7.5H15C14.6685 7.5 14.3505 7.3683 14.1161 7.13388C13.8817 6.89946 13.75 6.58152 13.75 6.25C13.75 5.91848 13.8817 5.60054 14.1161 5.36612C14.3505 5.1317 14.6685 5 15 5H20C20.3315 5 20.6495 5.1317 20.8839 5.36612C21.1183 5.60054 21.25 5.91848 21.25 6.25Z" fill="var(--fill-0, white)" fill-opacity="0.6"/>
</svg>
