<svg preserveAspectRatio="xMidYMid meet" width="100%" height="100%" overflow="visible" style="display: block;" viewBox="0 0 29.9983 35.0019" fill="none" xmlns="http://www.w3.org/2000/svg">
<path id="Vector" d="M18.7491 33.7519C18.7491 34.0835 18.6174 34.4014 18.383 34.6358C18.1486 34.8703 17.8307 35.0019 17.4991 35.0019H12.4991C12.1676 35.0019 11.8497 34.8703 11.6153 34.6358C11.3808 34.4014 11.2491 34.0835 11.2491 33.7519C11.2491 33.4204 11.3808 33.1025 11.6153 32.8681C11.8497 32.6336 12.1676 32.5019 12.4991 32.5019H17.4991C17.8307 32.5019 18.1486 32.6336 18.383 32.8681C18.6174 33.1025 18.7491 33.4204 18.7491 33.7519ZM14.9991 16.2519C15.37 16.2519 15.7325 16.142 16.0408 15.936C16.3492 15.7299 16.5895 15.4371 16.7314 15.0945C16.8733 14.7519 16.9105 14.3749 16.8381 14.0112C16.7658 13.6474 16.5872 13.3133 16.325 13.0511C16.0627 12.7889 15.7287 12.6103 15.3649 12.538C15.0012 12.4656 14.6242 12.5028 14.2816 12.6447C13.939 12.7866 13.6462 13.0269 13.4401 13.3353C13.2341 13.6436 13.1241 14.0061 13.1241 14.3769C13.1241 14.8742 13.3217 15.3511 13.6733 15.7028C14.0249 16.0544 14.5019 16.2519 14.9991 16.2519ZM29.9398 23.1004L28.0085 31.7926C27.9169 32.2053 27.7221 32.5881 27.4423 32.9051C27.1625 33.2221 26.8069 33.463 26.4087 33.6052C26.0105 33.7474 25.5828 33.7863 25.1655 33.7182C24.7482 33.6502 24.3549 33.4774 24.0226 33.216L20.0338 30.2039C19.8602 30.0729 19.6487 30.0019 19.4312 30.0019H10.57C10.3527 30.0019 10.1412 30.0728 9.9677 30.2037L5.97571 33.216C5.64334 33.4774 5.25012 33.6502 4.83282 33.7182C4.41552 33.7863 3.98777 33.7474 3.58958 33.6052C3.1914 33.463 2.83578 33.2221 2.55599 32.9051C2.27621 32.5881 2.08139 32.2053 1.98977 31.7926L0.0585187 23.1004C-0.023401 22.7274 -0.0192621 22.3406 0.070622 21.9694C0.160506 21.5982 0.333773 21.2524 0.577269 20.9582L4.83504 15.8507C4.9682 15.6909 5.04746 15.4936 5.06669 15.2865C5.23919 13.4292 5.68105 11.6064 6.37883 9.87539C8.39446 4.82226 12.0038 1.65195 13.4679 0.523824C13.9061 0.184267 14.4448 0 14.9991 0C15.5535 0 16.0922 0.184267 16.5304 0.523824C17.9898 1.65195 21.6038 4.82226 23.6195 9.87539C24.3172 11.6064 24.7591 13.4292 24.9316 15.2865C24.9508 15.4936 25.0301 15.6909 25.1633 15.8507L29.421 20.9582C29.6645 21.2524 29.8378 21.5982 29.9277 21.9694C30.0176 22.3406 30.0217 22.7274 29.9398 23.1004ZM10.2531 26.9893C10.4241 27.3075 10.7586 27.5019 11.1199 27.5019H18.8784C19.2397 27.5019 19.5742 27.3075 19.7451 26.9893C22.7969 21.309 23.3196 15.8685 21.2976 10.8019C19.7315 6.87604 16.9963 4.1805 15.5947 2.98619C15.2495 2.69207 14.7485 2.69171 14.4031 2.98558C12.9998 4.17958 10.2639 6.87537 8.69758 10.8019C6.67856 15.8685 7.20137 21.309 10.2531 26.9893ZM7.49984 28.9376C7.89674 28.6382 8.01169 28.0933 7.78386 27.6515C6.74552 25.6377 5.99582 23.6468 5.53476 21.679C5.33485 20.8257 4.20847 20.5066 3.64753 21.1799L2.81359 22.1808C2.61528 22.4188 2.53849 22.7353 2.60567 23.0378L4.42287 31.2181C4.42643 31.2341 4.44522 31.2412 4.45852 31.2316L7.49984 28.9376ZM27.3926 23.0378C27.4598 22.7353 27.383 22.4188 27.1847 22.1807L26.3524 21.1818C25.7912 20.5082 24.664 20.828 24.4643 21.6816C24.0046 23.6461 23.2563 25.6363 22.2193 27.6521C21.9921 28.0937 22.1072 28.6379 22.5036 28.9371L25.5398 31.2285C25.5531 31.2381 25.5719 31.231 25.5754 31.215L27.3926 23.0378Z" fill="var(--fill-0, white)" fill-opacity="0.6"/>
</svg>
