<svg preserveAspectRatio="xMidYMid meet" width="100%" height="100%" overflow="visible" style="display: block;" viewBox="0 0 33.7512 30" fill="none" xmlns="http://www.w3.org/2000/svg">
<path id="Vector" d="M2.50118 5C2.50118 4.66848 2.63288 4.35054 2.8673 4.11612C3.10172 3.8817 3.41966 3.75 3.75118 3.75H5.25118C5.80347 3.75 6.25118 3.30228 6.25118 2.75V1.25C6.25118 0.918479 6.38288 0.600537 6.6173 0.366117C6.85172 0.131696 7.16966 0 7.50118 0C7.83271 0 8.15065 0.131696 8.38507 0.366117C8.61949 0.600537 8.75118 0.918479 8.75118 1.25V2.75C8.75118 3.30228 9.1989 3.75 9.75118 3.75H11.2512C11.5827 3.75 11.9006 3.8817 12.1351 4.11612C12.3695 4.35054 12.5012 4.66848 12.5012 5C12.5012 5.33152 12.3695 5.64946 12.1351 5.88388C11.9006 6.1183 11.5827 6.25 11.2512 6.25H9.75118C9.1989 6.25 8.75118 6.69772 8.75118 7.25V8.75C8.75118 9.08152 8.61949 9.39946 8.38507 9.63388C8.15065 9.8683 7.83271 10 7.50118 10C7.16966 10 6.85172 9.8683 6.6173 9.63388C6.38288 9.39946 6.25118 9.08152 6.25118 8.75V7.25C6.25118 6.69772 5.80347 6.25 5.25118 6.25H3.75118C3.41966 6.25 3.10172 6.1183 2.8673 5.88388C2.63288 5.64946 2.50118 5.33152 2.50118 5ZM23.7512 25H23.5012C22.9489 25 22.5012 24.5523 22.5012 24V23.75C22.5012 23.4185 22.3695 23.1005 22.1351 22.8661C21.9006 22.6317 21.5827 22.5 21.2512 22.5C20.9197 22.5 20.6017 22.6317 20.3673 22.8661C20.1329 23.1005 20.0012 23.4185 20.0012 23.75V24C20.0012 24.5523 19.5535 25 19.0012 25H18.7512C18.4197 25 18.1017 25.1317 17.8673 25.3661C17.6329 25.6005 17.5012 25.9185 17.5012 26.25C17.5012 26.5815 17.6329 26.8995 17.8673 27.1339C18.1017 27.3683 18.4197 27.5 18.7512 27.5H19.0012C19.5535 27.5 20.0012 27.9477 20.0012 28.5V28.75C20.0012 29.0815 20.1329 29.3995 20.3673 29.6339C20.6017 29.8683 20.9197 30 21.2512 30C21.5827 30 21.9006 29.8683 22.1351 29.6339C22.3695 29.3995 22.5012 29.0815 22.5012 28.75V28.5C22.5012 27.9477 22.9489 27.5 23.5012 27.5H23.7512C24.0827 27.5 24.4006 27.3683 24.6351 27.1339C24.8695 26.8995 25.0012 26.5815 25.0012 26.25C25.0012 25.9185 24.8695 25.6005 24.6351 25.3661C24.4006 25.1317 24.0827 25 23.7512 25ZM32.5012 17.5H31.0012C30.4489 17.5 30.0012 17.0523 30.0012 16.5V15C30.0012 14.6685 29.8695 14.3505 29.6351 14.1161C29.4006 13.8817 29.0827 13.75 28.7512 13.75C28.4197 13.75 28.1017 13.8817 27.8673 14.1161C27.6329 14.3505 27.5012 14.6685 27.5012 15V16.5C27.5012 17.0523 27.0535 17.5 26.5012 17.5H25.0012C24.6697 17.5 24.3517 17.6317 24.1173 17.8661C23.8829 18.1005 23.7512 18.4185 23.7512 18.75C23.7512 19.0815 23.8829 19.3995 24.1173 19.6339C24.3517 19.8683 24.6697 20 25.0012 20H26.5012C27.0535 20 27.5012 20.4477 27.5012 21V22.5C27.5012 22.8315 27.6329 23.1495 27.8673 23.3839C28.1017 23.6183 28.4197 23.75 28.7512 23.75C29.0827 23.75 29.4006 23.6183 29.6351 23.3839C29.8695 23.1495 30.0012 22.8315 30.0012 22.5V21C30.0012 20.4477 30.4489 20 31.0012 20H32.5012C32.8327 20 33.1506 19.8683 33.3851 19.6339C33.6195 19.3995 33.7512 19.0815 33.7512 18.75C33.7512 18.4185 33.6195 18.1005 33.3851 17.8661C33.1506 17.6317 32.8327 17.5 32.5012 17.5ZM29.2684 7.5L7.50118 29.2672C7.03239 29.7357 6.39676 29.9988 5.734 29.9988C5.07124 29.9988 4.4356 29.7357 3.96681 29.2672L0.732435 26.0359C0.500228 25.8038 0.316028 25.5282 0.190356 25.2248C0.0646833 24.9215 0 24.5963 0 24.268C0 23.9396 0.0646833 23.6145 0.190356 23.3111C0.316028 23.0078 0.500228 22.7322 0.732435 22.5L22.5012 0.732812C22.7333 0.500605 23.009 0.316406 23.3123 0.190734C23.6157 0.0650612 23.9408 0.000377893 24.2692 0.000377893C24.5975 0.000377893 24.9226 0.0650612 25.226 0.190734C25.5293 0.316406 25.805 0.500605 26.0371 0.732812L29.2684 3.96406C29.5006 4.19622 29.6848 4.47184 29.8105 4.77519C29.9361 5.07854 30.0008 5.40368 30.0008 5.73203C30.0008 6.06038 29.9361 6.38552 29.8105 6.68887C29.6848 6.99222 29.5006 7.26785 29.2684 7.5ZM20.0255 13.2069C20.416 12.8165 20.416 12.1834 20.0257 11.7929L18.2083 9.97464C17.8178 9.58395 17.1845 9.58387 16.7939 9.97447L3.20812 23.5603C2.81766 23.9507 2.81759 24.5837 3.20795 24.9743L5.02533 26.7926C5.41583 27.1832 6.04912 27.1833 6.43971 26.7927L20.0255 13.2069ZM26.7941 6.43992C27.1846 6.04939 27.1846 5.41623 26.7941 5.02571L24.9755 3.20711C24.585 2.81658 23.9518 2.81658 23.5613 3.20711L19.9755 6.79289C19.585 7.18342 19.585 7.81658 19.9755 8.20711L21.7941 10.0257C22.1846 10.4162 22.8178 10.4162 23.2083 10.0257L26.7941 6.43992Z" fill="var(--fill-0, white)" fill-opacity="0.6"/>
</svg>
