<svg preserveAspectRatio="xMidYMid meet" width="100%" height="100%" overflow="visible" style="display: block;" viewBox="0 0 13.5 12" fill="none" xmlns="http://www.w3.org/2000/svg">
<path id="Vector" d="M8.5 4V3H7.5C7.36739 3 7.24021 3.05268 7.14645 3.14645C7.05268 3.24021 7 3.36739 7 3.5V8.5C7 8.63261 7.05268 8.75979 7.14645 8.85355C7.24021 8.94732 7.36739 9 7.5 9H8.5V8C8.5 7.73478 8.60536 7.48043 8.79289 7.29289C8.98043 7.10536 9.23478 7 9.5 7H12.5C12.7652 7 13.0196 7.10536 13.2071 7.29289C13.3946 7.48043 13.5 7.73478 13.5 8V11C13.5 11.2652 13.3946 11.5196 13.2071 11.7071C13.0196 11.8946 12.7652 12 12.5 12H9.5C9.23478 12 8.98043 11.8946 8.79289 11.7071C8.60536 11.5196 8.5 11.2652 8.5 11V10H7.5C7.10218 10 6.72064 9.84196 6.43934 9.56066C6.15804 9.27936 6 8.89782 6 8.5V6.5H4V7C4 7.26522 3.89464 7.51957 3.70711 7.70711C3.51957 7.89464 3.26522 8 3 8H1C0.734784 8 0.48043 7.89464 0.292893 7.70711C0.105357 7.51957 0 7.26522 0 7V5C0 4.73478 0.105357 4.48043 0.292893 4.29289C0.48043 4.10536 0.734784 4 1 4H3C3.26522 4 3.51957 4.10536 3.70711 4.29289C3.89464 4.48043 4 4.73478 4 5V5.5H6V3.5C6 3.10218 6.15804 2.72064 6.43934 2.43934C6.72064 2.15804 7.10218 2 7.5 2H8.5V1C8.5 0.734784 8.60536 0.48043 8.79289 0.292893C8.98043 0.105357 9.23478 0 9.5 0H12.5C12.7652 0 13.0196 0.105357 13.2071 0.292893C13.3946 0.48043 13.5 0.734784 13.5 1V4C13.5 4.26522 13.3946 4.51957 13.2071 4.70711C13.0196 4.89464 12.7652 5 12.5 5H9.5C9.23478 5 8.98043 4.89464 8.79289 4.70711C8.60536 4.51957 8.5 4.26522 8.5 4Z" fill="var(--fill-0, white)"/>
</svg>
