<svg preserveAspectRatio="xMidYMid meet" width="100%" height="100%" overflow="visible" style="display: block;" viewBox="0 0 14 9.4596" fill="none" xmlns="http://www.w3.org/2000/svg">
<path id="Vector" d="M14 6.95957V8.45957C14 8.72479 13.8946 8.97914 13.7071 9.16668C13.5196 9.35422 13.2652 9.45957 13 9.45957H6.24563C6.19951 9.45961 6.15428 9.44689 6.11495 9.42282C6.07561 9.39875 6.0437 9.36427 6.02274 9.3232C6.00178 9.28212 5.9926 9.23605 5.99619 9.19007C5.99979 9.1441 6.01603 9.10002 6.04313 9.0627L9.89188 3.77207C9.97165 3.66611 10.0073 3.53337 9.99133 3.4017C9.97536 3.27003 9.90903 3.14966 9.80625 3.06582C9.75337 3.02479 9.69279 2.9948 9.62809 2.97762C9.5634 2.96044 9.49592 2.95642 9.42965 2.96581C9.36338 2.97519 9.29966 2.99778 9.24229 3.03225C9.18491 3.06672 9.13504 3.11235 9.09562 3.16645L4.59562 9.3577C4.57204 9.38978 4.54113 9.41576 4.50547 9.43348C4.46981 9.4512 4.43044 9.46015 4.39062 9.45957H1C0.734784 9.45957 0.48043 9.35422 0.292893 9.16668C0.105357 8.97914 0 8.72479 0 8.45957V7.0302C0 6.91832 -5.21541e-08 6.80707 0.00812495 6.69707C0.0113346 6.63296 0.0390842 6.57254 0.0856249 6.52832C0.132166 6.48411 0.193931 6.45949 0.258125 6.45957H2C2.06854 6.45972 2.13639 6.44578 2.19931 6.41861C2.26224 6.39143 2.31891 6.35161 2.3658 6.30162C2.41269 6.25162 2.4488 6.19252 2.47189 6.12798C2.49497 6.06344 2.50454 5.99484 2.5 5.92645C2.48894 5.79766 2.42945 5.67785 2.33352 5.59121C2.23759 5.50456 2.11237 5.45752 1.98312 5.45957H0.495C0.456861 5.45955 0.419235 5.45079 0.385 5.43398C0.350766 5.41717 0.320831 5.39275 0.297487 5.36259C0.274143 5.33243 0.258009 5.29733 0.25032 5.25998C0.242631 5.22262 0.24359 5.184 0.253125 5.14707C1.00312 2.40707 3.35687 0.326449 6.22312 0.00457437C6.25814 0.000787608 6.29356 0.00444224 6.32707 0.0152989C6.36057 0.0261556 6.39141 0.0439693 6.41755 0.0675727C6.44369 0.0911761 6.46455 0.120036 6.47875 0.152263C6.49296 0.18449 6.5002 0.219355 6.5 0.254574V1.95957C6.49985 2.02812 6.51379 2.09596 6.54097 2.15889C6.56814 2.22182 6.60796 2.27848 6.65796 2.32537C6.70795 2.37226 6.76706 2.40837 6.8316 2.43146C6.89614 2.45455 6.96473 2.46412 7.03312 2.45957C7.16192 2.44852 7.28172 2.38902 7.36837 2.29309C7.45502 2.19717 7.50206 2.07195 7.5 1.9427V0.251449C7.4998 0.21623 7.50704 0.181365 7.52125 0.149138C7.53545 0.116912 7.55631 0.0880509 7.58245 0.0644475C7.60859 0.0408441 7.63943 0.0230306 7.67293 0.012174C7.70644 0.00131729 7.74186 -0.00233758 7.77687 0.00144918C9.1762 0.158693 10.4958 0.733645 11.5637 1.65143C12.6316 2.56922 13.3985 3.78731 13.7644 5.14707C13.7739 5.18405 13.7749 5.22273 13.7671 5.26013C13.7594 5.29753 13.7432 5.33267 13.7198 5.36284C13.6964 5.39301 13.6664 5.41742 13.6321 5.43419C13.5978 5.45096 13.5601 5.45964 13.5219 5.45957H12.0169C11.8878 5.45784 11.7629 5.50502 11.6673 5.59164C11.5716 5.67825 11.5123 5.79788 11.5013 5.92645C11.4967 5.99484 11.5063 6.06344 11.5294 6.12798C11.5525 6.19252 11.5886 6.25162 11.6354 6.30162C11.6823 6.35161 11.739 6.39143 11.8019 6.41861C11.8649 6.44578 11.9327 6.45972 12.0013 6.45957H13.7463C13.8111 6.45953 13.8734 6.48467 13.92 6.52968C13.9666 6.57468 13.994 6.63605 13.9963 6.70082C14 6.78645 14 6.8727 14 6.95957Z" fill="var(--fill-0, white)"/>
</svg>
