<svg preserveAspectRatio="xMidYMid meet" width="100%" height="100%" overflow="visible" style="display: block;" viewBox="0 0 14.5 11" fill="none" xmlns="http://www.w3.org/2000/svg">
<path id="Vector" d="M13 2H12V1.5C12 1.10218 11.842 0.720644 11.5607 0.43934C11.2794 0.158035 10.8978 0 10.5 0H1.5C1.10218 0 0.720644 0.158035 0.43934 0.43934C0.158035 0.720644 0 1.10218 0 1.5V7.5C0 7.89782 0.158035 8.27936 0.43934 8.56066C0.720644 8.84196 1.10218 9 1.5 9H8.5V9.5C8.5 9.89782 8.65804 10.2794 8.93934 10.5607C9.22064 10.842 9.60218 11 10 11H13C13.3978 11 13.7794 10.842 14.0607 10.5607C14.342 10.2794 14.5 9.89782 14.5 9.5V3.5C14.5 3.10218 14.342 2.72064 14.0607 2.43934C13.7794 2.15804 13.3978 2 13 2ZM13.5 9.5C13.5 9.63261 13.4473 9.75979 13.3536 9.85355C13.2598 9.94732 13.1326 10 13 10H10C9.86739 10 9.74021 9.94732 9.64645 9.85355C9.55268 9.75979 9.5 9.63261 9.5 9.5V3.5C9.5 3.36739 9.55268 3.24021 9.64645 3.14645C9.74021 3.05268 9.86739 3 10 3H13C13.1326 3 13.2598 3.05268 13.3536 3.14645C13.4473 3.24021 13.5 3.36739 13.5 3.5V9.5ZM7.5 10.5C7.5 10.6326 7.44732 10.7598 7.35355 10.8536C7.25979 10.9473 7.13261 11 7 11H4.5C4.36739 11 4.24021 10.9473 4.14645 10.8536C4.05268 10.7598 4 10.6326 4 10.5C4 10.3674 4.05268 10.2402 4.14645 10.1464C4.24021 10.0527 4.36739 10 4.5 10H7C7.13261 10 7.25979 10.0527 7.35355 10.1464C7.44732 10.2402 7.5 10.3674 7.5 10.5ZM12.5 4.5C12.5 4.63261 12.4473 4.75979 12.3536 4.85355C12.2598 4.94732 12.1326 5 12 5H11C10.8674 5 10.7402 4.94732 10.6464 4.85355C10.5527 4.75979 10.5 4.63261 10.5 4.5C10.5 4.36739 10.5527 4.24021 10.6464 4.14645C10.7402 4.05268 10.8674 4 11 4H12C12.1326 4 12.2598 4.05268 12.3536 4.14645C12.4473 4.24021 12.5 4.36739 12.5 4.5Z" fill="var(--fill-0, white)"/>
</svg>
