<svg preserveAspectRatio="none" width="100%" height="100%" overflow="visible" style="display: block;" viewBox="0 0 12.9804 4.50325" fill="none" xmlns="http://www.w3.org/2000/svg">
<path id="Vector" d="M12.2229 0.0714272L6.47285 3.42455L0.722853 0.0714272C0.609006 0.0147435 0.477837 0.00357321 0.356044 0.0401896C0.234251 0.0768061 0.130988 0.158457 0.0672737 0.268524C0.00355919 0.378591 -0.0158184 0.508801 0.013085 0.632651C0.0419884 0.756501 0.117 0.864683 0.222853 0.935178L6.22285 4.43518C6.29931 4.47976 6.38622 4.50325 6.47473 4.50325C6.56323 4.50325 6.65015 4.47976 6.7266 4.43518L12.7266 0.935178C12.7842 0.902573 12.8348 0.858846 12.8754 0.806537C12.916 0.754227 12.9458 0.694376 12.9631 0.630457C12.9803 0.566538 12.9848 0.499824 12.976 0.434188C12.9673 0.368551 12.9457 0.3053 12.9123 0.248104C12.8789 0.190908 12.8346 0.140907 12.7817 0.101003C12.7289 0.0610987 12.6686 0.0320865 12.6045 0.0156502C12.5404 -0.000786135 12.4736 -0.00431935 12.4081 0.00525561C12.3426 0.0148306 12.2796 0.0373228 12.2229 0.0714272Z" fill="var(--fill-0, white)"/>
</svg>
