<svg preserveAspectRatio="none" width="100%" height="100%" overflow="visible" style="display: block;" viewBox="0 0 12.9998 7.9999" fill="none" xmlns="http://www.w3.org/2000/svg">
<path id="Vector" d="M0.24804 4.43183L6.24804 7.93183C6.32449 7.97641 6.41141 7.9999 6.49991 7.9999C6.58842 7.9999 6.67534 7.97641 6.75179 7.93183L12.7518 4.43183C12.8273 4.38779 12.8899 4.32474 12.9334 4.24897C12.9769 4.17319 12.9998 4.08733 12.9998 3.99995C12.9998 3.91257 12.9769 3.82671 12.9334 3.75093C12.8899 3.67516 12.8273 3.61211 12.7518 3.56808L6.75179 0.0680753C6.67534 0.0234916 6.58842 0 6.49991 0C6.41141 0 6.32449 0.0234916 6.24804 0.0680753L0.24804 3.56808C0.172562 3.61211 0.109942 3.67516 0.0664217 3.75093C0.0229014 3.82671 0 3.91257 0 3.99995C0 4.08733 0.0229014 4.17319 0.0664217 4.24897C0.109942 4.32474 0.172562 4.38779 0.24804 4.43183Z" fill="var(--fill-0, white)"/>
</svg>
