<svg preserveAspectRatio="xMidYMid meet" width="100%" height="100%" overflow="visible" style="display: block;" viewBox="0 0 13.0004 13.0041" fill="none" xmlns="http://www.w3.org/2000/svg">
<path id="Vector" d="M9.00002 5.50375C9.00002 6.19599 8.79475 6.87268 8.41016 7.44825C8.02558 8.02382 7.47895 8.47243 6.83941 8.73733C6.19987 9.00224 5.49614 9.07155 4.8172 8.9365C4.13827 8.80146 3.51463 8.46811 3.02515 7.97863C2.53566 7.48914 2.20232 6.8655 2.06727 6.18657C1.93222 5.50764 2.00153 4.8039 2.26644 4.16436C2.53135 3.52482 2.97995 2.9782 3.55552 2.59361C4.1311 2.20903 4.80778 2.00375 5.50002 2.00375C6.42828 2.00375 7.31852 2.3725 7.97489 3.02888C8.63127 3.68526 9.00002 4.5755 9.00002 5.50375ZM12.8538 12.8575C12.8073 12.904 12.7522 12.9409 12.6915 12.966C12.6308 12.9912 12.5657 13.0041 12.5 13.0041C12.4343 13.0041 12.3692 12.9912 12.3085 12.966C12.2478 12.9409 12.1927 12.904 12.1463 12.8575L9.01752 9.72813C7.92946 10.6333 6.53433 11.0842 5.12231 10.987C3.71029 10.8898 2.39009 10.252 1.43632 9.20628C0.482557 8.16055 -0.0313558 6.78737 0.00148209 5.3724C0.03432 3.95742 0.611381 2.60956 1.61263 1.6092C2.61389 0.608828 3.96225 0.0329587 5.37725 0.00137136C6.79226 -0.030216 8.16498 0.484911 9.20987 1.4396C10.2548 2.39429 10.8914 3.71505 10.9873 5.12716C11.0833 6.53926 10.6312 7.934 9.72502 9.02125L12.8538 12.15C12.9003 12.1964 12.9371 12.2516 12.9623 12.3123C12.9875 12.373 13.0004 12.438 13.0004 12.5038C13.0004 12.5695 12.9875 12.6345 12.9623 12.6952C12.9371 12.7559 12.9003 12.8111 12.8538 12.8575ZM5.50002 10.0038C6.39004 10.0038 7.26006 9.73983 8.00008 9.24537C8.74011 8.7509 9.31688 8.0481 9.65748 7.22583C9.99807 6.40356 10.0872 5.49876 9.91355 4.62585C9.73992 3.75293 9.31134 2.95111 8.682 2.32177C8.05266 1.69244 7.25084 1.26385 6.37793 1.09022C5.50501 0.916588 4.60021 1.0057 3.77794 1.3463C2.95568 1.68689 2.25287 2.26367 1.75841 3.00369C1.26394 3.74371 1.00002 4.61374 1.00002 5.50375C1.00134 6.69682 1.47587 7.84065 2.3195 8.68427C3.16313 9.5279 4.30695 10.0024 5.50002 10.0038Z" fill="var(--fill-0, white)"/>
</svg>
