<svg preserveAspectRatio="xMidYMid meet" width="100%" height="100%" overflow="visible" style="display: block;" viewBox="0 0 13 13" fill="none" xmlns="http://www.w3.org/2000/svg">
<path id="Vector" d="M6.5 0C5.21442 0 3.95772 0.381218 2.8888 1.09545C1.81988 1.80968 0.986756 2.82484 0.494786 4.01256C0.00281635 5.20028 -0.125905 6.50721 0.124899 7.76809C0.375703 9.02896 0.994767 10.1872 1.90381 11.0962C2.81285 12.0052 3.97104 12.6243 5.23192 12.8751C6.49279 13.1259 7.79973 12.9972 8.98744 12.5052C10.1752 12.0132 11.1903 11.1801 11.9046 10.1112C12.6188 9.04229 13 7.78558 13 6.5C12.9982 4.77665 12.3128 3.12441 11.0942 1.90582C9.87559 0.687224 8.22335 0.00181989 6.5 0ZM4.5 6.5C4.5 6.10444 4.6173 5.71776 4.83706 5.38886C5.05683 5.05996 5.36918 4.80362 5.73464 4.65224C6.10009 4.50087 6.50222 4.46126 6.89018 4.53843C7.27815 4.6156 7.63451 4.80608 7.91422 5.08579C8.19392 5.36549 8.3844 5.72186 8.46157 6.10982C8.53874 6.49778 8.49914 6.89991 8.34776 7.26537C8.19639 7.63082 7.94004 7.94318 7.61114 8.16294C7.28224 8.3827 6.89557 8.5 6.5 8.5C5.96957 8.5 5.46086 8.28929 5.08579 7.91421C4.71072 7.53914 4.5 7.03043 4.5 6.5ZM10.0175 2.275L8.23688 4.05625C7.72997 3.6945 7.12276 3.50005 6.5 3.50005C5.87725 3.50005 5.27004 3.6945 4.76313 4.05625L2.9825 2.275C3.96951 1.45119 5.21437 0.999938 6.5 0.999938C7.78564 0.999938 9.03049 1.45119 10.0175 2.275ZM2.9825 10.725L4.76313 8.94375C5.27004 9.3055 5.87725 9.49995 6.5 9.49995C7.12276 9.49995 7.72997 9.3055 8.23688 8.94375L10.0175 10.725C9.03049 11.5488 7.78564 12.0001 6.5 12.0001C5.21437 12.0001 3.96951 11.5488 2.9825 10.725Z" fill="var(--fill-0, white)"/>
</svg>
