<svg preserveAspectRatio="xMidYMid meet" width="100%" height="100%" overflow="visible" style="display: block;" viewBox="0 0 13.0001 12.9994" fill="none" xmlns="http://www.w3.org/2000/svg">
<path id="Vector" d="M13.0001 8.7438C12.9976 8.63233 12.9765 8.52206 12.9376 8.41755L11.7464 5.15443C11.6546 4.90701 11.4687 4.70589 11.2293 4.5949C10.9899 4.48392 10.7163 4.47206 10.4682 4.56192L6.2301 6.09755L6.9851 1.78505C7.03187 1.52407 6.97307 1.2552 6.82165 1.03755C6.67022 0.819907 6.43856 0.671307 6.1776 0.624425L2.76073 0.01505C2.63155 -0.00766105 2.49916 -0.00464268 2.37116 0.023932C2.24316 0.0525067 2.12205 0.106075 2.0148 0.181564C1.90755 0.257053 1.81626 0.352977 1.74617 0.463831C1.67607 0.574685 1.62856 0.698289 1.60635 0.82755L0.0438504 9.77255C-0.0275831 10.1669 -0.0115872 10.5722 0.0907094 10.9597C0.193006 11.3472 0.37911 11.7076 0.635886 12.0153C0.892662 12.323 1.21385 12.5707 1.57679 12.7407C1.93972 12.9108 2.33556 12.9991 2.73635 12.9994H12.0001C12.2653 12.9994 12.5197 12.8941 12.7072 12.7065C12.8947 12.519 13.0001 12.2646 13.0001 11.9994V8.7438ZM2.7501 11.2494C2.55232 11.2494 2.35898 11.1908 2.19453 11.0809C2.03008 10.971 1.90191 10.8148 1.82622 10.6321C1.75053 10.4494 1.73073 10.2483 1.76932 10.0543C1.8079 9.86035 1.90314 9.68217 2.04299 9.54232C2.18285 9.40247 2.36103 9.30722 2.55501 9.26864C2.74899 9.23005 2.95006 9.24986 3.13278 9.32555C3.31551 9.40123 3.47169 9.52941 3.58157 9.69385C3.69145 9.8583 3.7501 10.0516 3.7501 10.2494C3.7501 10.5146 3.64474 10.769 3.45721 10.9565C3.26967 11.1441 3.01532 11.2494 2.7501 11.2494ZM5.4201 10.7257L6.03135 7.23067L10.8076 5.49942L12.0001 8.7563L5.29885 11.1869C5.35228 11.0369 5.39285 10.8826 5.4201 10.7257ZM12.0001 11.9994H5.98385L12.0001 9.8188V11.9994Z" fill="var(--fill-0, white)"/>
</svg>
