<svg preserveAspectRatio="xMidYMid meet" width="100%" height="100%" overflow="visible" style="display: block;" viewBox="0 0 12 12.5004" fill="none" xmlns="http://www.w3.org/2000/svg">
<path id="Vector" d="M12 1.50039V11.5004C12 11.7656 11.8946 12.02 11.7071 12.2075C11.5196 12.395 11.2652 12.5004 11 12.5004H8C7.73478 12.5004 7.48043 12.395 7.29289 12.2075C7.10536 12.02 7 11.7656 7 11.5004V9.75039C7 9.68409 7.02634 9.6205 7.07322 9.57362C7.12011 9.52673 7.1837 9.50039 7.25 9.50039H9.5C9.56854 9.50054 9.63639 9.4866 9.69931 9.45943C9.76224 9.43225 9.81891 9.39243 9.8658 9.34244C9.91269 9.29244 9.9488 9.23334 9.97189 9.1688C9.99497 9.10426 10.0045 9.03566 10 8.96727C9.98881 8.83875 9.92945 8.71921 9.83383 8.63262C9.7382 8.54604 9.61337 8.4988 9.48437 8.50039H7.25C7.1837 8.50039 7.12011 8.47405 7.07322 8.42717C7.02634 8.38029 7 8.3167 7 8.25039V7.25039C7 7.18409 7.02634 7.1205 7.07322 7.07362C7.12011 7.02673 7.1837 7.00039 7.25 7.00039H9.5C9.56854 7.00054 9.63639 6.9866 9.69931 6.95943C9.76224 6.93225 9.81891 6.89243 9.8658 6.84244C9.91269 6.79244 9.9488 6.73334 9.97189 6.6688C9.99497 6.60426 10.0045 6.53566 10 6.46727C9.98881 6.33875 9.92945 6.21921 9.83383 6.13263C9.7382 6.04604 9.61337 5.9988 9.48437 6.00039H7.25C7.1837 6.00039 7.12011 5.97405 7.07322 5.92717C7.02634 5.88029 7 5.8167 7 5.75039V4.75039C7 4.68409 7.02634 4.6205 7.07322 4.57362C7.12011 4.52673 7.1837 4.50039 7.25 4.50039H9.5C9.56854 4.50054 9.63639 4.4866 9.69931 4.45943C9.76224 4.43225 9.81891 4.39243 9.8658 4.34244C9.91269 4.29244 9.9488 4.23334 9.97189 4.1688C9.99497 4.10426 10.0045 4.03566 10 3.96727C9.9888 3.83853 9.92926 3.71881 9.83337 3.63219C9.73747 3.54558 9.61233 3.49849 9.48312 3.50039H7.25C7.1837 3.50039 7.12011 3.47405 7.07322 3.42717C7.02634 3.38029 7 3.3167 7 3.25039V1.50039C7 1.23518 7.10536 0.980823 7.29289 0.793286C7.48043 0.60575 7.73478 0.500393 8 0.500393H11C11.2652 0.500393 11.5196 0.60575 11.7071 0.793286C11.8946 0.980823 12 1.23518 12 1.50039ZM4.85375 2.14664C4.90017 2.19311 4.93697 2.24827 4.96207 2.30897C4.98716 2.36967 5.00005 2.43471 5 2.50039V11.5004C5 11.7656 4.89464 12.02 4.70711 12.2075C4.51957 12.395 4.26522 12.5004 4 12.5004H1C0.734784 12.5004 0.48043 12.395 0.292893 12.2075C0.105357 12.02 1.54601e-07 11.7656 1.54601e-07 11.5004V2.50039C-5.14929e-05 2.43471 0.0128378 2.36967 0.0379318 2.30897C0.0630259 2.24827 0.099833 2.19311 0.14625 2.14664L2.14625 0.146643C2.19269 0.100155 2.24783 0.0632755 2.30853 0.0381134C2.36923 0.0129512 2.43429 0 2.5 0C2.56571 0 2.63077 0.0129512 2.69147 0.0381134C2.75217 0.0632755 2.80731 0.100155 2.85375 0.146643L4.85375 2.14664ZM1 3.50039V10.0004H2V3.50039H1ZM3 3.50039V10.0004H4V3.50039H3ZM1.20688 2.50039H3.79313L2.5 1.20727L1.20688 2.50039Z" fill="var(--fill-0, white)"/>
</svg>
